<?xml version="1.0" standalone="no"?>
<!DOCTYPE svg PUBLIC "-//W3C//DTD SVG 1.1//EN" "http://www.w3.org/Graphics/SVG/1.1/DTD/svg11.dtd" >
<svg>
<metadata>
Created by FontForge 20090622 at Tue Aug 30 20:46:30 2016
 By deploy user
Typeface &#194;&#169; The Monotype Corporation plc. Data &#194;&#169; The Monotype Corporation plc / Type Solutions Inc. 1990-91 All Rights Reserved.
</metadata>
<defs>
<font id="CenturySchoolbook-Bold" horiz-adv-x="1451" >
  <font-face 
    font-family="Century Schoolbook"
    font-weight="700"
    font-stretch="normal"
    units-per-em="2048"
    panose-1="2 4 8 4 6 5 5 2 3 4"
    ascent="1638"
    descent="-410"
    x-height="936"
    cap-height="1479"
    bbox="-362 -653 2843 2328"
    underline-thickness="102"
    underline-position="-154"
    unicode-range="U+0020-U+F108"
  />
<missing-glyph horiz-adv-x="1536" 
d="M256 0v1280h1024v-1280h-1024zM288 32h960v1216h-960v-1216z" />
    <glyph glyph-name=".notdef" horiz-adv-x="1536" 
d="M256 0v1280h1024v-1280h-1024zM288 32h960v1216h-960v-1216z" />
    <glyph glyph-name=".null" horiz-adv-x="0" 
 />
    <glyph glyph-name="nonmarkingreturn" horiz-adv-x="588" 
 />
    <glyph glyph-name="space" unicode=" " horiz-adv-x="588" 
 />
    <glyph glyph-name="exclam" unicode="!" horiz-adv-x="606" 
d="M346 432h-74q0 139 -14.5 243.5t-73.5 357.5q-48 208 -48 278q0 96 48.5 151t124.5 55q75 0 123.5 -55.5t48.5 -147.5q0 -59 -50 -283q-58 -260 -71.5 -360.5t-13.5 -238.5zM310 318q72 0 122 -51t50 -123t-50 -123t-121 -51t-121.5 51t-50.5 123t50 123t121 51z" />
    <glyph glyph-name="quotedbl" unicode="&#x22;" horiz-adv-x="682" 
d="M164 751h-45l-99 389q-18 72 -18 126q0 78 37 119t100 41q64 0 101.5 -39t37.5 -110q0 -46 -22 -137zM567 751h-45l-99 389q-18 72 -18 126q0 78 37 119t100 41q64 0 101.5 -39t37.5 -110q0 -46 -22 -137z" />
    <glyph glyph-name="numbersign" unicode="#" horiz-adv-x="1176" 
d="M-22 1081h319l86 398h166l-85 -398h302l84 398h168l-85 -398h183v-168h-215l-69 -330h284v-169h-316l-85 -393h-166l84 393h-306l-81 -393h-169l83 393h-182v169h217l69 330h-286v168zM431 913l-69 -330h303l69 330h-303z" />
    <glyph glyph-name="dollar" unicode="$" horiz-adv-x="1176" 
d="M551 1520h104v-97q71 0 165.5 -32t156.5 -106t62 -153q0 -71 -45 -121t-105 -50q-54 0 -91 37.5t-37 93.5q0 36 32 89q29 47 29 67q0 30 -42 57t-125 29v-499q225 -99 313 -185q114 -113 114 -262q0 -158 -111.5 -271t-315.5 -141v-244h-104v244q-171 0 -286.5 86
t-115.5 226q0 82 45 131t112 49q64 0 104 -40.5t40 -104.5q0 -85 -68 -133q-26 -18 -31.5 -26t-5.5 -18q0 -27 39 -48q54 -30 167 -34v524q-183 83 -247 136.5t-100.5 132.5t-36.5 174q0 154 105.5 263.5t278.5 128.5v97zM551 880v452q-99 -11 -158.5 -71.5t-59.5 -139.5
q0 -147 218 -241zM655 550v-481q109 14 175.5 78.5t66.5 142.5q0 71 -46.5 128.5t-195.5 131.5z" />
    <glyph glyph-name="percent" unicode="%" horiz-adv-x="1706" 
d="M423 1426q122 0 206.5 -100t84.5 -265t-85.5 -263.5t-207.5 -98.5q-119 0 -203.5 100t-84.5 261q0 163 85.5 264.5t204.5 101.5zM423 1370q-45 0 -66 -51q-28 -66 -28 -312q0 -149 31 -208q23 -45 65 -45q44 0 68.5 56t24.5 286q0 169 -30 230q-22 44 -65 44zM1295 1395
h83l-983 -1395h-83zM1279 700q123 0 207.5 -100t84.5 -266q0 -165 -85.5 -263.5t-207.5 -98.5q-119 0 -203.5 100.5t-84.5 260.5q0 164 85 265.5t204 101.5zM1280 644q-46 0 -67 -51q-28 -67 -28 -313q0 -148 31 -207q24 -45 65 -45q44 0 69 56t25 286q0 169 -30 229
q-22 45 -65 45z" />
    <glyph glyph-name="ampersand" unicode="&#x26;" horiz-adv-x="1745" 
d="M782 866q177 -297 348 -502q137 179 137 278q0 51 -41 82.5t-147 35.5v90h567v-90q-101 0 -153.5 -36.5t-136.5 -184.5q-76 -132 -154 -241q80 -83 128.5 -109.5t93.5 -26.5q62 0 104 48.5t48 153.5h87q-1 -191 -79 -285q-92 -109 -254 -109q-80 0 -154 28t-181 111
q-128 -80 -223 -109.5t-205 -29.5q-206 0 -331 115t-125 288q0 292 385 460q-68 140 -89 212.5t-21 138.5q0 139 110 236t289 97q180 0 276 -76.5t96 -193.5q0 -99 -80.5 -192.5t-294.5 -188.5zM740 947q115 53 158.5 116.5t43.5 162.5t-42 149.5t-114 50.5
q-68 0 -111.5 -47.5t-43.5 -128.5q0 -116 109 -303zM538 742q-81 -61 -112.5 -119t-31.5 -129q0 -132 95 -254t233 -122q97 0 200 66q-163 207 -211 276.5t-173 281.5z" />
    <glyph glyph-name="quotesingle" unicode="'" horiz-adv-x="494" 
d="M271 739h-45l-99 389q-18 72 -18 126q0 78 37 119t100 41q64 0 101.5 -39t37.5 -110q0 -46 -22 -137z" />
    <glyph glyph-name="parenleft" unicode="(" horiz-adv-x="797" 
d="M719 1518l34 -59q-158 -172 -222 -360q-78 -229 -78 -544q0 -311 81 -542q68 -192 219 -347l-34 -62q-312 231 -452 475q-123 214 -123 484q0 188 55.5 339t197.5 321t322 295z" />
    <glyph glyph-name="parenright" unicode=")" horiz-adv-x="797" 
d="M88 1518q301 -218 449 -471q124 -215 124 -485q0 -315 -167.5 -554.5t-405.5 -404.5l-34 61q107 112 167 229.5t96 285t36 382.5q0 341 -94 585q-65 168 -205 310z" />
    <glyph glyph-name="asterisk" unicode="*" horiz-adv-x="1024" 
d="M546 1052q47 18 78 40q24 16 75 71q58 64 92.5 82.5t72.5 18.5q60 0 98 -37t38 -96t-40.5 -96.5t-111.5 -37.5q-26 0 -105 10q-82 10 -110 10q-25 0 -70 -9q21 -26 42.5 -41.5t105.5 -59.5q77 -39 95 -55q26 -21 38.5 -48.5t12.5 -59.5q0 -59 -40.5 -98.5t-99.5 -39.5
q-61 0 -99 52q-24 33 -47 156q-17 91 -24.5 114.5t-25.5 52.5q-25 -46 -37 -121q-19 -121 -38 -163t-54.5 -66.5t-73.5 -24.5q-52 0 -90 40.5t-38 97.5q0 43 22 74.5t89 67.5q94 51 135 79q23 16 48 43q-41 11 -71 11q-39 0 -140 -15q-53 -7 -71 -7q-75 0 -117 36.5
t-42 95.5q0 60 37 98t94 38q40 0 80 -22q25 -15 88 -76q64 -63 89 -80.5t67 -34.5q0 45 -6.5 69t-38.5 86q-42 80 -53 113t-11 61q0 61 37 98.5t95 37.5q60 0 96 -35.5t36 -92.5q0 -32 -9.5 -64.5t-48.5 -113.5q-33 -69 -40.5 -95t-8.5 -64z" />
    <glyph glyph-name="plus" unicode="+" horiz-adv-x="1241" 
d="M60 774h466v467h187v-467h468v-187h-468v-464h-187v464h-466v187z" />
    <glyph glyph-name="comma" unicode="," horiz-adv-x="569" 
d="M162 -355l-33 60q123 71 174.5 139.5t51.5 118.5q0 30 -25 30l-19 -3q-21 -5 -41 -5q-72 0 -122.5 51t-50.5 125q0 68 52 118.5t126 50.5q87 0 151 -72t64 -182q0 -120 -82 -235t-246 -196z" />
    <glyph glyph-name="hyphen" unicode="-" horiz-adv-x="682" 
d="M31 566h626v-189h-626v189z" />
    <glyph glyph-name="hyphen" unicode="&#xad;" horiz-adv-x="682" 
d="M31 566h626v-189h-626v189z" />
    <glyph glyph-name="period" unicode="." horiz-adv-x="569" 
d="M284 311q70 0 119.5 -50t49.5 -120q0 -71 -49.5 -121t-119.5 -50q-69 0 -118.5 50t-49.5 121q0 70 49.5 120t118.5 50z" />
    <glyph glyph-name="slash" unicode="/" horiz-adv-x="569" 
d="M606 1479l-453 -1479h-189l453 1479h189z" />
    <glyph glyph-name="zero" unicode="0" horiz-adv-x="1176" 
d="M592 1426q128 0 232 -76.5t174 -250t70 -403.5q0 -232 -69 -402t-177.5 -247t-238.5 -77q-195 0 -321 171q-158 212 -158 549q0 238 68.5 409t176 249t243.5 78zM764 659q0 438 -58 575q-42 100 -118 100q-91 0 -134.5 -143t-43.5 -552q0 -342 62 -484q39 -88 111 -88
q47 0 85.5 40t62.5 170q33 176 33 382z" />
    <glyph glyph-name="one" unicode="1" horiz-adv-x="1176" 
d="M197 1262q157 10 264 40t218 90h73v-1224q0 -36 20 -55.5t55 -19.5h186v-93h-776v93h146q56 0 79.5 24.5t23.5 80.5v908q0 32 -19.5 49t-58.5 17h-211v90z" />
    <glyph glyph-name="two" unicode="2" horiz-adv-x="1176" 
d="M336 259h461q65 0 100.5 43t60.5 186h99l-30 -481h-908v86q73 117 289 358q191 214 247 320q77 144 77 291q0 127 -56.5 193t-154.5 66q-99 0 -165 -53.5t-66 -110.5q0 -23 15 -36q15 -14 71 -28q121 -32 121 -134q0 -69 -46.5 -113.5t-116.5 -44.5q-73 0 -121 61.5
t-48 173.5q0 156 102 261q125 129 340 129q192 0 310 -107t118 -264q0 -84 -29 -154q-39 -95 -104 -169t-220 -187q-168 -121 -230.5 -174t-115.5 -112z" />
    <glyph glyph-name="three" unicode="3" horiz-adv-x="1176" 
d="M730 751q164 -44 247 -143t83 -236q0 -180 -129 -291t-361 -111q-206 0 -319 96.5t-113 246.5q0 91 46 142.5t118 51.5q65 0 106.5 -41t41.5 -102q0 -83 -85 -132q-36 -21 -43.5 -30.5t-7.5 -24.5q0 -36 47 -66q69 -44 156 -44q112 0 176.5 76t64.5 236q0 158 -59.5 234
t-151.5 76q-22 0 -58 -7q-35 -6 -53 -6q-28 0 -44 15.5t-16 43.5q0 31 17 46.5t52 15.5q14 0 40 -3q32 -4 52 -4q90 0 141 62q50 61 50 204t-56 207t-158 64q-70 0 -106.5 -23t-36.5 -49q0 -13 5 -20.5t29 -26.5q48 -38 63.5 -65.5t15.5 -64.5q0 -60 -40.5 -99.5
t-101.5 -39.5q-64 0 -107.5 48.5t-43.5 125.5q0 110 81 198q104 115 304 115q134 0 231.5 -46.5t148 -126t50.5 -174.5q0 -103 -63.5 -185t-212.5 -143z" />
    <glyph glyph-name="four" unicode="4" horiz-adv-x="1176" 
d="M779 1421h93v-966h200v-110h-200v-170q0 -41 23.5 -61.5t73.5 -20.5h53v-93h-623v93h102q60 0 81 23q28 29 28 89v140h-514v135zM610 1027l-414 -572h414v572z" />
    <glyph glyph-name="five" unicode="5" horiz-adv-x="1176" 
d="M264 1427q224 -45 402 -45q138 0 227 31q36 13 42 13q14 0 14 -20q0 -66 -51.5 -141t-134.5 -113t-210 -38q-96 0 -217 20l-22 -276q75 34 141.5 50.5t124.5 16.5q192 0 328.5 -126.5t136.5 -337.5q0 -217 -140.5 -354t-370.5 -137q-183 0 -293.5 96t-110.5 232
q0 89 48.5 142t122.5 53q65 0 107.5 -41.5t42.5 -101.5q0 -43 -22 -74.5t-85 -62.5q-46 -23 -46 -44q0 -34 44 -61q65 -39 153 -39q110 0 175 89.5t65 306.5q0 183 -62.5 267t-159.5 84q-45 0 -97 -17t-112 -51q-1 -78 -19.5 -107t-52.5 -29q-29 0 -46.5 16.5t-17.5 41.5
q0 39 53 116z" />
    <glyph glyph-name="six" unicode="6" horiz-adv-x="1176" 
d="M438 724q65 69 135 103t145 34q143 0 257 -101t114 -304q0 -219 -129 -352.5t-337 -133.5q-220 0 -349 159q-149 185 -149 508q0 366 180 590q160 199 396 199q151 0 242.5 -75t91.5 -175q0 -72 -44 -118t-110 -46q-58 0 -97 40t-39 100q0 45 26 88q15 25 15 41
q0 25 -21 40.5t-64 15.5q-125 0 -188 -140q-78 -172 -75 -473zM631 729q-75 0 -135 -82t-60 -235q0 -175 64 -276q45 -72 121 -72q77 0 128 78.5t51 265.5q0 181 -47 251t-122 70z" />
    <glyph glyph-name="seven" unicode="7" horiz-adv-x="1176" 
d="M225 1415h41q54 -20 129 -20h688v-86q-137 -275 -186.5 -406.5t-77 -266t-47.5 -378.5q-12 -143 -29.5 -189.5t-56 -72.5t-93.5 -26q-69 0 -106 40t-37 117q0 43 12 99q17 85 53 177q50 129 134 290l252 451h-491q-70 0 -97 -40t-63 -188h-92z" />
    <glyph glyph-name="eight" unicode="8" horiz-adv-x="1176" 
d="M783 825q178 -76 245.5 -167.5t67.5 -230.5q0 -203 -133 -330t-361 -127q-221 0 -345.5 102t-124.5 261q0 118 69.5 199t249.5 143q-151 73 -208 156t-57 199q0 163 122.5 279.5t308.5 116.5q184 0 297 -89t113 -207q0 -87 -53 -160t-191 -145zM706 853
q81 61 109.5 114.5t28.5 131.5q0 107 -65 172.5t-172 65.5q-100 0 -161.5 -58.5t-61.5 -147.5q0 -84 58.5 -143.5t263.5 -134.5zM537 637q-96 -41 -141 -109.5t-45 -179.5q0 -135 74 -210.5t198 -75.5q129 0 208.5 71.5t79.5 183.5q0 108 -78 172t-296 148z" />
    <glyph glyph-name="nine" unicode="9" horiz-adv-x="1176" 
d="M779 667l-16 -13q-130 -114 -270 -114q-133 0 -235 85q-133 110 -133 311q0 146 59.5 258.5t166 172t247.5 59.5q218 0 342 -154q149 -186 149 -500q0 -371 -181 -600q-161 -202 -394 -202q-148 0 -245 78t-97 174q0 74 45 121.5t111 47.5q59 0 98.5 -41t39.5 -102
q0 -33 -26 -85q-15 -30 -15 -48q0 -22 18 -35q26 -18 66 -18q66 0 129 55.5t101 187.5t40 362zM597 1335q-84 0 -135.5 -79t-51.5 -274q0 -169 46.5 -239.5t124.5 -70.5q85 0 144.5 85.5t59.5 259.5q0 176 -67 257q-50 61 -121 61z" />
    <glyph glyph-name="colon" unicode=":" horiz-adv-x="569" 
d="M295 968q71 0 120.5 -49.5t49.5 -120.5q0 -70 -49.5 -120t-120.5 -50t-120.5 49.5t-49.5 120.5t49.5 120.5t120.5 49.5zM295 314q71 0 120.5 -50t49.5 -122t-49.5 -122t-120.5 -50q-70 0 -120 50t-50 122t50 122t120 50z" />
    <glyph glyph-name="semicolon" unicode=";" horiz-adv-x="569" 
d="M294 972q71 0 121.5 -50.5t50.5 -121.5t-50.5 -121.5t-121.5 -50.5t-121.5 50.5t-50.5 121.5t50 121.5t122 50.5zM161 -355l-33 62q115 66 160 120q65 81 65 140q0 25 -23 25q-8 0 -29 -3q-21 -4 -34 -4q-69 0 -119.5 51.5t-50.5 123.5q0 69 52 119.5t125 50.5
q89 0 152 -71.5t63 -183.5q0 -77 -36.5 -156t-106.5 -148t-185 -126z" />
    <glyph glyph-name="semicolon" unicode="&#x37e;" horiz-adv-x="569" 
d="M294 972q71 0 121.5 -50.5t50.5 -121.5t-50.5 -121.5t-121.5 -50.5t-121.5 50.5t-50.5 121.5t50 121.5t122 50.5zM161 -355l-33 62q115 66 160 120q65 81 65 140q0 25 -23 25q-8 0 -29 -3q-21 -4 -34 -4q-69 0 -119.5 51.5t-50.5 123.5q0 69 52 119.5t125 50.5
q89 0 152 -71.5t63 -183.5q0 -77 -36.5 -156t-106.5 -148t-185 -126z" />
    <glyph glyph-name="less" unicode="&#x3c;" horiz-adv-x="1241" 
d="M1180 128l-1118 468v169l1118 469v-203l-864 -350l864 -349v-204z" />
    <glyph glyph-name="equal" unicode="=" horiz-adv-x="1241" 
d="M62 1017h1118v-187h-1118v187zM62 536h1118v-187h-1118v187z" />
    <glyph glyph-name="greater" unicode="&#x3e;" horiz-adv-x="1241" 
d="M62 1234l1118 -468v-170l-1118 -468v203l864 350l-864 349v204z" />
    <glyph glyph-name="question" unicode="?" horiz-adv-x="1024" 
d="M507 431h-73l-1 70q0 109 17.5 181.5t67.5 165.5q70 128 85 182q21 74 21 150q0 120 -50.5 183t-131.5 63q-63 0 -105.5 -32t-42.5 -64q0 -26 32 -47q56 -36 70 -54q24 -34 24 -80q0 -61 -44 -106t-104 -45q-66 0 -113.5 51.5t-47.5 135.5q0 136 109.5 234t286.5 98
q174 0 286 -106t112 -256q0 -61 -20 -121.5t-54 -105.5t-127 -123q-91 -76 -125.5 -123.5t-53 -107t-18.5 -143.5zM473 316q72 0 122 -50.5t50 -122.5t-50.5 -122.5t-121.5 -50.5t-121.5 50.5t-50.5 122.5t50.5 122.5t121.5 50.5z" />
    <glyph glyph-name="at" unicode="@" horiz-adv-x="1530" 
d="M959 1123l208 8l-157 -537q-25 -88 -25 -128q0 -33 19.5 -52.5t51.5 -19.5q65 0 157 70.5t151 195.5t59 264q0 237 -151.5 388.5t-397.5 151.5q-213 0 -383.5 -99t-272 -285t-101.5 -405q0 -297 188.5 -485.5t481.5 -188.5q240 0 431 129.5t271 342.5h53
q-103 -252 -300 -385.5t-457 -133.5q-330 0 -544 212t-214 538q0 349 234 581t594 232q191 0 328.5 -73t212.5 -206.5t75 -309.5q0 -273 -175 -449q-147 -147 -336 -147q-86 0 -131 42t-45 116q0 43 20 112q-102 -170 -166 -220t-130 -50q-62 0 -102.5 50t-40.5 145
q0 148 77 309.5t179.5 240t186.5 78.5q50 0 80.5 -33t41.5 -100zM831 1093q-32 0 -66 -35q-66 -69 -122.5 -220.5t-56.5 -263.5q0 -45 14.5 -65.5t35.5 -20.5q26 0 71 45q76 76 129.5 204t53.5 240q0 66 -16.5 91t-42.5 25z" />
    <glyph glyph-name="A" unicode="A" horiz-adv-x="1554" 
d="M833 1515l555 -1326q24 -56 52 -76t74 -20h54v-93h-694v93h65q77 0 106 17t29 45q0 22 -12 51l-115 274h-552l-54 -125q-33 -78 -33 -116q0 -65 48 -105.5t131 -40.5h47v-93h-561v93h32q54 0 95 34q58 48 90 123l531 1265h112zM672 1141l-236 -563h470z" />
    <glyph glyph-name="B" unicode="B" horiz-adv-x="1593" 
d="M86 1479h897q209 0 329 -99.5t120 -247.5q0 -130 -95.5 -220t-286.5 -140q253 -42 359.5 -139t106.5 -243q0 -129 -76 -222q-54 -66 -188.5 -117t-317.5 -51h-848v93h136q35 0 53 21q24 29 24 69v1145q0 26 -22.5 42t-75.5 16h-115v93zM616 809h167q172 0 246 72t74 238
q0 144 -71 205t-270 61q-95 0 -120.5 -17t-25.5 -62v-497zM616 717v-538q0 -42 18 -64t49 -22h192q141 0 221.5 77t80.5 226q0 156 -86 238.5t-250 82.5h-225z" />
    <glyph glyph-name="C" unicode="C" horiz-adv-x="1593" 
d="M1266 1368l69 147h74l25 -593h-92q-43 256 -162 380t-272 124q-168 0 -278 -160t-110 -505q0 -365 121 -542q97 -139 286 -139t318 139q93 101 130 298h90q-32 -253 -193 -400t-396 -147q-304 0 -509.5 214.5t-205.5 549.5q0 372 237 594q202 189 473 189
q107 0 198.5 -33.5t196.5 -115.5z" />
    <glyph glyph-name="D" unicode="D" horiz-adv-x="1706" 
d="M77 1479h796q217 0 381 -92t257 -262t93 -383q0 -221 -85 -384.5t-254 -260.5t-363 -97h-825v93h123q45 0 68 24.5t23 68.5v1114q0 45 -24 65.5t-81 20.5h-109v93zM804 93q137 0 243 69t153 188.5t47 370.5q0 264 -55.5 404.5t-150.5 200t-279 59.5q-101 0 -126.5 -17
t-25.5 -62v-1119q0 -50 20.5 -72t65.5 -22h108z" />
    <glyph glyph-name="E" unicode="E" horiz-adv-x="1554" 
d="M71 1479h1288l29 -517h-88q-31 183 -77.5 263.5t-122 120.5t-197.5 40h-202q-47 0 -68 -18.5t-21 -51.5v-513h69q119 0 184.5 68t77.5 219h90v-688h-90q-9 171 -75 241t-199 70h-57v-547q0 -36 21 -51q32 -22 92 -22h178q183 0 299 117t144 353h90l-22 -563h-1343v93h133
q45 0 68.5 23t23.5 62v1138q0 36 -23.5 53t-84.5 17h-117v93z" />
    <glyph glyph-name="F" unicode="F" horiz-adv-x="1479" 
d="M93 1479h1305l15 -510h-90q-24 236 -110.5 326.5t-266.5 90.5h-219q-48 0 -70 -20t-22 -57v-495h80q239 0 276 284h87v-683h-87q-4 110 -36 173.5t-88.5 99.5t-130.5 36h-101v-539q0 -43 23 -63q33 -29 78 -29h140v-93h-783v93h131q46 0 71 24.5t25 61.5v1130
q0 43 -24.5 60t-100.5 17h-102v93z" />
    <glyph glyph-name="G" unicode="G" horiz-adv-x="1706" 
d="M1311 1517h71l36 -591h-89q-71 265 -192.5 382.5t-270.5 117.5q-114 0 -207.5 -68t-146.5 -212.5t-53 -394.5q0 -281 44 -418t134 -203.5t207 -66.5q154 0 241 87t87 231v135q0 37 -19.5 55.5t-56.5 18.5h-155v91h716v-91h-90q-48 0 -69.5 -19.5t-21.5 -54.5v-545h-78
l-125 249q-84 -130 -195.5 -190t-262.5 -60q-201 0 -366 96t-255 263t-90 401q0 345 212 566t519 221q114 0 203 -33.5t189 -117.5z" />
    <glyph glyph-name="H" unicode="H" horiz-adv-x="1782" 
d="M111 1479h685v-93h-101q-43 0 -64 -19t-21 -51v-485h564v460q0 53 -22.5 74t-75.5 21h-86v93h686v-93h-92q-53 0 -75 -20t-22 -62v-1117q0 -49 22.5 -71.5t63.5 -22.5h103v-93h-686v93h104q43 0 61.5 19t18.5 64v532h-564v-532q0 -43 18 -63t49 -20h119v-93h-685v93h110
q38 0 55.5 19.5t17.5 63.5v1115q0 52 -23 73.5t-74 21.5h-86v93z" />
    <glyph glyph-name="I" unicode="I" horiz-adv-x="909" 
d="M75 1479h758v-93h-137q-44 0 -64 -17.5t-20 -51.5v-1145q0 -40 21 -57q27 -22 78 -22h122v-93h-758v93h116q60 0 84.5 20t24.5 59v1132q0 42 -22.5 62t-70.5 20h-132v93z" />
    <glyph glyph-name="J" unicode="J" horiz-adv-x="1327" 
d="M519 1479h727v-93h-87q-48 0 -70 -21.5t-22 -65.5v-900q0 -187 -135 -308q-136 -121 -367 -121q-213 0 -346.5 115.5t-133.5 266.5q0 117 67.5 190.5t164.5 73.5q83 0 140 -55.5t57 -135.5q0 -76 -41 -122t-99 -46q-13 0 -36 4q-31 7 -44 7q-27 0 -38 -10
q-11 -11 -11 -34q0 -58 59 -100q79 -55 189 -55q122 0 191 79.5t69 230.5v920q0 45 -21.5 66t-63.5 21h-149v93z" />
    <glyph glyph-name="K" unicode="K" horiz-adv-x="1669" 
d="M93 1479h733v-93h-120q-58 0 -79 -18t-21 -59v-653l488 562q42 49 42 90q0 35 -26 53q-36 25 -97 25h-41v93h609v-93h-38q-82 0 -152 -41q-103 -61 -206 -181l-188 -218l438 -756q28 -48 66 -69q50 -28 99 -28h58v-93h-726v93h74q60 0 86 16t26 37q0 12 -8 25l-316 543
l-188 -219v-324q0 -39 20.5 -58.5t56.5 -19.5h134v-93h-724v93h105q46 0 68.5 20t22.5 58v1145q0 35 -21.5 52.5t-69.5 17.5h-105v93z" />
    <glyph glyph-name="L" unicode="L" horiz-adv-x="1479" 
d="M85 1386v93h759v-93h-128q-55 0 -77 -21t-22 -68v-1100q0 -67 21 -85.5t99 -18.5h213q119 0 222 113t158 361h90l-34 -567h-1301v93h130q43 0 65 22t22 62v1131q0 41 -22.5 59.5t-77.5 18.5h-117z" />
    <glyph glyph-name="M" unicode="M" horiz-adv-x="2009" 
d="M64 1479h596l335 -1002l336 1002h609v-93h-132q-49 0 -67.5 -18t-18.5 -62v-1130q0 -43 20 -59q30 -24 81 -24h117v-93h-751v93h142q39 0 59.5 22t20.5 61v1210l-472 -1386h-88l-468 1398v-1081q0 -93 59 -152.5t171 -71.5v-93h-549v93q104 9 161.5 73t57.5 163v956
q0 61 -21 81t-81 20h-117v93z" />
    <glyph glyph-name="N" unicode="N" horiz-adv-x="1706" 
d="M75 1479h459l801 -1014v689q0 102 -58 163.5t-165 68.5v93h540v-93q-113 -12 -162 -67.5t-49 -164.5v-1154h-115l-912 1168v-809q0 -139 63.5 -202.5t157.5 -63.5h25v-93h-597v93h41q88 0 148 70t60 180v956q-67 87 -171 87h-66v93z" />
    <glyph glyph-name="O" unicode="O" horiz-adv-x="1706" 
d="M846 1517q209 0 385.5 -101t275 -275.5t98.5 -393.5q0 -333 -217.5 -555t-539.5 -222q-214 0 -383.5 101t-267.5 272.5t-98 398.5q0 337 215 556t532 219zM852 1421q-119 0 -206.5 -65.5t-139 -211.5t-51.5 -400q0 -267 47.5 -404.5t138.5 -203.5t212 -66
q179 0 286 153.5t107 533.5q0 266 -46 399.5t-137 199t-211 65.5z" />
    <glyph glyph-name="P" unicode="P" horiz-adv-x="1554" 
d="M127 1479h866q220 0 354 -118t134 -289q0 -130 -77.5 -227.5t-208 -141.5t-258.5 -44h-274v-482q0 -40 23 -62t59 -22h170v-93h-788v93h132q44 0 66.5 22t22.5 62v1127q0 38 -23 60t-56 22h-142v93zM663 750h183q96 0 170.5 41t106 99.5t31.5 189.5q0 180 -97 254
q-71 53 -242 53q-99 0 -125.5 -16.5t-26.5 -56.5v-564z" />
    <glyph glyph-name="Q" unicode="Q" horiz-adv-x="1706" 
d="M1291 109q63 -186 113 -252q33 -42 71 -42q35 0 53.5 26.5t23.5 113.5h90q-1 -164 -86.5 -259t-214.5 -95q-128 0 -205 86t-97 304q-46 -10 -94 -15.5t-99 -5.5q-314 0 -529.5 219.5t-215.5 554.5q0 336 214 554.5t532 218.5q320 0 538 -219.5t218 -543.5
q0 -199 -74 -354.5t-238 -290.5zM1196 350q50 181 50 420q0 242 -51 380t-141 203.5t-205 65.5t-206 -68.5t-131 -190.5q-55 -172 -55 -422q0 -301 82 -472q5 144 91 225t234 81q108 0 191 -55.5t141 -166.5zM1039 125l2 55q0 147 -58 221.5t-150 74.5q-79 0 -136 -60.5
t-57 -149.5q0 -83 53 -158q78 -39 156 -39q58 0 105.5 14t84.5 42z" />
    <glyph glyph-name="R" unicode="R" horiz-adv-x="1669" 
d="M121 1479h772q188 0 306.5 -48.5t176.5 -132t58 -185.5q0 -163 -146 -264q-111 -77 -342 -100q116 -19 178.5 -60.5t110.5 -123.5q63 -108 103 -259q25 -97 44 -122t43 -25q66 0 79 175h88q-10 -186 -83 -266.5t-206 -80.5q-95 0 -152.5 39t-87.5 114q-18 43 -50 202
q-37 186 -66.5 250t-76.5 95t-116 31h-109v-545q0 -36 21 -55q30 -25 70 -25h134v-93h-749v93h116q45 0 68 23.5t23 65.5v1115q0 46 -21 67.5t-60 21.5h-126v93zM645 808h125q166 0 262 85q72 65 72 219q0 142 -71 207.5t-246 65.5q-94 0 -118 -20.5t-24 -91.5v-465z" />
    <glyph glyph-name="S" unicode="S" horiz-adv-x="1366" 
d="M1013 1366l93 132h71l9 -511h-90q-70 220 -199 329.5t-285 109.5q-133 0 -216.5 -72.5t-83.5 -173.5q0 -60 33 -110t106.5 -85.5t257.5 -73.5q215 -45 297 -81q130 -58 195 -153.5t65 -232.5q0 -205 -141 -327q-170 -147 -421 -147q-231 0 -422 161l-117 -146h-73v548h87
q131 -469 532 -469q164 0 255 75.5t91 188.5q0 79 -40 132.5t-124 86.5q-46 18 -228 57q-245 54 -349.5 111.5t-153.5 141t-49 203.5q0 202 135.5 329.5t363.5 127.5q219 0 401 -151z" />
    <glyph glyph-name="T" unicode="T" horiz-adv-x="1479" 
d="M101 1479h1293l33 -562h-91q-32 180 -83 281t-116.5 143.5t-143.5 42.5q-45 0 -66 -18.5t-21 -53.5v-1144q0 -33 20.5 -54t49.5 -21h168v-93h-791v93h160q36 0 57 20.5t21 54.5v1138q0 40 -21.5 59t-67.5 19q-255 0 -345 -467h-88z" />
    <glyph glyph-name="U" unicode="U" horiz-adv-x="1706" 
d="M63 1479h744v-93h-151q-32 0 -50 -21.5t-18 -65.5v-818q0 -173 92 -265.5t254 -92.5q119 0 216 51q71 38 116.5 125t45.5 219v628q0 120 -53.5 180t-143.5 60h-22v93h564v-93h-39q-88 0 -134 -66.5t-46 -164.5v-681q0 -227 -152 -365q-153 -139 -420 -139
q-191 0 -332.5 62.5t-201 161t-59.5 260.5v831q0 58 -22 79.5t-79 21.5h-109v93z" />
    <glyph glyph-name="V" unicode="V" horiz-adv-x="1554" 
d="M-24 1479h724v-93h-79q-81 0 -107.5 -16t-26.5 -42q0 -24 23 -80l370 -896l304 765q31 77 31 143q0 62 -37 94t-112 32h-67v93h572v-93h-43q-55 0 -98.5 -38t-83.5 -136l-504 -1244h-120l-540 1307q-27 67 -62 89t-113 22h-31v93z" />
    <glyph glyph-name="W" unicode="W" horiz-adv-x="2009" 
d="M-73 1479h595v-93h-56q-53 0 -71.5 -12.5t-18.5 -37.5q0 -18 7 -41l294 -873l256 762l-44 127q-14 40 -39 55q-33 20 -87 20h-72v93h685v-93h-63q-69 0 -93.5 -16t-24.5 -47q0 -13 5 -28l292 -873l245 769q12 35 12 68q0 61 -32.5 94t-85.5 33h-42v93h482v-93
q-80 -2 -127.5 -37.5t-69.5 -105.5l-410 -1270h-123l-348 1038l-349 -1038h-122l-452 1338q-14 42 -37 58.5t-59 16.5h-47v93z" />
    <glyph glyph-name="X" unicode="X" horiz-adv-x="1479" 
d="M-76 1479h732v-93h-55q-75 0 -99 -13t-24 -35q0 -26 41 -83l247 -339l195 237q64 77 64 146q0 42 -26.5 64.5t-77.5 22.5h-46v93h582v-93h-44q-55 0 -97.5 -23t-96.5 -86l-383 -453l490 -653q35 -47 64 -62.5t67 -15.5h49v-93h-721v93h76q54 0 78 17.5t24 44.5
q0 23 -32 59l-10 14l-275 374l-230 -282q-47 -58 -47 -123q0 -49 26 -73q34 -31 82 -31h56v-93h-609v93h38q46 0 97 29q84 50 130 106l388 463l-466 618q-37 48 -63 62.5t-68 14.5h-56v93z" />
    <glyph glyph-name="Y" unicode="Y" horiz-adv-x="1479" 
d="M-10 1479h736v-93h-102q-54 0 -75 -13.5t-21 -35.5q0 -25 18 -57l308 -530l216 430q27 53 27 98q0 50 -35 79t-106 29h-45v93h572v-93q-99 -2 -159 -39.5t-102 -120.5l-297 -587v-465q0 -41 22.5 -61t70.5 -20h153v-93h-810v93h152q52 0 73 19.5t21 61.5v413l-398 685
q-38 66 -80.5 90t-106.5 24h-32v93z" />
    <glyph glyph-name="Z" unicode="Z" horiz-adv-x="1366" 
d="M174 1479h1088v-93l-829 -1293h377q98 0 169.5 43.5t125.5 140.5t87 279h91l-28 -556h-1171v93l825 1293h-283q-171 0 -268.5 -95.5t-130.5 -325.5h-87z" />
    <glyph glyph-name="bracketleft" unicode="[" horiz-adv-x="797" 
d="M261 1479h501v-93h-147q-43 0 -61 -21q-23 -27 -23 -80v-1471q0 -44 23 -64q30 -27 80 -27h128v-93h-501v1849z" />
    <glyph glyph-name="backslash" unicode="\" horiz-adv-x="1241" 
d="M34 1479h189l984 -1479h-189z" />
    <glyph glyph-name="bracketright" unicode="]" horiz-adv-x="797" 
d="M43 1479h494v-1844h-503v95h149q40 0 63.5 26t23.5 71v1484q0 37 -20 53q-27 22 -73 22h-134v93z" />
    <glyph glyph-name="asciicircum" unicode="^" horiz-adv-x="1241" 
d="M379 761h-202l411 718h66l411 -718h-210l-239 418z" />
    <glyph glyph-name="underscore" unicode="_" horiz-adv-x="1024" 
d="M-12 -154h1048v-102h-1048v102z" />
    <glyph glyph-name="grave" unicode="`" horiz-adv-x="682" 
d="M559 1141l-26 -25l-287 129q-75 34 -99 61.5t-24 64.5q0 42 35 76t82 34q43 0 79 -23.5t89 -98.5z" />
    <glyph glyph-name="a" unicode="a" horiz-adv-x="1251" 
d="M1176 116l42 -72q-61 -42 -109.5 -58t-106.5 -16q-86 0 -139 36.5t-97 137.5q-102 -101 -183 -137.5t-183 -36.5q-141 0 -220 65t-79 165q0 151 146 242q117 72 513 144v135q0 80 -53 130.5t-142 50.5q-68 0 -120 -29q-35 -19 -35 -38q0 -10 13 -30q28 -45 28 -89
q0 -56 -37 -90.5t-99 -34.5q-66 0 -106 37.5t-40 96.5q0 97 105 171q131 92 326 92q147 0 261 -46q73 -29 118.5 -101.5t45.5 -178.5v-475q0 -54 20 -78t55 -24q29 0 76 31zM760 499q-214 -29 -289.5 -89.5t-75.5 -159.5q0 -70 35.5 -107.5t99.5 -37.5q99 0 164.5 71
t65.5 194v129z" />
    <glyph glyph-name="b" unicode="b" horiz-adv-x="1327" 
d="M55 1480l430 21v-693q75 97 155.5 138.5t176.5 41.5q176 0 292.5 -134t116.5 -362q0 -241 -134.5 -386.5t-341.5 -145.5q-109 0 -196.5 43t-154.5 128q-47 -70 -161 -171l-57 31q38 184 38 373v864q0 76 -15.5 108t-41.5 44q-19 9 -107 9v91zM696 845q-58 0 -108.5 -40
t-76.5 -116t-26 -237q0 -219 57 -307.5t147 -88.5q93 0 160 98t67 301t-63.5 296.5t-156.5 93.5z" />
    <glyph glyph-name="c" unicode="c" horiz-adv-x="1139" 
d="M1009 338l78 -37q-61 -158 -188 -244.5t-302 -86.5q-237 0 -370 129.5t-133 348.5q0 236 157.5 388t417.5 152q187 0 286 -75.5t99 -182.5q0 -78 -43.5 -123.5t-114.5 -45.5q-62 0 -98.5 35.5t-36.5 92.5q0 49 40 114q17 27 17 38q0 20 -31 36q-44 25 -115 25
q-132 0 -191 -84q-79 -111 -79 -336t78.5 -316.5t202.5 -91.5q98 0 184.5 65.5t141.5 198.5z" />
    <glyph glyph-name="d" unicode="d" horiz-adv-x="1366" 
d="M667 1483l465 18v-1224q0 -94 12.5 -126.5t38.5 -47t100 -14.5v-89l-385 -12l-28 182q-88 -115 -159.5 -153t-178.5 -38q-192 0 -313 129t-121 350q0 244 128 387t318 143q102 0 181.5 -44.5t144.5 -144.5v426q0 76 -14 109t-37.5 45.5t-96.5 12.5h-55v91zM635 859
q-116 0 -173 -102q-47 -83 -47 -264q0 -151 26 -225.5t74.5 -111t110.5 -36.5q102 0 164 87q83 114 83 292q0 165 -72 262.5t-166 97.5z" />
    <glyph glyph-name="e" unicode="e" horiz-adv-x="1176" 
d="M1067 462h-657q3 -197 79.5 -290.5t196.5 -93.5q86 0 163 48t158 174l73 -45q-85 -150 -194.5 -214.5t-267.5 -64.5q-230 0 -372 140t-142 359t143 366t351 147q144 0 247.5 -59t161 -172.5t60.5 -294.5zM410 552h313q44 0 63 22t19 80q0 116 -53 179.5t-135 63.5
q-97 0 -148.5 -86t-58.5 -259z" />
    <glyph glyph-name="f" unicode="f" horiz-adv-x="797" 
d="M518 936h240v-108h-240v-666q0 -39 15 -54t54 -15h165v-93h-676v93h97q44 0 61 16t17 53v666h-161v108h161v38q0 188 54.5 307.5t153 177.5t242.5 58q134 0 207.5 -65t73.5 -162q0 -77 -45.5 -126.5t-108.5 -49.5q-59 0 -99 38.5t-40 95.5q0 59 60 103q29 22 29 38
q0 14 -15 23q-23 14 -61 14q-50 0 -92.5 -31t-62.5 -87q-29 -83 -29 -176v-196z" />
    <glyph glyph-name="g" unicode="g" horiz-adv-x="1251" 
d="M870 936q120 143 238 143q60 0 96 -35t36 -90q0 -49 -27.5 -78.5t-69.5 -29.5q-59 0 -85 63q-16 38 -38 38q-28 0 -76 -59q108 -109 108 -230q0 -94 -51 -170t-154.5 -121t-258.5 -45l-107 2q-119 0 -161 -24q-43 -24 -43 -62q0 -33 27 -49q35 -22 112 -22l92 3
q149 8 219 8q233 0 324 -66t91 -183q0 -140 -105 -225q-128 -104 -447 -104q-272 0 -382 63t-110 148q0 53 47 93t199 75q-99 20 -149 68t-50 124q0 69 37.5 117t134.5 85q-92 50 -138.5 119t-46.5 157q0 95 51 171.5t157 122t258 45.5q72 0 140 -13t132 -39zM592 900
q-69 0 -118.5 -64.5t-49.5 -185.5q0 -117 49 -179t120 -62q70 0 120 64t50 180q0 117 -50 182t-121 65zM984 -163q0 59 -66 86q-45 19 -200 19q-280 0 -361 -38t-81 -95q0 -54 63 -90.5t239 -36.5q229 0 330 53q76 41 76 102z" />
    <glyph glyph-name="h" unicode="h" horiz-adv-x="1403" 
d="M74 1479l442 22v-728q101 124 186 169.5t186 45.5q140 0 214 -85q84 -98 84 -277v-444q0 -46 21 -67.5t61 -21.5h65v-93h-565v93h61q51 0 69 19q25 25 25 70v436q0 94 -50.5 149.5t-126.5 55.5q-94 0 -162 -79t-68 -215v-347q0 -45 21.5 -67t61.5 -22h68v-93h-582v93h81
q43 0 65 23t22 66v1101q0 48 -30.5 75.5t-81.5 27.5h-67v93z" />
    <glyph glyph-name="i" unicode="i" horiz-adv-x="758" 
d="M371 1476q67 0 115 -47.5t48 -115.5t-48 -115.5t-115 -47.5q-68 0 -116 48t-48 115q0 68 48 115.5t116 47.5zM114 936l416 19v-795q0 -32 20.5 -49.5t62.5 -17.5h63v-93h-562v93h62q50 0 70.5 23t20.5 80v542q0 51 -29.5 79t-81.5 28h-42v91z" />
    <glyph glyph-name="j" unicode="j" horiz-adv-x="721" 
d="M361 1481q67 0 115 -47.5t48 -115.5t-48 -115.5t-115 -47.5q-68 0 -116 47.5t-48 115.5t48 115.5t116 47.5zM99 936l421 27v-856q0 -127 -63.5 -248.5t-160.5 -187t-198 -65.5q-80 0 -125.5 40.5t-45.5 102.5q0 58 34 92.5t89 34.5q38 0 60.5 -19.5t36.5 -74.5
q16 -61 48 -61q26 0 45 30t19 97v896q0 51 -28 78.5t-73 27.5h-59v86z" />
    <glyph glyph-name="k" unicode="k" horiz-adv-x="1366" 
d="M58 1488l442 13v-1027l277 223q66 54 66 91q0 23 -27 40.5t-87 17.5h-33v90h545v-90q-87 -3 -136 -22q-67 -26 -127 -76l-158 -131l346 -469q42 -55 101 -55h50v-93h-588v93h58q42 0 59 9.5t17 21.5q0 11 -10 24l-225 313l-128 -101v-186q0 -44 18 -62.5t59 -18.5h65v-93
h-574v93h71q51 0 74.5 24.5t23.5 74.5v1128q0 38 -23.5 58t-66.5 20h-89v90z" />
    <glyph glyph-name="l" unicode="l" horiz-adv-x="721" 
d="M73 1479l438 22v-1331q0 -36 23 -56.5t66 -20.5h59v-93h-563v93h64q44 0 65.5 23.5t21.5 71.5v1093q0 51 -28 78.5t-76 27.5h-70v92z" />
    <glyph glyph-name="m" unicode="m" horiz-adv-x="1972" 
d="M1967 93v-93h-563v93h58q53 0 74.5 21t21.5 65v407q0 113 -46.5 167t-129.5 54q-68 0 -116.5 -30.5t-83.5 -102t-35 -140.5v-367q0 -36 20 -55t54 -19h77v-93h-575v93h64q52 0 70 17q23 22 23 63v422q0 101 -50 157t-127 56q-60 0 -111.5 -31t-88 -96t-36.5 -119v-367
q0 -56 20 -76q27 -26 76 -26h55v-93h-578v93h66q53 0 73.5 19.5t20.5 66.5v563q0 38 -14.5 60.5t-45.5 34.5q-23 9 -94 9v90l386 21q22 -96 29 -207q96 122 184.5 170.5t192.5 48.5q112 0 185.5 -56.5t108.5 -170.5q95 125 188.5 177t195.5 52q142 0 224 -89q82 -90 82 -255
v-448q0 -46 20.5 -66t63.5 -20h61z" />
    <glyph glyph-name="n" unicode="n" horiz-adv-x="1403" 
d="M1347 93v-93h-563v93h59q47 0 70 24t23 70v406q0 104 -47.5 159.5t-124.5 55.5q-105 0 -171 -78.5t-66 -229.5v-313q0 -46 23.5 -70t60.5 -24h71v-93h-584v93h76q44 0 66.5 24t22.5 70v557q0 48 -32.5 76.5t-85.5 28.5h-40v87l390 21q21 -86 32 -205q82 111 175 166
t196 55q140 0 221 -93q80 -93 80 -259v-434q0 -50 23 -72t73 -22h52z" />
    <glyph glyph-name="o" unicode="o" horiz-adv-x="1251" 
d="M617 988q157 0 288.5 -68t195.5 -177.5t64 -263.5q0 -246 -167.5 -377.5t-379.5 -131.5q-150 0 -274.5 67.5t-191.5 182t-67 258.5q0 217 151.5 363.5t380.5 146.5zM623 893q-104 0 -165.5 -91.5t-61.5 -321.5q0 -239 61 -329.5t165 -90.5q106 0 171 93t65 321
q0 234 -64 326.5t-171 92.5z" />
    <glyph glyph-name="p" unicode="p" horiz-adv-x="1366" 
d="M98 931l381 24q23 -92 27 -183q59 95 151.5 147.5t205.5 52.5q181 0 293 -129t112 -365q0 -164 -54 -278t-150.5 -172t-225.5 -58q-103 0 -183 46.5t-149 149.5v-335q0 -66 10 -84.5t37.5 -28t109.5 -10.5v-96h-565v96h30q53 0 71 9.5t28 32.5q7 16 7 81v886
q0 65 -10 86.5t-30.5 31t-95.5 12.5v84zM738 832q-97 0 -165 -93t-68 -272q0 -177 71.5 -271t163.5 -94q90 0 145 81q72 107 72 288q0 166 -58 263.5t-161 97.5z" />
    <glyph glyph-name="q" unicode="q" horiz-adv-x="1327" 
d="M1096 992l61 -30l-11 -54q-24 -124 -24 -226v-835q0 -73 10.5 -94t35 -32t108.5 -13v-96h-582v96h31q68 0 92.5 10.5t34.5 30t10 83.5v336q-68 -99 -152.5 -148.5t-185.5 -49.5q-116 0 -213.5 59t-154.5 172t-57 251q0 150 66 277t175.5 193t247.5 66q97 0 182.5 -38
t176.5 -126q54 80 149 168zM651 895q-103 0 -173 -98t-70 -301q0 -182 68 -279t160 -97q59 0 111.5 40.5t83 129t30.5 229.5q0 191 -63 283.5t-147 92.5z" />
    <glyph glyph-name="r" unicode="r" horiz-adv-x="1063" 
d="M741 93v-93h-654v93h81q50 0 73 19.5t23 52.5v554q0 67 -30.5 98t-85.5 31h-53v88l400 21v-305q35 153 122 235t196 82q93 0 147 -49.5t54 -127.5q0 -67 -37.5 -108.5t-91.5 -41.5q-48 0 -82.5 36t-34.5 92q0 31 17 65q9 19 9 27q0 14 -6.5 20.5t-20.5 6.5q-36 0 -79 -42
q-66 -65 -111 -202.5t-45 -277.5v-202q0 -35 19 -53.5t53 -18.5h137z" />
    <glyph glyph-name="s" unicode="s" horiz-adv-x="1024" 
d="M742 908l66 79h61l20 -320h-81q-64 127 -140.5 178.5t-185.5 51.5q-94 0 -143 -36t-49 -91q0 -54 38 -82q38 -29 208 -63q154 -31 205 -52q97 -39 151.5 -116t54.5 -180q0 -130 -104.5 -218.5t-274.5 -88.5q-82 0 -148.5 19.5t-138.5 68.5l-71 -84h-76l-18 354h83
q106 -268 364 -268q106 0 162 41t56 98q0 52 -35 79t-186 58q-163 33 -222 57q-101 39 -152 108.5t-51 167.5q0 140 93 229.5t249 89.5q76 0 136.5 -18t128.5 -62z" />
    <glyph glyph-name="t" unicode="t" horiz-adv-x="872" 
d="M387 1321h90v-385h309v-108h-309v-595q0 -59 30 -91.5t79 -32.5q140 0 148 261h90q-3 -139 -44 -223.5t-117.5 -130.5t-172.5 -46q-84 0 -145.5 34t-98 101.5t-36.5 146.5v576h-166v92q152 20 237 117t106 284z" />
    <glyph glyph-name="u" unicode="u" horiz-adv-x="1403" 
d="M82 936l418 24v-624q0 -87 47 -137.5t122 -50.5q106 0 169.5 84t63.5 197v306q0 54 -30 82t-82 28h-46v91l422 24v-758q0 -51 31.5 -80t83.5 -29h43v-93l-387 -12q-24 100 -28 214q-97 -123 -187 -173t-187 -50q-96 0 -161.5 40t-104.5 127t-39 211v372q0 61 -31 87.5
t-117 28.5v91z" />
    <glyph glyph-name="v" unicode="v" horiz-adv-x="1251" 
d="M43 936h559v-89h-46q-55 0 -75 -14t-20 -40q0 -28 22 -68l240 -445l209 416q16 31 16 62q0 85 -142 89v89h409v-89q-56 -6 -86 -26.5t-54 -67.5l-392 -786h-72l-432 795q-29 53 -51.5 69t-59.5 16h-25v89z" />
    <glyph glyph-name="w" unicode="w" horiz-adv-x="1821" 
d="M103 936h483v-88h-28q-46 0 -63.5 -12.5t-17.5 -32.5q0 -14 7 -29l196 -433l169 403q-41 77 -63 89q-25 15 -84 15v88h524v-88h-31q-48 0 -66 -13.5t-18 -35.5q0 -26 14 -55l185 -403l160 391q6 17 6 36q0 37 -20.5 58.5t-53.5 21.5h-38v88h373v-88q-116 -8 -165 -128
l-302 -752h-75l-289 646l-263 -646h-76l-357 806q-20 43 -40.5 57.5t-66.5 16.5v88z" />
    <glyph glyph-name="x" unicode="x" horiz-adv-x="1251" 
d="M79 936h554v-87h-40q-37 0 -50.5 -9t-13.5 -25q0 -15 10 -27l146 -186l122 130q34 35 34 62q0 25 -20 38q-26 17 -78 17h-21v87h430v-87q-64 -5 -103.5 -24t-91.5 -73l-214 -221l285 -361q38 -48 81 -66q28 -11 91 -11v-93h-592v93h55q35 0 50 9.5t15 21.5q0 15 -15 35
l-151 194l-142 -147q-21 -22 -21 -47q0 -29 21.5 -47.5t55.5 -18.5h45v-93h-452v93h36q79 0 162 85l239 245l-275 344q-44 55 -68 67.5t-84 14.5v87z" />
    <glyph glyph-name="y" unicode="y" horiz-adv-x="1251" 
d="M68 936h553v-86h-53q-48 0 -68 -14t-20 -36q0 -25 17 -57l233 -454l196 411q16 34 16 62q0 40 -30 64t-88 24h-29v86h407v-86q-60 -2 -95 -26.5t-62 -80.5l-373 -781q-95 -200 -201 -291q-81 -68 -182 -68q-105 0 -166 51t-61 126q0 56 35.5 91.5t89.5 35.5
q55 0 90 -34.5t35 -86.5q0 -17 -7 -43q-4 -15 -4 -23q0 -24 26 -24q46 0 115 74.5t151 237.5l-399 768q-22 43 -45 58.5t-55 15.5h-26v86z" />
    <glyph glyph-name="z" unicode="z" horiz-adv-x="1100" 
d="M177 936h809v-90l-559 -753h264q86 0 142.5 62t83.5 219h88l-19 -374h-874v93l558 753h-221q-77 0 -128 -57t-74 -197h-89z" />
    <glyph glyph-name="braceleft" unicode="{" horiz-adv-x="797" 
d="M121 538v62q93 17 143.5 73t50.5 127q0 45 -25 157q-31 144 -31 196q0 89 55.5 176.5t151.5 139.5q76 40 240 49v-50q-101 -19 -144.5 -66.5t-43.5 -126.5q0 -47 24 -150q31 -132 31 -195q0 -119 -92 -219t-272 -145q363 -88 363 -382q0 -34 -4 -61q-2 -16 -23 -102
q-27 -116 -27 -162q0 -85 39 -126q52 -53 149 -69v-49q-176 0 -312.5 97.5t-136.5 258.5q0 55 33 207q24 116 24 159q0 70 -51 125.5t-142 75.5z" />
    <glyph glyph-name="bar" unicode="|" horiz-adv-x="1241" 
d="M526 1479h189v-1867h-189v1867z" />
    <glyph glyph-name="braceright" unicode="}" horiz-adv-x="797" 
d="M676 597v-62q-92 -18 -143 -74t-51 -127q0 -46 25 -157q31 -143 31 -196q0 -103 -68.5 -197t-172.5 -135q-63 -25 -206 -34v51q102 19 145 66.5t43 126.5q0 47 -24 150q-31 132 -31 196q0 119 92 218.5t272 144.5q-130 33 -210.5 89.5t-116 125.5t-35.5 167q0 34 3 61
q3 15 23 101q27 117 27 163q0 85 -39 125q-52 53 -149 69v49q123 0 234 -52.5t163 -130.5t52 -172q0 -54 -32 -207q-25 -116 -25 -159q0 -70 51 -125.5t142 -74.5z" />
    <glyph glyph-name="asciitilde" unicode="~" horiz-adv-x="1241" 
d="M1113 855h65q-7 -169 -86 -258t-195 -89q-56 0 -120 18t-265 102q-144 61 -213 61q-143 0 -172 -180h-64q8 175 84.5 261t193.5 86q58 0 123 -18q99 -28 263 -101q93 -40 143 -55q31 -8 68 -8q71 0 118.5 46.5t56.5 134.5z" />
    <glyph glyph-name="Adieresis" unicode="&#xc4;" horiz-adv-x="1554" 
d="M833 1515l555 -1326q24 -56 52 -76t74 -20h54v-93h-694v93h65q77 0 106 17t29 45q0 22 -12 51l-115 274h-552l-54 -125q-33 -78 -33 -116q0 -65 48 -105.5t131 -40.5h47v-93h-561v93h32q54 0 95 34q58 48 90 123l531 1265h112zM672 1141l-236 -563h470zM1005 1910
q56 0 95 -39t39 -94q0 -56 -39.5 -95t-94.5 -39t-94.5 39t-39.5 95q0 55 39 94t95 39zM566 1909q55 0 94 -39t39 -94t-39 -94t-94 -39t-94 39t-39 94q0 56 39 94.5t94 38.5z" />
    <glyph glyph-name="Aring" unicode="&#xc5;" horiz-adv-x="1554" 
d="M833 1515l555 -1326q24 -56 52 -76t74 -20h54v-93h-694v93h65q77 0 106 17t29 45q0 22 -12 51l-115 274h-552l-54 -125q-33 -78 -33 -116q0 -65 48 -105.5t131 -40.5h47v-93h-561v93h32q54 0 95 34q58 48 90 123l531 1265h112zM672 1141l-236 -563h470zM770 1978
q88 0 150 -62t62 -150q0 -87 -62 -149t-150 -62q-87 0 -149 62t-62 150q0 87 62 149t149 62zM771 1885q-49 0 -84 -35t-35 -84t35 -84t84 -35t84 35t35 84t-35 84t-84 35z" />
    <glyph glyph-name="Ccedilla" unicode="&#xc7;" horiz-adv-x="1593" 
d="M1266 1368l69 147h74l25 -593h-92q-43 256 -162 380t-272 124q-168 0 -278 -160t-110 -505q0 -365 121 -542q97 -139 286 -139t318 139q93 101 130 298h90q-32 -253 -193 -400t-396 -147q-304 0 -509.5 214.5t-205.5 549.5q0 372 237 594q202 189 473 189
q107 0 198.5 -33.5t196.5 -115.5zM737 24h176l-31 -46q88 -11 133 -57t45 -112q0 -83 -85 -143t-262 -60q-72 0 -162 13v89l41 -1l71 -1q116 0 169 27q36 19 36 53q0 31 -40 49q-59 26 -213 27z" />
    <glyph glyph-name="Eacute" unicode="&#xc9;" horiz-adv-x="1554" 
d="M71 1479h1288l29 -517h-88q-31 183 -77.5 263.5t-122 120.5t-197.5 40h-202q-47 0 -68 -18.5t-21 -51.5v-513h69q119 0 184.5 68t77.5 219h90v-688h-90q-9 171 -75 241t-199 70h-57v-547q0 -36 21 -51q32 -22 92 -22h178q183 0 299 117t144 353h90l-22 -563h-1343v93h133
q45 0 68.5 23t23.5 62v1138q0 36 -23.5 53t-84.5 17h-117v93zM603 1591l-28 23l162 231q77 110 158 110q45 0 81.5 -33.5t36.5 -70.5q0 -40 -26.5 -70.5t-119.5 -71.5z" />
    <glyph glyph-name="Ntilde" unicode="&#xd1;" horiz-adv-x="1706" 
d="M75 1479h459l801 -1014v689q0 102 -58 163.5t-165 68.5v93h540v-93q-113 -12 -162 -67.5t-49 -164.5v-1154h-115l-912 1168v-809q0 -139 63.5 -202.5t157.5 -63.5h25v-93h-597v93h41q88 0 148 70t60 180v956q-67 87 -171 87h-66v93zM1177 1907h27q-5 -118 -71.5 -190
t-151.5 -72q-35 0 -73 9t-165 56q-63 23 -96 23q-82 0 -116 -89h-23q14 127 76.5 192.5t149.5 65.5q53 0 178 -44q113 -41 146 -41q98 0 119 90z" />
    <glyph glyph-name="Odieresis" unicode="&#xd6;" horiz-adv-x="1706" 
d="M846 1517q209 0 385.5 -101t275 -275.5t98.5 -393.5q0 -333 -217.5 -555t-539.5 -222q-214 0 -383.5 101t-267.5 272.5t-98 398.5q0 337 215 556t532 219zM852 1421q-119 0 -206.5 -65.5t-139 -211.5t-51.5 -400q0 -267 47.5 -404.5t138.5 -203.5t212 -66
q179 0 286 153.5t107 533.5q0 266 -46 399.5t-137 199t-211 65.5zM1082 1910q56 0 95 -39t39 -94q0 -56 -39.5 -95t-94.5 -39t-94.5 39t-39.5 95q0 55 39 94t95 39zM643 1909q55 0 94 -39t39 -94t-39 -94t-94 -39t-94 39t-39 94q0 56 39 94.5t94 38.5z" />
    <glyph glyph-name="Udieresis" unicode="&#xdc;" horiz-adv-x="1706" 
d="M63 1479h744v-93h-151q-32 0 -50 -21.5t-18 -65.5v-818q0 -173 92 -265.5t254 -92.5q119 0 216 51q71 38 116.5 125t45.5 219v628q0 120 -53.5 180t-143.5 60h-22v93h564v-93h-39q-88 0 -134 -66.5t-46 -164.5v-681q0 -227 -152 -365q-153 -139 -420 -139
q-191 0 -332.5 62.5t-201 161t-59.5 260.5v831q0 58 -22 79.5t-79 21.5h-109v93zM1081 1910q56 0 95 -39t39 -94q0 -56 -39.5 -95t-94.5 -39t-94.5 39t-39.5 95q0 55 39 94t95 39zM642 1909q55 0 94 -39t39 -94t-39 -94t-94 -39t-94 39t-39 94q0 56 39 94.5t94 38.5z" />
    <glyph glyph-name="aacute" unicode="&#xe1;" horiz-adv-x="1251" 
d="M1176 116l42 -72q-61 -42 -109.5 -58t-106.5 -16q-86 0 -139 36.5t-97 137.5q-102 -101 -183 -137.5t-183 -36.5q-141 0 -220 65t-79 165q0 151 146 242q117 72 513 144v135q0 80 -53 130.5t-142 50.5q-68 0 -120 -29q-35 -19 -35 -38q0 -10 13 -30q28 -45 28 -89
q0 -56 -37 -90.5t-99 -34.5q-66 0 -106 37.5t-40 96.5q0 97 105 171q131 92 326 92q147 0 261 -46q73 -29 118.5 -101.5t45.5 -178.5v-475q0 -54 20 -78t55 -24q29 0 76 31zM760 499q-214 -29 -289.5 -89.5t-75.5 -159.5q0 -70 35.5 -107.5t99.5 -37.5q99 0 164.5 71
t65.5 194v129zM485 1116l-28 23l162 231q77 110 158 110q45 0 81.5 -33.5t36.5 -70.5q0 -40 -26.5 -70.5t-119.5 -71.5z" />
    <glyph glyph-name="agrave" unicode="&#xe0;" horiz-adv-x="1251" 
d="M1176 116l42 -72q-61 -42 -109.5 -58t-106.5 -16q-86 0 -139 36.5t-97 137.5q-102 -101 -183 -137.5t-183 -36.5q-141 0 -220 65t-79 165q0 151 146 242q117 72 513 144v135q0 80 -53 130.5t-142 50.5q-68 0 -120 -29q-35 -19 -35 -38q0 -10 13 -30q28 -45 28 -89
q0 -56 -37 -90.5t-99 -34.5q-66 0 -106 37.5t-40 96.5q0 97 105 171q131 92 326 92q147 0 261 -46q73 -29 118.5 -101.5t45.5 -178.5v-475q0 -54 20 -78t55 -24q29 0 76 31zM760 499q-214 -29 -289.5 -89.5t-75.5 -159.5q0 -70 35.5 -107.5t99.5 -37.5q99 0 164.5 71
t65.5 194v129zM781 1141l-26 -25l-287 129q-75 34 -99 61.5t-24 64.5q0 42 35 76t82 34q43 0 79 -23.5t89 -98.5z" />
    <glyph glyph-name="acircumflex" unicode="&#xe2;" horiz-adv-x="1251" 
d="M1176 116l42 -72q-61 -42 -109.5 -58t-106.5 -16q-86 0 -139 36.5t-97 137.5q-102 -101 -183 -137.5t-183 -36.5q-141 0 -220 65t-79 165q0 151 146 242q117 72 513 144v135q0 80 -53 130.5t-142 50.5q-68 0 -120 -29q-35 -19 -35 -38q0 -10 13 -30q28 -45 28 -89
q0 -56 -37 -90.5t-99 -34.5q-66 0 -106 37.5t-40 96.5q0 97 105 171q131 92 326 92q147 0 261 -46q73 -29 118.5 -101.5t45.5 -178.5v-475q0 -54 20 -78t55 -24q29 0 76 31zM760 499q-214 -29 -289.5 -89.5t-75.5 -159.5q0 -70 35.5 -107.5t99.5 -37.5q99 0 164.5 71
t65.5 194v129zM474 1487h297l183 -376h-36l-295 219l-296 -219h-36z" />
    <glyph glyph-name="adieresis" unicode="&#xe4;" horiz-adv-x="1251" 
d="M1176 116l42 -72q-61 -42 -109.5 -58t-106.5 -16q-86 0 -139 36.5t-97 137.5q-102 -101 -183 -137.5t-183 -36.5q-141 0 -220 65t-79 165q0 151 146 242q117 72 513 144v135q0 80 -53 130.5t-142 50.5q-68 0 -120 -29q-35 -19 -35 -38q0 -10 13 -30q28 -45 28 -89
q0 -56 -37 -90.5t-99 -34.5q-66 0 -106 37.5t-40 96.5q0 97 105 171q131 92 326 92q147 0 261 -46q73 -29 118.5 -101.5t45.5 -178.5v-475q0 -54 20 -78t55 -24q29 0 76 31zM760 499q-214 -29 -289.5 -89.5t-75.5 -159.5q0 -70 35.5 -107.5t99.5 -37.5q99 0 164.5 71
t65.5 194v129zM812 1434q56 0 95 -39t39 -94q0 -56 -39.5 -95t-94.5 -39t-94.5 39t-39.5 95q0 55 39 94t95 39zM373 1433q55 0 94 -39t39 -94t-39 -94t-94 -39t-94 39t-39 94q0 56 39 94.5t94 38.5z" />
    <glyph glyph-name="atilde" unicode="&#xe3;" horiz-adv-x="1251" 
d="M1176 116l42 -72q-61 -42 -109.5 -58t-106.5 -16q-86 0 -139 36.5t-97 137.5q-102 -101 -183 -137.5t-183 -36.5q-141 0 -220 65t-79 165q0 151 146 242q117 72 513 144v135q0 80 -53 130.5t-142 50.5q-68 0 -120 -29q-35 -19 -35 -38q0 -10 13 -30q28 -45 28 -89
q0 -56 -37 -90.5t-99 -34.5q-66 0 -106 37.5t-40 96.5q0 97 105 171q131 92 326 92q147 0 261 -46q73 -29 118.5 -101.5t45.5 -178.5v-475q0 -54 20 -78t55 -24q29 0 76 31zM760 499q-214 -29 -289.5 -89.5t-75.5 -159.5q0 -70 35.5 -107.5t99.5 -37.5q99 0 164.5 71
t65.5 194v129zM960 1431h27q-5 -118 -71.5 -190t-151.5 -72q-35 0 -73 9t-165 56q-63 23 -96 23q-82 0 -116 -89h-23q14 127 76.5 192.5t149.5 65.5q53 0 178 -44q113 -41 146 -41q98 0 119 90z" />
    <glyph glyph-name="aring" unicode="&#xe5;" horiz-adv-x="1251" 
d="M1176 116l42 -72q-61 -42 -109.5 -58t-106.5 -16q-86 0 -139 36.5t-97 137.5q-102 -101 -183 -137.5t-183 -36.5q-141 0 -220 65t-79 165q0 151 146 242q117 72 513 144v135q0 80 -53 130.5t-142 50.5q-68 0 -120 -29q-35 -19 -35 -38q0 -10 13 -30q28 -45 28 -89
q0 -56 -37 -90.5t-99 -34.5q-66 0 -106 37.5t-40 96.5q0 97 105 171q131 92 326 92q147 0 261 -46q73 -29 118.5 -101.5t45.5 -178.5v-475q0 -54 20 -78t55 -24q29 0 76 31zM760 499q-214 -29 -289.5 -89.5t-75.5 -159.5q0 -70 35.5 -107.5t99.5 -37.5q99 0 164.5 71
t65.5 194v129zM599 1502q88 0 150 -62t62 -150q0 -87 -62 -149t-150 -62q-87 0 -149 62t-62 150q0 87 62 149t149 62zM600 1409q-49 0 -84 -35t-35 -84t35 -84t84 -35t84 35t35 84t-35 84t-84 35z" />
    <glyph glyph-name="ccedilla" unicode="&#xe7;" horiz-adv-x="1139" 
d="M1009 338l78 -37q-61 -158 -188 -244.5t-302 -86.5q-237 0 -370 129.5t-133 348.5q0 236 157.5 388t417.5 152q187 0 286 -75.5t99 -182.5q0 -78 -43.5 -123.5t-114.5 -45.5q-62 0 -98.5 35.5t-36.5 92.5q0 49 40 114q17 27 17 38q0 20 -31 36q-44 25 -115 25
q-132 0 -191 -84q-79 -111 -79 -336t78.5 -316.5t202.5 -91.5q98 0 184.5 65.5t141.5 198.5zM475 24h176l-31 -46q88 -11 133 -57t45 -112q0 -83 -85 -143t-262 -60q-72 0 -162 13v89l41 -1l71 -1q116 0 169 27q36 19 36 53q0 31 -40 49q-59 26 -213 27z" />
    <glyph glyph-name="eacute" unicode="&#xe9;" horiz-adv-x="1176" 
d="M1067 462h-657q3 -197 79.5 -290.5t196.5 -93.5q86 0 163 48t158 174l73 -45q-85 -150 -194.5 -214.5t-267.5 -64.5q-230 0 -372 140t-142 359t143 366t351 147q144 0 247.5 -59t161 -172.5t60.5 -294.5zM410 552h313q44 0 63 22t19 80q0 116 -53 179.5t-135 63.5
q-97 0 -148.5 -86t-58.5 -259zM447 1116l-28 23l162 231q77 110 158 110q45 0 81.5 -33.5t36.5 -70.5q0 -40 -26.5 -70.5t-119.5 -71.5z" />
    <glyph glyph-name="egrave" unicode="&#xe8;" horiz-adv-x="1176" 
d="M1067 462h-657q3 -197 79.5 -290.5t196.5 -93.5q86 0 163 48t158 174l73 -45q-85 -150 -194.5 -214.5t-267.5 -64.5q-230 0 -372 140t-142 359t143 366t351 147q144 0 247.5 -59t161 -172.5t60.5 -294.5zM410 552h313q44 0 63 22t19 80q0 116 -53 179.5t-135 63.5
q-97 0 -148.5 -86t-58.5 -259zM858 1141l-26 -25l-287 129q-75 34 -99 61.5t-24 64.5q0 42 35 76t82 34q43 0 79 -23.5t89 -98.5z" />
    <glyph glyph-name="ecircumflex" unicode="&#xea;" horiz-adv-x="1176" 
d="M1067 462h-657q3 -197 79.5 -290.5t196.5 -93.5q86 0 163 48t158 174l73 -45q-85 -150 -194.5 -214.5t-267.5 -64.5q-230 0 -372 140t-142 359t143 366t351 147q144 0 247.5 -59t161 -172.5t60.5 -294.5zM410 552h313q44 0 63 22t19 80q0 116 -53 179.5t-135 63.5
q-97 0 -148.5 -86t-58.5 -259zM459 1487h297l183 -376h-36l-295 219l-296 -219h-36z" />
    <glyph glyph-name="edieresis" unicode="&#xeb;" horiz-adv-x="1176" 
d="M1067 462h-657q3 -197 79.5 -290.5t196.5 -93.5q86 0 163 48t158 174l73 -45q-85 -150 -194.5 -214.5t-267.5 -64.5q-230 0 -372 140t-142 359t143 366t351 147q144 0 247.5 -59t161 -172.5t60.5 -294.5zM410 552h313q44 0 63 22t19 80q0 116 -53 179.5t-135 63.5
q-97 0 -148.5 -86t-58.5 -259zM830 1434q56 0 95 -39t39 -94q0 -56 -39.5 -95t-94.5 -39t-94.5 39t-39.5 95q0 55 39 94t95 39zM391 1433q55 0 94 -39t39 -94t-39 -94t-94 -39t-94 39t-39 94q0 56 39 94.5t94 38.5z" />
    <glyph glyph-name="iacute" unicode="&#xed;" horiz-adv-x="758" 
d="M114 936l416 19v-795q0 -32 20.5 -49.5t62.5 -17.5h63v-93h-562v93h62q50 0 70.5 23t20.5 80v542q0 51 -29.5 79t-81.5 28h-42v91zM221 1116l-28 23l162 231q77 110 158 110q45 0 81.5 -33.5t36.5 -70.5q0 -40 -26.5 -70.5t-119.5 -71.5z" />
    <glyph glyph-name="igrave" unicode="&#xec;" horiz-adv-x="758" 
d="M114 936l416 19v-795q0 -32 20.5 -49.5t62.5 -17.5h63v-93h-562v93h62q50 0 70.5 23t20.5 80v542q0 51 -29.5 79t-81.5 28h-42v91zM593 1141l-26 -25l-287 129q-75 34 -99 61.5t-24 64.5q0 42 35 76t82 34q43 0 79 -23.5t89 -98.5z" />
    <glyph glyph-name="icircumflex" unicode="&#xee;" horiz-adv-x="758" 
d="M114 936l416 19v-795q0 -32 20.5 -49.5t62.5 -17.5h63v-93h-562v93h62q50 0 70.5 23t20.5 80v542q0 51 -29.5 79t-81.5 28h-42v91zM252 1487h297l183 -376h-36l-295 219l-296 -219h-36z" />
    <glyph glyph-name="idieresis" unicode="&#xef;" horiz-adv-x="758" 
d="M114 936l416 19v-795q0 -32 20.5 -49.5t62.5 -17.5h63v-93h-562v93h62q50 0 70.5 23t20.5 80v542q0 51 -29.5 79t-81.5 28h-42v91zM623 1434q56 0 95 -39t39 -94q0 -56 -39.5 -95t-94.5 -39t-94.5 39t-39.5 95q0 55 39 94t95 39zM184 1433q55 0 94 -39t39 -94t-39 -94
t-94 -39t-94 39t-39 94q0 56 39 94.5t94 38.5z" />
    <glyph glyph-name="ntilde" unicode="&#xf1;" horiz-adv-x="1403" 
d="M1347 93v-93h-563v93h59q47 0 70 24t23 70v406q0 104 -47.5 159.5t-124.5 55.5q-105 0 -171 -78.5t-66 -229.5v-313q0 -46 23.5 -70t60.5 -24h71v-93h-584v93h76q44 0 66.5 24t22.5 70v557q0 48 -32.5 76.5t-85.5 28.5h-40v87l390 21q21 -86 32 -205q82 111 175 166
t196 55q140 0 221 -93q80 -93 80 -259v-434q0 -50 23 -72t73 -22h52zM1047 1431h27q-5 -118 -71.5 -190t-151.5 -72q-35 0 -73 9t-165 56q-63 23 -96 23q-82 0 -116 -89h-23q14 127 76.5 192.5t149.5 65.5q53 0 178 -44q113 -41 146 -41q98 0 119 90z" />
    <glyph glyph-name="oacute" unicode="&#xf3;" horiz-adv-x="1251" 
d="M617 988q157 0 288.5 -68t195.5 -177.5t64 -263.5q0 -246 -167.5 -377.5t-379.5 -131.5q-150 0 -274.5 67.5t-191.5 182t-67 258.5q0 217 151.5 363.5t380.5 146.5zM623 893q-104 0 -165.5 -91.5t-61.5 -321.5q0 -239 61 -329.5t165 -90.5q106 0 171 93t65 321
q0 234 -64 326.5t-171 92.5zM451 1116l-28 23l162 231q77 110 158 110q45 0 81.5 -33.5t36.5 -70.5q0 -40 -26.5 -70.5t-119.5 -71.5z" />
    <glyph glyph-name="ograve" unicode="&#xf2;" horiz-adv-x="1251" 
d="M617 988q157 0 288.5 -68t195.5 -177.5t64 -263.5q0 -246 -167.5 -377.5t-379.5 -131.5q-150 0 -274.5 67.5t-191.5 182t-67 258.5q0 217 151.5 363.5t380.5 146.5zM623 893q-104 0 -165.5 -91.5t-61.5 -321.5q0 -239 61 -329.5t165 -90.5q106 0 171 93t65 321
q0 234 -64 326.5t-171 92.5zM843 1141l-26 -25l-287 129q-75 34 -99 61.5t-24 64.5q0 42 35 76t82 34q43 0 79 -23.5t89 -98.5z" />
    <glyph glyph-name="ocircumflex" unicode="&#xf4;" horiz-adv-x="1251" 
d="M617 988q157 0 288.5 -68t195.5 -177.5t64 -263.5q0 -246 -167.5 -377.5t-379.5 -131.5q-150 0 -274.5 67.5t-191.5 182t-67 258.5q0 217 151.5 363.5t380.5 146.5zM623 893q-104 0 -165.5 -91.5t-61.5 -321.5q0 -239 61 -329.5t165 -90.5q106 0 171 93t65 321
q0 234 -64 326.5t-171 92.5zM506 1487h297l183 -376h-36l-295 219l-296 -219h-36z" />
    <glyph glyph-name="odieresis" unicode="&#xf6;" horiz-adv-x="1251" 
d="M617 988q157 0 288.5 -68t195.5 -177.5t64 -263.5q0 -246 -167.5 -377.5t-379.5 -131.5q-150 0 -274.5 67.5t-191.5 182t-67 258.5q0 217 151.5 363.5t380.5 146.5zM623 893q-104 0 -165.5 -91.5t-61.5 -321.5q0 -239 61 -329.5t165 -90.5q106 0 171 93t65 321
q0 234 -64 326.5t-171 92.5zM871 1434q56 0 95 -39t39 -94q0 -56 -39.5 -95t-94.5 -39t-94.5 39t-39.5 95q0 55 39 94t95 39zM432 1433q55 0 94 -39t39 -94t-39 -94t-94 -39t-94 39t-39 94q0 56 39 94.5t94 38.5z" />
    <glyph glyph-name="otilde" unicode="&#xf5;" horiz-adv-x="1251" 
d="M617 988q157 0 288.5 -68t195.5 -177.5t64 -263.5q0 -246 -167.5 -377.5t-379.5 -131.5q-150 0 -274.5 67.5t-191.5 182t-67 258.5q0 217 151.5 363.5t380.5 146.5zM623 893q-104 0 -165.5 -91.5t-61.5 -321.5q0 -239 61 -329.5t165 -90.5q106 0 171 93t65 321
q0 234 -64 326.5t-171 92.5zM961 1431h27q-5 -118 -71.5 -190t-151.5 -72q-35 0 -73 9t-165 56q-63 23 -96 23q-82 0 -116 -89h-23q14 127 76.5 192.5t149.5 65.5q53 0 178 -44q113 -41 146 -41q98 0 119 90z" />
    <glyph glyph-name="uacute" unicode="&#xfa;" horiz-adv-x="1403" 
d="M82 936l418 24v-624q0 -87 47 -137.5t122 -50.5q106 0 169.5 84t63.5 197v306q0 54 -30 82t-82 28h-46v91l422 24v-758q0 -51 31.5 -80t83.5 -29h43v-93l-387 -12q-24 100 -28 214q-97 -123 -187 -173t-187 -50q-96 0 -161.5 40t-104.5 127t-39 211v372q0 61 -31 87.5
t-117 28.5v91zM529 1116l-28 23l162 231q77 110 158 110q45 0 81.5 -33.5t36.5 -70.5q0 -40 -26.5 -70.5t-119.5 -71.5z" />
    <glyph glyph-name="ugrave" unicode="&#xf9;" horiz-adv-x="1403" 
d="M82 936l418 24v-624q0 -87 47 -137.5t122 -50.5q106 0 169.5 84t63.5 197v306q0 54 -30 82t-82 28h-46v91l422 24v-758q0 -51 31.5 -80t83.5 -29h43v-93l-387 -12q-24 100 -28 214q-97 -123 -187 -173t-187 -50q-96 0 -161.5 40t-104.5 127t-39 211v372q0 61 -31 87.5
t-117 28.5v91zM921 1141l-26 -25l-287 129q-75 34 -99 61.5t-24 64.5q0 42 35 76t82 34q43 0 79 -23.5t89 -98.5z" />
    <glyph glyph-name="ucircumflex" unicode="&#xfb;" horiz-adv-x="1403" 
d="M82 936l418 24v-624q0 -87 47 -137.5t122 -50.5q106 0 169.5 84t63.5 197v306q0 54 -30 82t-82 28h-46v91l422 24v-758q0 -51 31.5 -80t83.5 -29h43v-93l-387 -12q-24 100 -28 214q-97 -123 -187 -173t-187 -50q-96 0 -161.5 40t-104.5 127t-39 211v372q0 61 -31 87.5
t-117 28.5v91zM560 1487h297l183 -376h-36l-295 219l-296 -219h-36z" />
    <glyph glyph-name="udieresis" unicode="&#xfc;" horiz-adv-x="1403" 
d="M82 936l418 24v-624q0 -87 47 -137.5t122 -50.5q106 0 169.5 84t63.5 197v306q0 54 -30 82t-82 28h-46v91l422 24v-758q0 -51 31.5 -80t83.5 -29h43v-93l-387 -12q-24 100 -28 214q-97 -123 -187 -173t-187 -50q-96 0 -161.5 40t-104.5 127t-39 211v372q0 61 -31 87.5
t-117 28.5v91zM931 1434q56 0 95 -39t39 -94q0 -56 -39.5 -95t-94.5 -39t-94.5 39t-39.5 95q0 55 39 94t95 39zM492 1433q55 0 94 -39t39 -94t-39 -94t-94 -39t-94 39t-39 94q0 56 39 94.5t94 38.5z" />
    <glyph glyph-name="dagger" unicode="&#x2020;" horiz-adv-x="1024" 
d="M527 883q8 -107 41.5 -170t125.5 -136q-75 -189 -119.5 -440.5t-47.5 -530.5h-78q0 266 -54 565q-43 241 -114 406q85 67 121.5 134t46.5 172q-43 0 -69 -8t-109 -52q-82 -44 -140 -44q-64 0 -103.5 41t-39.5 109q0 66 39.5 104.5t104.5 38.5q33 0 62 -9t95 -45
q60 -32 86.5 -40.5t73.5 -13.5q-8 73 -20 116q-5 21 -35 84q-38 80 -49 122t-11 78q0 66 42 109.5t107 43.5q71 0 115 -42.5t44 -106.5q0 -33 -9.5 -70t-47.5 -125q-34 -80 -41 -106q-11 -42 -17 -103q46 4 73.5 13t86.5 41q67 37 95.5 45.5t61.5 8.5q65 0 104.5 -38.5
t39.5 -103.5q0 -69 -39.5 -110t-101.5 -41q-60 0 -142 44q-82 43 -107.5 51.5t-70.5 8.5z" />
    <glyph glyph-name="degree" unicode="&#xb0;" horiz-adv-x="819" 
d="M410 1426q142 0 243 -100.5t101 -242.5t-101 -242.5t-243 -100.5q-143 0 -243.5 100.5t-100.5 243.5q0 142 99.5 242t244.5 100zM410 1279q-81 0 -138.5 -57t-57.5 -138t57.5 -138.5t138.5 -57.5t138 57.5t57 138.5t-57 138t-138 57z" />
    <glyph glyph-name="cent" unicode="&#xa2;" horiz-adv-x="1176" 
d="M998 1168h101l-132 -254q98 -68 98 -191q0 -72 -44 -117.5t-111 -45.5t-108 38l-251 -477q59 -45 140 -45q211 0 324 262l84 -33q-66 -171 -186 -253t-293 -82q-75 0 -141 13l-192 -364h-104l203 381q-283 126 -283 446q0 219 137 370q158 172 430 172q111 0 216 -27z
M825 847q-31 52 -143 52q-132 0 -193 -82q-77 -100 -77 -308q0 -118 16.5 -190.5t52.5 -131.5z" />
    <glyph glyph-name="sterling" unicode="&#xa3;" horiz-adv-x="1176" 
d="M616 747h335v-107h-318q15 -116 15 -157q0 -68 -26 -154l72 -33q90 -41 138 -54t90 -13q84 0 142 82l82 -56q-48 -157 -127 -225t-189 -68q-77 0 -151 31t-171 117q-138 -147 -286 -147q-110 0 -177.5 61.5t-67.5 159.5q0 95 76 162t195 67q80 0 211 -38q-6 64 -23 112
t-78 153h-254v107h211q-47 143 -47 245q0 178 125 297t322 119q161 0 258.5 -80.5t97.5 -197.5q0 -95 -45.5 -144t-123.5 -49q-59 0 -93.5 34.5t-34.5 90.5q0 78 55 122q26 21 30 28q9 17 9 32q0 29 -35 53t-100 24q-100 0 -156.5 -56t-56.5 -156q0 -38 6.5 -70t39.5 -128
q26 -77 50 -164zM419 183q-99 91 -201 91q-71 0 -109 -29.5t-38 -75.5q0 -51 39 -85.5t107 -34.5q128 0 202 134z" />
    <glyph glyph-name="section" unicode="&#xa7;" horiz-adv-x="1024" 
d="M740 199q73 -84 98.5 -142.5t25.5 -124.5q0 -145 -105.5 -235.5t-291.5 -90.5q-166 0 -253 65t-87 164q0 69 41 112t104 43t105 -40.5t42 -98.5q0 -38 -29 -83q-16 -23 -16 -34q0 -16 20 -28q28 -16 73 -16q86 0 134 40t48 101q0 58 -40 112q-28 39 -142 138
q-216 188 -273 250.5t-83.5 130t-26.5 136.5q0 86 47.5 166.5t162.5 164.5q-124 132 -124 275q0 132 105.5 222.5t277.5 90.5q177 0 267 -66t90 -165q0 -69 -39.5 -109.5t-104.5 -40.5t-106.5 38t-41.5 94q0 48 32 92q15 20 15 31q0 14 -21 26q-29 16 -80 16q-80 0 -128 -40
t-48 -99q0 -54 37.5 -108.5t224.5 -221.5q177 -157 208 -194q47 -56 68.5 -114t21.5 -123q0 -94 -47 -174.5t-161 -159.5zM357 868q-99 -59 -99 -144q0 -44 28 -88t136 -138l263 -239q55 43 72 73t17 69q0 55 -39 106t-378 361z" />
    <glyph glyph-name="bullet" unicode="&#x2022;" horiz-adv-x="1241" 
d="M618 976q121 0 206 -85t85 -206q0 -120 -84.5 -205t-204.5 -85t-204.5 85.5t-84.5 205.5t84 205t203 85z" />
    <glyph glyph-name="paragraph" unicode="&#xb6;" horiz-adv-x="1530" 
d="M860 1400v-1746h-111v883q-269 11 -395 120q-151 130 -151 356q0 156 72.5 268t183 155t422.5 43h466v-47h-44q-82 0 -115 -35t-33 -123v-1620h-110v1746h-185z" />
    <glyph glyph-name="germandbls" unicode="&#xdf;" horiz-adv-x="1251" 
d="M839 885q171 -27 260.5 -133t89.5 -280q0 -217 -115.5 -351.5t-271.5 -134.5q-122 0 -180 68t-58 147q0 58 34.5 95.5t84.5 37.5q52 0 86 -34.5t34 -88.5q0 -48 -35 -95q-14 -19 -14 -28q0 -11 13 -21t37 -10q55 0 80 52t25 264q0 243 -20.5 318.5t-69.5 108.5t-177 37
v87q66 0 131 35q44 23 65 67q28 59 28 145q0 131 -52 193t-144 62q-109 0 -156 -63q-67 -89 -67 -252v-962q0 -31 12 -43.5t37 -12.5h20v-93h-460v87h43q46 0 66 23t20 81v909q0 115 58 212t164 151t253 54q249 0 381 -119q92 -83 92 -212q0 -220 -294 -301z" />
    <glyph glyph-name="registered" unicode="&#xae;" horiz-adv-x="1530" 
d="M765 1426q193 0 360 -96.5t263.5 -263t96.5 -358.5q0 -193 -96.5 -359.5t-263.5 -263t-360 -96.5q-192 0 -359 96.5t-263.5 263t-96.5 359.5q0 192 96.5 358.5t263.5 263t359 96.5zM765 1335q-168 0 -314 -84t-230.5 -229.5t-84.5 -313.5t84.5 -314t230.5 -230t314 -84
q169 0 315 84t230 230t84 314t-84 313.5t-230 229.5t-315 84zM380 1127h368q144 0 216.5 -26.5t107.5 -75t35 -115.5q0 -82 -45 -136t-136 -80l149 -271q23 -43 44 -60t52 -23v-34h-245l-207 373h-47v-222q0 -67 24 -91t97 -26v-34h-429v34q62 0 84.5 24.5t22.5 92.5v533
q0 54 -20 75.5t-71 25.5v36zM672 731q28 -5 51 -5q73 0 120 49.5t47 135.5q0 84 -45 127.5t-135 43.5h-38v-351z" />
    <glyph glyph-name="copyright" unicode="&#xa9;" horiz-adv-x="1530" 
d="M765 1426q193 0 360 -96.5t263.5 -263t96.5 -358.5q0 -193 -96.5 -359.5t-263.5 -263t-360 -96.5q-192 0 -359 96.5t-263.5 263t-96.5 359.5q0 192 96.5 358.5t263.5 263t359 96.5zM765 1335q-168 0 -314 -84t-230.5 -229.5t-84.5 -313.5t84.5 -314t230.5 -230t314 -84
q169 0 315 84t230 230t84 314t-84 313.5t-230 229.5t-315 84zM1105 1142v-268h-39q-20 105 -87.5 162.5t-162.5 57.5q-105 0 -183.5 -83.5t-78.5 -292.5q0 -208 78 -290.5t184 -82.5q143 0 261 140v-71q-129 -128 -321 -128q-191 0 -310 115t-119 299q0 193 126.5 318.5
t323.5 125.5q85 0 196 -41q34 -13 49 -13q36 0 44 52h39z" />
    <glyph glyph-name="trademark" unicode="&#x2122;" horiz-adv-x="2048" 
d="M-17 1479h788v-231h-36q-3 89 -49 133t-148 44h-38v-597q0 -85 20.5 -109.5t83.5 -24.5v-35h-460v35q61 4 75.5 12t21.5 28.5t7 93.5v597h-35q-96 0 -142.5 -41.5t-54.5 -135.5h-33v231zM869 1479h373l235 -504l232 504h352v-40q-49 0 -68 -11t-28 -35q-7 -17 -7 -89
v-476q0 -80 17 -101q24 -30 86 -33v-35h-468v35q74 1 95 24.5t21 109.5v509l-324 -678h-25l-322 678v-509q0 -72 8 -90.5t30.5 -30.5t77.5 -13v-35h-285v35q59 2 77 12t26 30.5t8 91.5v476q0 70 -8.5 92t-27.5 32.5t-75 10.5v40z" />
    <glyph glyph-name="acute" unicode="&#xb4;" horiz-adv-x="682" 
d="M167 1116l-28 23l162 231q77 110 158 110q45 0 81.5 -33.5t36.5 -70.5q0 -40 -26.5 -70.5t-119.5 -71.5z" />
    <glyph glyph-name="dieresis" unicode="&#xa8;" horiz-adv-x="682" 
d="M569 1434q56 0 95 -39t39 -94q0 -56 -39.5 -95t-94.5 -39t-94.5 39t-39.5 95q0 55 39 94t95 39zM130 1433q55 0 94 -39t39 -94t-39 -94t-94 -39t-94 39t-39 94q0 56 39 94.5t94 38.5z" />
    <glyph glyph-name="notequal" unicode="&#x2260;" horiz-adv-x="1124" 
d="M15 863h600l208 528h134l-205 -528h357v-157h-418l-123 -315h541v-156h-602l-208 -527h-135l207 527h-356v156h417l123 315h-540v157z" />
    <glyph glyph-name="AE" unicode="&#xc6;" horiz-adv-x="2009" 
d="M462 1386v93h1380l29 -499h-87q-36 224 -121.5 315t-213.5 91h-161q-56 0 -79 -20t-23 -61v-515h48q102 0 164.5 70t70.5 210h88v-666h-88q-6 161 -70 229t-185 68h-28v-535q0 -38 21 -55q28 -24 70 -24h143q179 0 283.5 107t138.5 355h88l-27 -549h-1250v87h145
q43 0 65.5 23.5t22.5 63.5v454h-424l-189 -336q-29 -52 -29 -99q0 -37 14.5 -60.5t45.5 -36.5q21 -9 85 -9v-87h-471v87q139 21 231 185l555 1001q21 38 21 63t-23 37.5t-107 12.5h-133zM886 1395l-373 -675h373v675z" />
    <glyph glyph-name="Oslash" unicode="&#xd8;" horiz-adv-x="1706" 
d="M1390 1295q215 -221 215 -548q0 -333 -217.5 -555t-539.5 -222q-143 0 -255 39.5t-216 124.5l-117 -134h-119l170 195q-108 111 -160 242t-52 304q0 337 214.5 556.5t528.5 219.5q279 0 481 -162l109 124h118zM486 396l699 800q-45 109 -132 167t-202 58
q-118 0 -205.5 -66t-139 -211.5t-51.5 -403.5q0 -219 31 -344zM1216 1097l-698 -800q45 -109 133 -168t202 -59q117 0 206 68t138 211t49 415q0 201 -30 333z" />
    <glyph glyph-name="infinity" unicode="&#x221e;" horiz-adv-x="1460" 
d="M653 667q68 157 149 217t221 60q161 0 272 -116t111 -301q0 -183 -108 -301.5t-241 -118.5q-99 0 -184 73q-56 48 -153 213q-64 -124 -140 -178.5t-184 -54.5q-144 0 -243.5 103t-99.5 266q0 165 92 266t215 101q86 0 152 -44.5t141 -184.5zM749 464q75 -156 148 -209.5
t164 -53.5q123 0 205.5 88.5t82.5 237.5q0 147 -87 243t-195 96q-69 0 -120.5 -35t-93.5 -112q-24 -45 -104 -255zM624 590q-49 110 -112 162t-155 52q-106 0 -177.5 -74.5t-71.5 -199.5q0 -133 70.5 -212.5t159.5 -79.5q95 0 168 85q47 56 118 267z" />
    <glyph glyph-name="plusminus" unicode="&#xb1;" horiz-adv-x="1124" 
d="M16 744h481v480h131v-480h481v-132h-481l1 -344h480v-132h-1093l-1 131h482v345h-481v132z" />
    <glyph glyph-name="lessequal" unicode="&#x2264;" horiz-adv-x="1124" 
d="M1109 220l-1094 460v141l1094 460v-170l-882 -360l882 -360v-171zM14 -29h1096v-156h-1096v156z" />
    <glyph glyph-name="greaterequal" unicode="&#x2265;" horiz-adv-x="1124" 
d="M15 220l1094 460v141l-1094 460v-170l882 -360l-882 -360v-171zM1110 -29h-1096v-156h1096v156z" />
    <glyph glyph-name="yen" unicode="&#xa5;" horiz-adv-x="1479" 
d="M535 699l-291 501q-35 62 -75 85t-100 23h-31v88h695v-88h-97q-51 0 -71 -13t-20 -34q0 -23 18 -53l290 -500l204 405q25 50 25 94q0 46 -33 73.5t-99 27.5h-43v88h539v-88q-93 -3 -149.5 -38t-96.5 -114l-231 -457h431v-123h-493v-183h480v-123h-480v-105
q0 -39 21.5 -58t66.5 -19h144v-88h-764v88h147q47 0 66.5 18.5t19.5 58.5v105h-512v123h512v183h-499v123h426z" />
    <glyph glyph-name="mu1" unicode="&#xb5;" horiz-adv-x="1180" 
d="M152 935h278v-694q1 -79 22.5 -105.5t62.5 -26.5q45 0 86.5 30.5t78.5 90.5v705h277v-625l1 -53q0 -81 19.5 -107.5t48.5 -26.5q23 0 41 24q27 36 35 120h43q-4 -141 -77.5 -218t-180.5 -77q-72 0 -123.5 38t-76.5 119q-75 -83 -144 -120t-147 -37q-40 0 -70 10.5
t-79 45.5q0 -61 5.5 -96.5t29.5 -121t24 -119.5q0 -62 -33 -97t-86 -35q-50 0 -79 30.5t-29 86.5q0 44 24 138q32 125 40.5 197.5t8.5 247.5v676z" />
    <glyph glyph-name="partialdiff" unicode="&#x2202;" horiz-adv-x="1012" 
d="M370 1150h-42q52 146 142.5 215t205.5 69q152 0 223 -102t71 -291q0 -360 -106 -620.5t-238 -365.5q-97 -78 -232 -78q-97 0 -169 39.5t-109.5 117t-37.5 159.5q0 130 61.5 252.5t151.5 211t185.5 133t188.5 44.5q164 0 236 -150q8 82 8 127q0 171 -116 265
q-71 58 -197 58q-81 0 -131.5 -20t-94.5 -64zM885 691q-34 103 -89.5 147.5t-124.5 44.5q-70 0 -136 -61q-86 -80 -143.5 -262t-57.5 -348q0 -97 30 -132.5t89 -35.5q99 0 200 117q166 195 232 530z" />
    <glyph glyph-name="summation" unicode="&#x2211;" horiz-adv-x="1460" 
d="M1356 -388h-1313v36l669 928l-669 887v38h1278l27 -337h-40q-15 135 -76 195.5t-173 60.5h-740l562 -758l-629 -874h818q87 0 166 32q51 21 85.5 67.5t58.5 147.5l40 -8z" />
    <glyph glyph-name="product" unicode="&#x220f;" horiz-adv-x="1685" 
d="M1240 1422h-795v-1618q0 -83 37 -119t125 -36h36v-37h-597v37h35q93 0 128 38t35 117v1504q0 84 -37 119.5t-126 35.5h-35v38h1594v-38h-35q-92 0 -127 -37.5t-35 -117.5v-1504q0 -83 37 -119t125 -36h35v-37h-597v37h35q93 0 127.5 38t34.5 117v1618z" />
    <glyph glyph-name="pi" unicode="&#xf006;" horiz-adv-x="1124" 
d="M1039 935v-207h-215q-36 -305 -36 -424q0 -94 27 -130q20 -28 60 -28q44 0 69 30q39 46 49 140h37q-7 -191 -76 -279q-49 -65 -135 -65q-80 0 -135.5 73t-55.5 258q0 77 8 175q1 21 27 250h-198q-26 -374 -46 -489q-27 -158 -84 -224q-37 -43 -86 -43q-45 0 -75.5 30
t-30.5 72q0 53 54 149t68 162q31 141 35 343h-34q-70 0 -116 -33q-34 -24 -61 -83h-37q40 134 97.5 210.5t109.5 96.5q40 16 148 16h632z" />
    <glyph glyph-name="integral" unicode="&#x222b;" horiz-adv-x="561" 
d="M200 895l18 581q8 154 50 255q27 67 74 99.5t93 32.5q50 0 87.5 -33.5t37.5 -73.5q0 -47 -26.5 -75.5t-65.5 -28.5q-35 0 -76 36q-23 20 -40 20t-28.5 -14.5t-11.5 -49.5q0 -41 9 -145q37 -411 37 -663q0 -70 -16 -590q-8 -295 -90 -399q-54 -67 -134 -67q-52 0 -85 34
t-33 87q0 45 25.5 72t64.5 27q40 0 69 -32t49 -32q17 0 28 14t11 47q0 42 -9 120q-17 143 -26 338q-12 249 -12 440z" />
    <glyph glyph-name="ordfeminine" unicode="&#xaa;" horiz-adv-x="752" 
d="M745 1007l36 -57q-76 -49 -148 -49q-113 0 -155 93q-61 -54 -112.5 -73.5t-114.5 -19.5q-95 0 -147.5 41t-52.5 102q0 92 97 148q68 40 318 86v74q0 44 -29.5 71t-81.5 27q-38 0 -68 -15q-18 -9 -18 -17q1 -5 6 -11q21 -29 21 -59q0 -35 -26.5 -58t-71.5 -23
q-47 0 -75.5 24.5t-28.5 62.5q0 59 77 111t209 52q144 0 219 -58q58 -45 58 -142v-281q0 -28 9.5 -40t25.5 -12q15 0 40 16zM466 1211q-127 -21 -166.5 -52.5t-39.5 -85.5q0 -38 19 -57.5t54 -19.5q58 0 95.5 39.5t37.5 109.5v66z" />
    <glyph glyph-name="ordmasculine" unicode="&#xba;" horiz-adv-x="752" 
d="M389 1517q161 0 270 -95q88 -76 88 -214q0 -132 -100 -219.5t-257 -87.5q-152 0 -250 88t-98 219q0 130 98.5 219.5t248.5 89.5zM393 1445q-60 0 -95.5 -52.5t-35.5 -183.5q0 -136 35.5 -188t94.5 -52q62 0 99.5 53.5t37.5 183.5q0 132 -37 185.5t-99 53.5z" />
    <glyph glyph-name="Ohm" unicode="&#x2126;" horiz-adv-x="1573" 
d="M714 205l1 -205h-630l-76 360h125q21 -93 36 -111q31 -38 118 -38h75q78 0 166 -12l-13 26q-110 17 -179 53t-123 102t-91 180.5t-37 246.5q0 216 90.5 381.5t250.5 247.5t350 82q227 0 391.5 -91.5t244 -258t79.5 -354.5q0 -135 -38.5 -256t-105.5 -197
q-50 -57 -113.5 -88t-172.5 -48l-12 -26q94 12 165 12h76q76 0 104 24t49 125h125l-76 -360h-629v205q84 34 125 70t76.5 105t62 195t26.5 274q0 322 -106.5 460.5t-253.5 138.5q-155 0 -250 -122q-119 -153 -119 -467q0 -192 39.5 -341t100.5 -219q46 -52 149 -94z" />
    <glyph glyph-name="ae" unicode="&#xe6;" horiz-adv-x="1782" 
d="M942 899q144 89 289 89q119 0 219.5 -61.5t156.5 -173t61 -291.5h-644q0 -191 77 -288.5t189 -97.5q83 0 162.5 51.5t150.5 173.5l73 -47q-78 -148 -188 -216t-261 -68q-137 0 -240 50t-187 160q-124 -125 -209.5 -167.5t-184.5 -42.5q-134 0 -210.5 67.5t-76.5 169.5
q0 84 48 152t156.5 113t438.5 120v125q0 86 -53.5 135.5t-149.5 49.5q-72 0 -110 -22q-27 -16 -27 -41q0 -12 12 -33q27 -44 27 -85q0 -53 -37.5 -89.5t-93.5 -36.5q-62 0 -103 39t-41 97q0 91 118.5 174t335.5 83q81 0 156.5 -22t145.5 -67zM1024 553h299q44 0 63.5 22.5
t19.5 82.5q0 115 -52 179.5t-129 64.5q-85 0 -141.5 -80.5t-59.5 -268.5zM762 505q-203 -33 -278.5 -96.5t-75.5 -156.5q0 -74 34 -108t105 -34q85 0 150 71t65 170v154z" />
    <glyph glyph-name="oslash" unicode="&#xf8;" horiz-adv-x="1251" 
d="M1035 828q130 -133 130 -349q0 -245 -167.5 -377t-379.5 -132q-174 0 -313 90l-86 -90h-120l137 144q-69 63 -110 158t-41 206q0 217 151.5 363.5t379.5 146.5q202 0 353 -104l99 104h119zM409 296l417 438q-52 159 -203 159q-104 0 -165.5 -92t-61.5 -326
q0 -100 13 -179zM848 631l-414 -434q23 -64 73.5 -100.5t114.5 -36.5q106 0 171 93t65 321q0 93 -10 157z" />
    <glyph glyph-name="questiondown" unicode="&#xbf;" horiz-adv-x="1024" 
d="M548 808q-72 0 -122 50.5t-50 121.5q0 72 50 122.5t122 50.5q71 0 121.5 -50.5t50.5 -122.5q0 -71 -50.5 -121.5t-121.5 -50.5zM514 693h73l1 -70q0 -109 -17.5 -181.5t-67.5 -164.5q-70 -129 -85 -182q-21 -73 -21 -150q0 -119 50.5 -182t131.5 -63q62 0 104.5 32
t42.5 64q0 15 -7.5 25.5t-43.5 33.5q-43 28 -59 55.5t-16 65.5q0 61 44.5 105.5t104.5 44.5q66 0 113.5 -52t47.5 -136q0 -137 -109.5 -234.5t-287.5 -97.5q-173 0 -285 105.5t-112 256.5q0 61 20 121.5t54 106t127 123.5q91 75 125.5 122.5t53 107.5t18.5 144z" />
    <glyph glyph-name="exclamdown" unicode="&#xa1;" horiz-adv-x="606" 
d="M310 803q-71 0 -121.5 50.5t-50.5 121.5t50.5 121.5t121.5 50.5t121 -50.5t50 -121.5t-50 -121.5t-121 -50.5zM275 689h73q0 -137 14.5 -242.5t73.5 -359.5q48 -209 48 -278q0 -96 -48.5 -151t-123.5 -55t-124 55t-49 148q0 58 51 283q58 264 71 363t14 237z" />
    <glyph glyph-name="logicalnot" unicode="&#xac;" horiz-adv-x="1241" 
d="M61 1026h1120v-681h-187v494h-933v187z" />
    <glyph glyph-name="radical" unicode="&#x221a;" horiz-adv-x="1124" 
d="M1050 1869h74l-312 -1947l-496 1021l-198 -91l-34 64l301 151l405 -823z" />
    <glyph glyph-name="florin" unicode="&#x192;" horiz-adv-x="1176" 
d="M805 820l-134 -661q-60 -297 -188 -439q-108 -120 -253 -120q-84 0 -123 31.5t-39 84.5q0 41 29 69.5t73 28.5q42 0 67.5 -23t25.5 -55q0 -15 -6 -31t-6 -22q0 -11 9 -17q12 -8 34 -8q41 0 59 33.5t24 182.5q7 181 15 268q6 61 23 144l108 534h-141l24 122q97 0 144 31
t81 118q56 147 78 185q45 76 105.5 113t140.5 37q108 0 162.5 -38.5t54.5 -95.5q0 -50 -29 -82t-74 -32q-41 0 -66.5 23.5t-25.5 55.5q0 17 13 46q7 17 7 29q0 18 -14 30t-39 12q-32 0 -55 -18.5t-32.5 -54t-13.5 -155.5q-5 -107 -14 -204h152l-23 -122h-153z" />
    <glyph glyph-name="approxequal" unicode="&#x2248;" horiz-adv-x="1124" 
d="M1049 1096h63q-2 -163 -82.5 -253t-197.5 -90q-56 0 -117.5 17.5t-259.5 101.5q-142 60 -207 60q-66 0 -109.5 -40.5t-61.5 -137.5h-64q8 167 80 255t192 88q57 0 110 -14q100 -28 273 -104q96 -41 144 -54q30 -8 65 -8q68 0 115 46t57 133zM1049 587h63
q-2 -163 -82.5 -253t-196.5 -90q-56 0 -118 17.5t-260 100.5q-141 60 -207 60t-110 -40.5t-61 -136.5h-64q8 166 80 254.5t191 88.5q58 0 110 -15q100 -27 274 -103q97 -42 144 -55q30 -8 65 -8q68 0 115 46t57 134z" />
    <glyph glyph-name="increment" unicode="&#x2206;" horiz-adv-x="1253" 
d="M1226 0h-1200l628 1387zM990 82l-399 967l-440 -967h839z" />
    <glyph glyph-name="guillemotleft" unicode="&#xab;" horiz-adv-x="1024" 
d="M408 994h101l-173 -429l173 -430q-7 -1 -10 -6h-91l-380 436zM881 994h102l-173 -429l173 -436h-102l-372 436z" />
    <glyph glyph-name="guillemotright" unicode="&#xbb;" horiz-adv-x="1024" 
d="M28 995h102l373 -435l-373 -431h-102l174 431zM503 995h100l378 -435l-378 -431h-100l173 431z" />
    <glyph glyph-name="ellipsis" unicode="&#x2026;" horiz-adv-x="2048" 
d="M1022 319q71 0 122 -51t51 -123q0 -73 -51 -124t-122 -51t-121.5 51t-50.5 124q0 72 50.5 123t121.5 51zM1703 319q72 0 122.5 -51t50.5 -124q0 -72 -50.5 -123t-121.5 -51q-72 0 -122.5 51t-50.5 123q0 73 50.5 124t121.5 51zM343 314q70 0 120 -50t50 -122
q0 -71 -50 -121.5t-120 -50.5t-120 50t-50 122t50 122t120 50z" />
    <glyph glyph-name="nbspace" unicode="&#xa0;" horiz-adv-x="588" 
 />
    <glyph glyph-name="Agrave" unicode="&#xc0;" horiz-adv-x="1554" 
d="M833 1515l555 -1326q24 -56 52 -76t74 -20h54v-93h-694v93h65q77 0 106 17t29 45q0 22 -12 51l-115 274h-552l-54 -125q-33 -78 -33 -116q0 -65 48 -105.5t131 -40.5h47v-93h-561v93h32q54 0 95 34q58 48 90 123l531 1265h112zM672 1141l-236 -563h470zM995 1617l-26 -25
l-287 129q-75 34 -99 61.5t-24 64.5q0 42 35 76t82 34q43 0 79 -23.5t89 -98.5z" />
    <glyph glyph-name="Atilde" unicode="&#xc3;" horiz-adv-x="1554" 
d="M833 1515l555 -1326q24 -56 52 -76t74 -20h54v-93h-694v93h65q77 0 106 17t29 45q0 22 -12 51l-115 274h-552l-54 -125q-33 -78 -33 -116q0 -65 48 -105.5t131 -40.5h47v-93h-561v93h32q54 0 95 34q58 48 90 123l531 1265h112zM672 1141l-236 -563h470zM1101 1907h27
q-5 -118 -71.5 -190t-151.5 -72q-35 0 -73 9t-165 56q-63 23 -96 23q-82 0 -116 -89h-23q14 127 76.5 192.5t149.5 65.5q53 0 178 -44q113 -41 146 -41q98 0 119 90z" />
    <glyph glyph-name="Otilde" unicode="&#xd5;" horiz-adv-x="1706" 
d="M846 1517q209 0 385.5 -101t275 -275.5t98.5 -393.5q0 -333 -217.5 -555t-539.5 -222q-214 0 -383.5 101t-267.5 272.5t-98 398.5q0 337 215 556t532 219zM852 1421q-119 0 -206.5 -65.5t-139 -211.5t-51.5 -400q0 -267 47.5 -404.5t138.5 -203.5t212 -66
q179 0 286 153.5t107 533.5q0 266 -46 399.5t-137 199t-211 65.5zM1178 1907h27q-5 -118 -71.5 -190t-151.5 -72q-35 0 -73 9t-165 56q-63 23 -96 23q-82 0 -116 -89h-23q14 127 76.5 192.5t149.5 65.5q53 0 178 -44q113 -41 146 -41q98 0 119 90z" />
    <glyph glyph-name="OE" unicode="&#x152;" horiz-adv-x="2048" 
d="M1921 1479l30 -512h-84q-42 237 -134.5 328t-249.5 91h-101q-32 0 -50 -21t-18 -68v-493h30q103 0 170 82q50 62 66 197h87v-672h-87q-11 163 -73 234t-163 71h-30v-536q0 -43 21 -65t54 -22h108q101 0 185 50.5t140 145t87 273.5h88l-21 -562h-969q-27 0 -97 -5
q-115 -8 -187 -8q-209 0 -359.5 86.5t-236.5 254t-86 386.5q0 226 92 405.5t247 273t352 93.5l132 -5l63 -2h994zM1007 1184q0 98 -55.5 149.5t-176.5 51.5q-170 0 -279 -151t-109 -481q0 -341 125 -521q103 -147 273 -147q116 0 169 52t53 172v875z" />
    <glyph glyph-name="oe" unicode="&#x153;" horiz-adv-x="1858" 
d="M985 860q142 128 300 128q122 0 224.5 -64t156.5 -174.5t54 -289.5h-612q5 -190 79.5 -284t187.5 -94q80 0 146.5 47t137.5 167l72 -44q-74 -149 -174.5 -215.5t-245.5 -66.5q-93 0 -168 27t-164 96q-87 -67 -167.5 -95t-175.5 -28q-227 0 -364.5 138.5t-137.5 364.5
q0 229 139.5 372t358.5 143q105 0 189 -30t164 -98zM640 901q-97 0 -148.5 -85.5t-51.5 -348.5q0 -239 51 -323.5t147 -84.5q101 0 154.5 84.5t53.5 334.5q0 246 -55 334.5t-151 88.5zM1108 548h258q46 0 70.5 25t24.5 80q0 116 -55 191q-40 55 -110 55q-81 0 -132 -78
t-56 -273z" />
    <glyph glyph-name="endash" unicode="&#x2013;" horiz-adv-x="1024" 
d="M-25 588h1024v-131h-1024v131z" />
    <glyph glyph-name="emdash" unicode="&#x2014;" horiz-adv-x="2048" 
d="M-33 589h2048v-127h-2048v127z" />
    <glyph glyph-name="quotedblleft" unicode="&#x201c;" horiz-adv-x="985" 
d="M361 1505l34 -63q-116 -64 -171.5 -134.5t-55.5 -117.5q0 -32 31 -32l26 2l31 2q72 0 121 -49t49 -121q0 -73 -49.5 -122t-125.5 -49q-92 0 -156 72t-64 185q0 116 83 230.5t247 196.5zM883 1504l34 -62q-117 -65 -171.5 -135t-54.5 -117q0 -32 31 -32l26 2l30 2
q72 0 121 -49t49 -121q0 -74 -49 -122.5t-125 -48.5q-93 0 -157 72t-64 185q0 115 83 230t247 196z" />
    <glyph glyph-name="quotedblright" unicode="&#x201d;" horiz-adv-x="985" 
d="M609 827l-34 62q117 66 171.5 136t54.5 117q0 32 -31 32l-26 -3l-31 -2q-72 0 -121 49t-49 121q0 74 49.5 123t125.5 49q92 0 156 -72t64 -186q0 -115 -82.5 -229.5t-246.5 -196.5zM86 827l-34 62q117 66 172 135.5t55 117.5q0 32 -32 32l-26 -3l-30 -2q-72 0 -121 49
t-49 121q0 74 49 123t125 49q93 0 157 -72t64 -186q0 -115 -83 -229.5t-247 -196.5z" />
    <glyph glyph-name="quoteleft" unicode="&#x2018;" horiz-adv-x="494" 
d="M403 1517l33 -61q-114 -58 -172 -131t-58 -124q0 -29 29 -29l28 3q21 3 33 3q67 0 117.5 -50.5t50.5 -120.5q0 -71 -50.5 -121.5t-124.5 -50.5q-91 0 -155.5 72t-64.5 183q0 116 87.5 235t246.5 192z" />
    <glyph glyph-name="quoteright" unicode="&#x2019;" horiz-adv-x="494" 
d="M90 838l-33 61q112 56 171 130t59 124q0 30 -29 30l-28 -3q-21 -4 -33 -4q-67 0 -117.5 50.5t-50.5 119.5q0 70 50.5 120.5t124.5 50.5q91 0 155.5 -72t64.5 -182q0 -116 -87 -234t-247 -191z" />
    <glyph glyph-name="divide" unicode="&#xf7;" horiz-adv-x="1124" 
d="M564 1116q43 0 73 -30t30 -72t-30 -72t-73 -30q-42 0 -72 30t-30 72t30 72t72 30zM16 744h1093v-132h-1093v132zM563 454q43 0 73 -30.5t30 -72.5q0 -43 -30 -73t-73 -30q-42 0 -72.5 30t-30.5 73q0 42 30 72.5t73 30.5z" />
    <glyph glyph-name="lozenge" unicode="&#x25ca;" horiz-adv-x="1012" 
d="M549 1422l418 -713l-418 -709h-111l-391 709l391 713h111zM495 1325l-340 -616l340 -615l359 615z" />
    <glyph glyph-name="ydieresis" unicode="&#xff;" horiz-adv-x="1251" 
d="M68 936h553v-86h-53q-48 0 -68 -14t-20 -36q0 -25 17 -57l233 -454l196 411q16 34 16 62q0 40 -30 64t-88 24h-29v86h407v-86q-60 -2 -95 -26.5t-62 -80.5l-373 -781q-95 -200 -201 -291q-81 -68 -182 -68q-105 0 -166 51t-61 126q0 56 35.5 91.5t89.5 35.5
q55 0 90 -34.5t35 -86.5q0 -17 -7 -43q-4 -15 -4 -23q0 -24 26 -24q46 0 115 74.5t151 237.5l-399 768q-22 43 -45 58.5t-55 15.5h-26v86zM908 1434q56 0 95 -39t39 -94q0 -56 -39.5 -95t-94.5 -39t-94.5 39t-39.5 95q0 55 39 94t95 39zM469 1433q55 0 94 -39t39 -94
t-39 -94t-94 -39t-94 39t-39 94q0 56 39 94.5t94 38.5z" />
    <glyph glyph-name="Ydieresis" unicode="&#x178;" horiz-adv-x="1479" 
d="M-10 1479h736v-93h-102q-54 0 -75 -13.5t-21 -35.5q0 -25 18 -57l308 -530l216 430q27 53 27 98q0 50 -35 79t-106 29h-45v93h572v-93q-99 -2 -159 -39.5t-102 -120.5l-297 -587v-465q0 -41 22.5 -61t70.5 -20h153v-93h-810v93h152q52 0 73 19.5t21 61.5v413l-398 685
q-38 66 -80.5 90t-106.5 24h-32v93zM968 1910q56 0 95 -39t39 -94q0 -56 -39.5 -95t-94.5 -39t-94.5 39t-39.5 95q0 55 39 94t95 39zM529 1909q55 0 94 -39t39 -94t-39 -94t-94 -39t-94 39t-39 94q0 56 39 94.5t94 38.5z" />
    <glyph glyph-name="fraction" unicode="&#x2044;" horiz-adv-x="342" 
d="M621 1395h83l-983 -1395h-83z" />
    <glyph glyph-name="fraction" unicode="&#x2215;" horiz-adv-x="342" 
d="M621 1395h83l-983 -1395h-83z" />
    <glyph glyph-name="Euro" unicode="&#x20ac;" horiz-adv-x="1176" 
d="M172 852q39 264 182.5 412.5t347.5 148.5q148 0 248 -117l54 113h71l23 -432h-76q-62 197 -137 269.5t-174 72.5q-211 0 -242 -467h344l-45 -107h-303q-2 -26 -2 -79v-21h350l-45 -106h-303q5 -231 72 -349t188 -118q107 0 188.5 79t114.5 222h80q-72 -400 -403 -400
q-224 0 -367.5 148.5t-169.5 417.5h-141l41 106h94v21q0 53 2 79h-137l41 107h104z" />
    <glyph glyph-name="guilsinglleft" unicode="&#x2039;" horiz-adv-x="682" 
d="M471 984h107l-178 -432l178 -437h-107l-381 437z" />
    <glyph glyph-name="guilsinglright" unicode="&#x203a;" horiz-adv-x="682" 
d="M92 987h106l381 -433l-381 -436h-106l176 436z" />
    <glyph glyph-name="fi" unicode="&#xf001;" horiz-adv-x="1403" 
d="M518 936h301q167 0 370 26v-786q0 -39 23 -61t60 -22h63v-93h-564v93h48q58 0 83 21.5t25 61.5v549q0 50 -26 77t-64 27h-319v-653q0 -40 22 -61.5t59 -21.5h71v-93h-596v93h87q46 0 69.5 22.5t23.5 60.5v653h-167v107h167q7 207 69.5 325.5t187.5 187t290 68.5
q160 0 251 -71t91 -173q0 -66 -39.5 -108t-101.5 -42t-103 37.5t-41 89.5q0 25 10 45t50 61q15 15 15 26q0 18 -28 32q-39 22 -106 22q-132 0 -206.5 -95t-74.5 -326v-79z" />
    <glyph glyph-name="fi" unicode="&#xfb01;" horiz-adv-x="1403" 
d="M518 936h301q167 0 370 26v-786q0 -39 23 -61t60 -22h63v-93h-564v93h48q58 0 83 21.5t25 61.5v549q0 50 -26 77t-64 27h-319v-653q0 -40 22 -61.5t59 -21.5h71v-93h-596v93h87q46 0 69.5 22.5t23.5 60.5v653h-167v107h167q7 207 69.5 325.5t187.5 187t290 68.5
q160 0 251 -71t91 -173q0 -66 -39.5 -108t-101.5 -42t-103 37.5t-41 89.5q0 25 10 45t50 61q15 15 15 26q0 18 -28 32q-39 22 -106 22q-132 0 -206.5 -95t-74.5 -326v-79z" />
    <glyph glyph-name="fl" unicode="&#xf002;" horiz-adv-x="1403" 
d="M260 936q15 303 147 433q150 148 408 148q54 0 116 -11q38 -7 53 -7q58 0 211 21v-1346q0 -39 23.5 -60t68.5 -21h53v-93h-563v93h55q55 0 78 22.5t23 69.5v644h-407v-644q0 -47 23.5 -69.5t68.5 -22.5h59v-93h-597v93h64q64 0 90 23t26 69v644h-167v107h167zM933 1138
q-69 43 -69 116q0 49 53 93q22 18 22 32q0 21 -30.5 38t-98.5 17q-132 0 -208 -90.5t-76 -266.5v-141h407v202z" />
    <glyph glyph-name="fl" unicode="&#xfb02;" horiz-adv-x="1403" 
d="M260 936q15 303 147 433q150 148 408 148q54 0 116 -11q38 -7 53 -7q58 0 211 21v-1346q0 -39 23.5 -60t68.5 -21h53v-93h-563v93h55q55 0 78 22.5t23 69.5v644h-407v-644q0 -47 23.5 -69.5t68.5 -22.5h59v-93h-597v93h64q64 0 90 23t26 69v644h-167v107h167zM933 1138
q-69 43 -69 116q0 49 53 93q22 18 22 32q0 21 -30.5 38t-98.5 17q-132 0 -208 -90.5t-76 -266.5v-141h407v202z" />
    <glyph glyph-name="daggerdbl" unicode="&#x2021;" horiz-adv-x="1024" 
d="M534 981q13 -81 112 -176q-66 -75 -90.5 -129t-24.5 -110q0 -111 115 -247q-91 -83 -112 -176q50 1 86 9q26 6 91 37q67 31 95.5 38.5t58.5 7.5q59 0 92.5 -35t33.5 -97q0 -67 -34 -103.5t-92 -36.5q-52 0 -158 50q-63 30 -91 36.5t-82 6.5q2 -39 9.5 -63t38.5 -79
q32 -59 41 -88q11 -38 11 -73q0 -67 -41.5 -108.5t-105.5 -41.5q-61 0 -101 41.5t-40 109.5q0 33 9.5 64.5t41.5 90.5q31 55 39.5 80.5t13.5 66.5q-54 0 -88 -8q-25 -5 -88 -35q-106 -50 -159 -50q-58 0 -92 36.5t-34 102.5q0 63 34 98t94 35q30 0 58.5 -7.5t96.5 -38.5
q67 -31 97 -38.5t81 -7.5q-11 48 -35.5 87t-80.5 89q65 77 89.5 133t24.5 110q0 110 -114 243q95 89 116 176q-53 0 -90 -9q-23 -5 -87 -35q-67 -32 -96 -39.5t-59 -7.5q-60 0 -93.5 35t-33.5 97q0 67 34 103t92 36q52 0 158 -50q64 -29 91.5 -36t83.5 -7q-5 41 -13.5 66
t-38.5 80q-32 58 -41 89t-9 64q0 67 39.5 108.5t101.5 41.5q64 0 105.5 -41.5t41.5 -107.5q0 -34 -10 -67.5t-43 -91.5q-32 -54 -39.5 -78t-9.5 -63q52 0 86 8q25 6 88 35q106 50 159 50q58 0 91.5 -36.5t33.5 -101.5q0 -63 -33.5 -98t-92.5 -35q-31 0 -59.5 7.5t-95.5 39.5
q-65 30 -89 36q-36 8 -88 8z" />
    <glyph glyph-name="periodcentered" unicode="&#x2219;" horiz-adv-x="569" 
d="M287 947q65 0 111 -46.5t46 -111.5q0 -66 -46 -112t-111 -46q-66 0 -112 46.5t-46 111.5t46 111.5t112 46.5z" />
    <glyph glyph-name="quotesinglbase" unicode="&#x201a;" horiz-adv-x="494" 
d="M132 -346l-33 60q113 57 171.5 131t58.5 124q0 29 -30 29l-27 -3q-20 -3 -33 -3q-67 0 -117.5 50.5t-50.5 120.5q0 71 50.5 122t124.5 51q91 0 155.5 -72.5t64.5 -183.5q0 -116 -87.5 -235t-246.5 -191z" />
    <glyph glyph-name="quotedblbase" unicode="&#x201e;" horiz-adv-x="985" 
d="M105 -352l-33 60q113 57 171.5 131t58.5 124q0 29 -30 29l-27 -3q-20 -3 -33 -3q-67 0 -117.5 50.5t-50.5 120.5q0 71 50.5 122t124.5 51q91 0 155.5 -72.5t64.5 -183.5q0 -116 -87.5 -235t-246.5 -191zM627 -352l-33 60q113 57 171.5 131t58.5 124q0 29 -30 29l-27 -3
q-20 -3 -33 -3q-67 0 -117.5 50.5t-50.5 120.5q0 71 50.5 122t124.5 51q91 0 155.5 -72.5t64.5 -183.5q0 -116 -87.5 -235t-246.5 -191z" />
    <glyph glyph-name="perthousand" unicode="&#x2030;" horiz-adv-x="2048" 
d="M372 1426q122 0 206.5 -100t84.5 -265t-85.5 -263.5t-207.5 -98.5q-119 0 -203.5 100t-84.5 261q0 163 85.5 264.5t204.5 101.5zM372 1370q-45 0 -66 -51q-28 -66 -28 -312q0 -149 31 -208q23 -45 65 -45q44 0 68.5 56t24.5 286q0 169 -30 230q-22 44 -65 44zM1123 1395
h83l-982 -1395h-83zM987 700q122 0 206.5 -100t84.5 -266q0 -165 -85.5 -263.5t-207.5 -98.5q-119 0 -203.5 100.5t-84.5 260.5q0 164 85.5 265.5t204.5 101.5zM987 644q-45 0 -66 -51q-28 -67 -28 -313q0 -148 31 -207q23 -45 65 -45q44 0 69 56t25 286q0 169 -30 229
q-22 45 -66 45zM1675 700q122 0 206.5 -100t84.5 -266q0 -165 -85.5 -263.5t-207.5 -98.5q-119 0 -203.5 100.5t-84.5 260.5q0 164 85.5 265.5t204.5 101.5zM1675 644q-45 0 -67 -51q-27 -67 -27 -313q0 -148 31 -207q23 -45 65 -45q44 0 68.5 56t24.5 286q0 169 -30 229
q-22 45 -65 45z" />
    <glyph glyph-name="Acircumflex" unicode="&#xc2;" horiz-adv-x="1554" 
d="M833 1515l555 -1326q24 -56 52 -76t74 -20h54v-93h-694v93h65q77 0 106 17t29 45q0 22 -12 51l-115 274h-552l-54 -125q-33 -78 -33 -116q0 -65 48 -105.5t131 -40.5h47v-93h-561v93h32q54 0 95 34q58 48 90 123l531 1265h112zM672 1141l-236 -563h470zM634 1963h297
l183 -376h-36l-295 219l-296 -219h-36z" />
    <glyph glyph-name="Ecircumflex" unicode="&#xca;" horiz-adv-x="1554" 
d="M71 1479h1288l29 -517h-88q-31 183 -77.5 263.5t-122 120.5t-197.5 40h-202q-47 0 -68 -18.5t-21 -51.5v-513h69q119 0 184.5 68t77.5 219h90v-688h-90q-9 171 -75 241t-199 70h-57v-547q0 -36 21 -51q32 -22 92 -22h178q183 0 299 117t144 353h90l-22 -563h-1343v93h133
q45 0 68.5 23t23.5 62v1138q0 36 -23.5 53t-84.5 17h-117v93zM634 1963h297l183 -376h-36l-295 219l-296 -219h-36z" />
    <glyph glyph-name="Aacute" unicode="&#xc1;" horiz-adv-x="1554" 
d="M833 1515l555 -1326q24 -56 52 -76t74 -20h54v-93h-694v93h65q77 0 106 17t29 45q0 22 -12 51l-115 274h-552l-54 -125q-33 -78 -33 -116q0 -65 48 -105.5t131 -40.5h47v-93h-561v93h32q54 0 95 34q58 48 90 123l531 1265h112zM672 1141l-236 -563h470zM603 1591l-28 23
l162 231q77 110 158 110q45 0 81.5 -33.5t36.5 -70.5q0 -40 -26.5 -70.5t-119.5 -71.5z" />
    <glyph glyph-name="Edieresis" unicode="&#xcb;" horiz-adv-x="1554" 
d="M71 1479h1288l29 -517h-88q-31 183 -77.5 263.5t-122 120.5t-197.5 40h-202q-47 0 -68 -18.5t-21 -51.5v-513h69q119 0 184.5 68t77.5 219h90v-688h-90q-9 171 -75 241t-199 70h-57v-547q0 -36 21 -51q32 -22 92 -22h178q183 0 299 117t144 353h90l-22 -563h-1343v93h133
q45 0 68.5 23t23.5 62v1138q0 36 -23.5 53t-84.5 17h-117v93zM1006 1910q56 0 95 -39t39 -94q0 -56 -39.5 -95t-94.5 -39t-94.5 39t-39.5 95q0 55 39 94t95 39zM567 1909q55 0 94 -39t39 -94t-39 -94t-94 -39t-94 39t-39 94q0 56 39 94.5t94 38.5z" />
    <glyph glyph-name="Egrave" unicode="&#xc8;" horiz-adv-x="1554" 
d="M71 1479h1288l29 -517h-88q-31 183 -77.5 263.5t-122 120.5t-197.5 40h-202q-47 0 -68 -18.5t-21 -51.5v-513h69q119 0 184.5 68t77.5 219h90v-688h-90q-9 171 -75 241t-199 70h-57v-547q0 -36 21 -51q32 -22 92 -22h178q183 0 299 117t144 353h90l-22 -563h-1343v93h133
q45 0 68.5 23t23.5 62v1138q0 36 -23.5 53t-84.5 17h-117v93zM996 1617l-26 -25l-287 129q-75 34 -99 61.5t-24 64.5q0 42 35 76t82 34q43 0 79 -23.5t89 -98.5z" />
    <glyph glyph-name="Iacute" unicode="&#xcd;" horiz-adv-x="909" 
d="M75 1479h758v-93h-137q-44 0 -64 -17.5t-20 -51.5v-1145q0 -40 21 -57q27 -22 78 -22h122v-93h-758v93h116q60 0 84.5 20t24.5 59v1132q0 42 -22.5 62t-70.5 20h-132v93zM300 1591l-28 23l162 231q77 110 158 110q45 0 81.5 -33.5t36.5 -70.5q0 -40 -26.5 -70.5
t-119.5 -71.5z" />
    <glyph glyph-name="Icircumflex" unicode="&#xce;" horiz-adv-x="909" 
d="M75 1479h758v-93h-137q-44 0 -64 -17.5t-20 -51.5v-1145q0 -40 21 -57q27 -22 78 -22h122v-93h-758v93h116q60 0 84.5 20t24.5 59v1132q0 42 -22.5 62t-70.5 20h-132v93zM312 1963h297l183 -376h-36l-295 219l-296 -219h-36z" />
    <glyph glyph-name="Idieresis" unicode="&#xcf;" horiz-adv-x="909" 
d="M75 1479h758v-93h-137q-44 0 -64 -17.5t-20 -51.5v-1145q0 -40 21 -57q27 -22 78 -22h122v-93h-758v93h116q60 0 84.5 20t24.5 59v1132q0 42 -22.5 62t-70.5 20h-132v93zM683 1910q56 0 95 -39t39 -94q0 -56 -39.5 -95t-94.5 -39t-94.5 39t-39.5 95q0 55 39 94t95 39z
M244 1909q55 0 94 -39t39 -94t-39 -94t-94 -39t-94 39t-39 94q0 56 39 94.5t94 38.5z" />
    <glyph glyph-name="Igrave" unicode="&#xcc;" horiz-adv-x="909" 
d="M75 1479h758v-93h-137q-44 0 -64 -17.5t-20 -51.5v-1145q0 -40 21 -57q27 -22 78 -22h122v-93h-758v93h116q60 0 84.5 20t24.5 59v1132q0 42 -22.5 62t-70.5 20h-132v93zM673 1617l-26 -25l-287 129q-75 34 -99 61.5t-24 64.5q0 42 35 76t82 34q43 0 79 -23.5t89 -98.5z
" />
    <glyph glyph-name="Oacute" unicode="&#xd3;" horiz-adv-x="1706" 
d="M846 1517q209 0 385.5 -101t275 -275.5t98.5 -393.5q0 -333 -217.5 -555t-539.5 -222q-214 0 -383.5 101t-267.5 272.5t-98 398.5q0 337 215 556t532 219zM852 1421q-119 0 -206.5 -65.5t-139 -211.5t-51.5 -400q0 -267 47.5 -404.5t138.5 -203.5t212 -66
q179 0 286 153.5t107 533.5q0 266 -46 399.5t-137 199t-211 65.5zM697 1591l-28 23l162 231q77 110 158 110q45 0 81.5 -33.5t36.5 -70.5q0 -40 -26.5 -70.5t-119.5 -71.5z" />
    <glyph glyph-name="Ocircumflex" unicode="&#xd4;" horiz-adv-x="1706" 
d="M846 1517q209 0 385.5 -101t275 -275.5t98.5 -393.5q0 -333 -217.5 -555t-539.5 -222q-214 0 -383.5 101t-267.5 272.5t-98 398.5q0 337 215 556t532 219zM852 1421q-119 0 -206.5 -65.5t-139 -211.5t-51.5 -400q0 -267 47.5 -404.5t138.5 -203.5t212 -66
q179 0 286 153.5t107 533.5q0 266 -46 399.5t-137 199t-211 65.5zM710 1963h297l183 -376h-36l-295 219l-296 -219h-36z" />
    <glyph glyph-name="apple" unicode="&#xf000;" horiz-adv-x="1618" 
 />
    <glyph glyph-name="Ograve" unicode="&#xd2;" horiz-adv-x="1706" 
d="M846 1517q209 0 385.5 -101t275 -275.5t98.5 -393.5q0 -333 -217.5 -555t-539.5 -222q-214 0 -383.5 101t-267.5 272.5t-98 398.5q0 337 215 556t532 219zM852 1421q-119 0 -206.5 -65.5t-139 -211.5t-51.5 -400q0 -267 47.5 -404.5t138.5 -203.5t212 -66
q179 0 286 153.5t107 533.5q0 266 -46 399.5t-137 199t-211 65.5zM1071 1617l-26 -25l-287 129q-75 34 -99 61.5t-24 64.5q0 42 35 76t82 34q43 0 79 -23.5t89 -98.5z" />
    <glyph glyph-name="Uacute" unicode="&#xda;" horiz-adv-x="1706" 
d="M63 1479h744v-93h-151q-32 0 -50 -21.5t-18 -65.5v-818q0 -173 92 -265.5t254 -92.5q119 0 216 51q71 38 116.5 125t45.5 219v628q0 120 -53.5 180t-143.5 60h-22v93h564v-93h-39q-88 0 -134 -66.5t-46 -164.5v-681q0 -227 -152 -365q-153 -139 -420 -139
q-191 0 -332.5 62.5t-201 161t-59.5 260.5v831q0 58 -22 79.5t-79 21.5h-109v93zM758 1591l-28 23l162 231q77 110 158 110q45 0 81.5 -33.5t36.5 -70.5q0 -40 -26.5 -70.5t-119.5 -71.5z" />
    <glyph glyph-name="Ucircumflex" unicode="&#xdb;" horiz-adv-x="1706" 
d="M63 1479h744v-93h-151q-32 0 -50 -21.5t-18 -65.5v-818q0 -173 92 -265.5t254 -92.5q119 0 216 51q71 38 116.5 125t45.5 219v628q0 120 -53.5 180t-143.5 60h-22v93h564v-93h-39q-88 0 -134 -66.5t-46 -164.5v-681q0 -227 -152 -365q-153 -139 -420 -139
q-191 0 -332.5 62.5t-201 161t-59.5 260.5v831q0 58 -22 79.5t-79 21.5h-109v93zM710 1963h297l183 -376h-36l-295 219l-296 -219h-36z" />
    <glyph glyph-name="Ugrave" unicode="&#xd9;" horiz-adv-x="1706" 
d="M63 1479h744v-93h-151q-32 0 -50 -21.5t-18 -65.5v-818q0 -173 92 -265.5t254 -92.5q119 0 216 51q71 38 116.5 125t45.5 219v628q0 120 -53.5 180t-143.5 60h-22v93h564v-93h-39q-88 0 -134 -66.5t-46 -164.5v-681q0 -227 -152 -365q-153 -139 -420 -139
q-191 0 -332.5 62.5t-201 161t-59.5 260.5v831q0 58 -22 79.5t-79 21.5h-109v93zM1071 1617l-26 -25l-287 129q-75 34 -99 61.5t-24 64.5q0 42 35 76t82 34q43 0 79 -23.5t89 -98.5z" />
    <glyph glyph-name="dotlessi" unicode="&#x131;" horiz-adv-x="758" 
d="M114 936l416 19v-795q0 -32 20.5 -49.5t62.5 -17.5h63v-93h-562v93h62q50 0 70.5 23t20.5 80v542q0 51 -29.5 79t-81.5 28h-42v91z" />
    <glyph glyph-name="circumflex" unicode="&#x2c6;" horiz-adv-x="682" 
d="M198 1487h297l183 -376h-36l-295 219l-296 -219h-36z" />
    <glyph glyph-name="tilde" unicode="&#x2dc;" horiz-adv-x="682" 
d="M665 1431h27q-5 -118 -71.5 -190t-151.5 -72q-35 0 -73 9t-165 56q-63 23 -96 23q-82 0 -116 -89h-23q14 127 76.5 192.5t149.5 65.5q53 0 178 -44q113 -41 146 -41q98 0 119 90z" />
    <glyph glyph-name="macron" unicode="&#x2c9;" horiz-adv-x="682" 
d="M-12 1386h706v-176h-706v176z" />
    <glyph glyph-name="breve" unicode="&#x2d8;" horiz-adv-x="682" 
d="M573 1454h63q-19 -154 -105.5 -239t-205.5 -85q-116 0 -200.5 88.5t-93.5 235.5h66q22 -65 78.5 -97t164.5 -32q92 0 146.5 31t86.5 98z" />
    <glyph glyph-name="dotaccent" unicode="&#x2d9;" horiz-adv-x="682" 
d="M341 1434q55 0 94 -39t39 -94q0 -56 -39 -95t-94 -39q-56 0 -95 39t-39 95q0 55 39 94t95 39z" />
    <glyph glyph-name="ring" unicode="&#x2da;" horiz-adv-x="682" 
d="M334 1502q88 0 150 -62t62 -150q0 -87 -62 -149t-150 -62q-87 0 -149 62t-62 150q0 87 62 149t149 62zM335 1409q-49 0 -84 -35t-35 -84t35 -84t84 -35t84 35t35 84t-35 84t-84 35z" />
    <glyph glyph-name="cedilla" unicode="&#xb8;" horiz-adv-x="682" 
d="M215 24h176l-31 -46q88 -11 133 -57t45 -112q0 -83 -85 -143t-262 -60q-72 0 -162 13v89l41 -1l71 -1q116 0 169 27q36 19 36 53q0 31 -40 49q-59 26 -213 27z" />
    <glyph glyph-name="hungarumlaut" unicode="&#x2dd;" horiz-adv-x="682" 
d="M105 1116l-28 23l162 231q77 110 158 110q45 0 81.5 -33.5t36.5 -70.5q0 -40 -26.5 -70.5t-119.5 -71.5zM497 1116l-28 23l161 231q77 110 158 110q46 0 82.5 -33.5t36.5 -70.5q0 -40 -27 -70.5t-119 -71.5z" />
    <glyph glyph-name="ogonek" unicode="&#x2db;" horiz-adv-x="682" 
d="M285 17h88q-96 -71 -96 -155q0 -55 36 -110.5t95 -85t146 -29.5l30 -34q-90 -71 -199 -71q-120 0 -203.5 74.5t-83.5 173.5q0 68 46 130.5t141 106.5z" />
    <glyph glyph-name="caron" unicode="&#x2c7;" horiz-adv-x="682" 
d="M627 1479l38 6l-182 -381h-298l-182 375h36l296 -215z" />
    <glyph glyph-name="Lslash" unicode="&#x141;" horiz-adv-x="1479" 
d="M302 492l-217 -184v115l217 184v701q0 41 -22.5 59.5t-77.5 18.5h-117v93h759v-93h-128q-55 0 -77 -21t-22 -68v-422l357 295v-116l-357 -295v-562q0 -67 21 -85.5t99 -18.5h213q119 0 222 113t158 361h90l-34 -567h-1301v93h130q43 0 65 22t22 62v315z" />
    <glyph glyph-name="lslash" unicode="&#x142;" horiz-adv-x="721" 
d="M241 587l-151 -128v111l151 127v584q0 51 -28 78.5t-76 27.5h-70v92l438 22v-583l148 124v-106l-148 -129v-637q0 -36 23 -56.5t66 -20.5h59v-93h-563v93h64q44 0 65.5 23.5t21.5 71.5v399z" />
    <glyph glyph-name="Scaron" unicode="&#x160;" horiz-adv-x="1366" 
d="M1013 1366l93 132h71l9 -511h-90q-70 220 -199 329.5t-285 109.5q-133 0 -216.5 -72.5t-83.5 -173.5q0 -60 33 -110t106.5 -85.5t257.5 -73.5q215 -45 297 -81q130 -58 195 -153.5t65 -232.5q0 -205 -141 -327q-170 -147 -421 -147q-231 0 -422 161l-117 -146h-73v548h87
q131 -469 532 -469q164 0 255 75.5t91 188.5q0 79 -40 132.5t-124 86.5q-46 18 -228 57q-245 54 -349.5 111.5t-153.5 141t-49 203.5q0 202 135.5 329.5t363.5 127.5q219 0 401 -151zM969 1955l38 6l-182 -381h-298l-182 375h36l296 -215z" />
    <glyph glyph-name="scaron" unicode="&#x161;" horiz-adv-x="1024" 
d="M742 908l66 79h61l20 -320h-81q-64 127 -140.5 178.5t-185.5 51.5q-94 0 -143 -36t-49 -91q0 -54 38 -82q38 -29 208 -63q154 -31 205 -52q97 -39 151.5 -116t54.5 -180q0 -130 -104.5 -218.5t-274.5 -88.5q-82 0 -148.5 19.5t-138.5 68.5l-71 -84h-76l-18 354h83
q106 -268 364 -268q106 0 162 41t56 98q0 52 -35 79t-186 58q-163 33 -222 57q-101 39 -152 108.5t-51 167.5q0 140 93 229.5t249 89.5q76 0 136.5 -18t128.5 -62zM818 1479l38 6l-182 -381h-298l-182 375h36l296 -215z" />
    <glyph glyph-name="Zcaron" unicode="&#x17d;" horiz-adv-x="1366" 
d="M174 1479h1088v-93l-829 -1293h377q98 0 169.5 43.5t125.5 140.5t87 279h91l-28 -556h-1171v93l825 1293h-283q-171 0 -268.5 -95.5t-130.5 -325.5h-87zM970 1955l38 6l-182 -381h-298l-182 375h36l296 -215z" />
    <glyph glyph-name="zcaron" unicode="&#x17e;" horiz-adv-x="1100" 
d="M177 936h809v-90l-559 -753h264q86 0 142.5 62t83.5 219h88l-19 -374h-874v93l558 753h-221q-77 0 -128 -57t-74 -197h-89zM869 1479l38 6l-182 -381h-298l-182 375h36l296 -215z" />
    <glyph glyph-name="brokenbar" unicode="&#xa6;" horiz-adv-x="1241" 
d="M526 1479h189v-675h-189v675zM526 287h189v-675h-189v675z" />
    <glyph glyph-name="Eth" unicode="&#xd0;" horiz-adv-x="1706" 
d="M39 686v107h226v507q0 45 -24 65.5t-82 20.5h-108v93h795q218 0 381.5 -92t257 -262t93.5 -383q0 -221 -85.5 -384.5t-254 -260.5t-362.5 -97h-825v93h123q45 0 68 24.5t23 68.5v500h-226zM584 686v-499q0 -50 20.5 -72t64.5 -22h108q138 0 244 69t152.5 188.5
t46.5 370.5q0 264 -55 404.5t-150.5 200t-279.5 59.5q-100 0 -125.5 -17t-25.5 -62v-513h281v-107h-281z" />
    <glyph glyph-name="eth" unicode="&#xf0;" horiz-adv-x="1251" 
d="M882 875q-19 137 -67.5 231.5t-144.5 183.5l-234 -80l-39 79l197 67q-78 64 -175 115l73 41q126 -42 240 -111l201 64l52 -74l-162 -51q156 -124 250.5 -321.5t94.5 -420.5q0 -201 -69 -342t-192 -213.5t-288 -72.5q-233 0 -383 145t-150 364q0 238 176 385
q148 124 343 124q88 0 157.5 -28t119.5 -85zM629 893q-108 0 -170 -91t-62 -322q0 -240 61.5 -330t169.5 -90q74 0 121.5 37t75.5 127q38 120 38 266q0 226 -44 301q-60 102 -190 102z" />
    <glyph glyph-name="Yacute" unicode="&#xdd;" horiz-adv-x="1479" 
d="M-10 1479h736v-93h-102q-54 0 -75 -13.5t-21 -35.5q0 -25 18 -57l308 -530l216 430q27 53 27 98q0 50 -35 79t-106 29h-45v93h572v-93q-99 -2 -159 -39.5t-102 -120.5l-297 -587v-465q0 -41 22.5 -61t70.5 -20h153v-93h-810v93h152q52 0 73 19.5t21 61.5v413l-398 685
q-38 66 -80.5 90t-106.5 24h-32v93zM617 1591l-28 23l162 231q77 110 158 110q45 0 81.5 -33.5t36.5 -70.5q0 -40 -26.5 -70.5t-119.5 -71.5z" />
    <glyph glyph-name="yacute" unicode="&#xfd;" horiz-adv-x="1251" 
d="M68 936h553v-86h-53q-48 0 -68 -14t-20 -36q0 -25 17 -57l233 -454l196 411q16 34 16 62q0 40 -30 64t-88 24h-29v86h407v-86q-60 -2 -95 -26.5t-62 -80.5l-373 -781q-95 -200 -201 -291q-81 -68 -182 -68q-105 0 -166 51t-61 126q0 56 35.5 91.5t89.5 35.5
q55 0 90 -34.5t35 -86.5q0 -17 -7 -43q-4 -15 -4 -23q0 -24 26 -24q46 0 115 74.5t151 237.5l-399 768q-22 43 -45 58.5t-55 15.5h-26v86zM476 1116l-28 23l162 231q77 110 158 110q45 0 81.5 -33.5t36.5 -70.5q0 -40 -26.5 -70.5t-119.5 -71.5z" />
    <glyph glyph-name="Thorn" unicode="&#xde;" horiz-adv-x="1554" 
d="M625 359v-182q0 -40 22.5 -62t58.5 -22h171v-93h-788v93h132q44 0 66.5 22t22.5 62v1127q0 38 -23 60t-56 22h-142v93h757v-93h-140q-37 0 -59 -22.5t-22 -59.5v-127h304q137 0 218 -27q135 -45 215.5 -145t80.5 -235q0 -128 -77.5 -225.5t-208 -141.5t-258.5 -44h-274z
M625 450h183q97 0 171 40.5t105.5 99.5t31.5 190q0 110 -32.5 174.5t-88.5 95t-164 30.5h-206v-630z" />
    <glyph glyph-name="thorn" unicode="&#xfe;" horiz-adv-x="1366" 
d="M98 1476l408 25v-729q59 95 151.5 147.5t205.5 52.5q181 0 293 -129t112 -365q0 -164 -54 -278t-150.5 -172t-225.5 -58q-103 0 -183 46.5t-149 149.5v-335q0 -66 10 -84.5t37.5 -28t109.5 -10.5v-96h-565v96h30q53 0 71 9.5t28 32.5q7 16 7 81v1431q0 65 -10 87
t-30.5 31.5t-95.5 12.5v83zM738 832q-97 0 -165 -93t-68 -272q0 -177 71.5 -271t163.5 -94q90 0 145 81q72 107 72 288q0 166 -58 263.5t-161 97.5z" />
    <glyph glyph-name="minus" unicode="&#x2212;" horiz-adv-x="1241" 
d="M60 774h1121v-187h-1121v187z" />
    <glyph glyph-name="multiply" unicode="&#xd7;" horiz-adv-x="1331" 
d="M140 1076l133 133l393 -395l392 395l132 -133l-391 -395l391 -389l-132 -133l-392 390l-393 -390l-133 133l393 389z" />
    <glyph glyph-name="onesuperior" unicode="&#xb9;" horiz-adv-x="705" 
d="M106 1361q157 10 279 65h59v-590q0 -32 16 -46q23 -18 63 -18h59v-60h-461v60h49q46 0 64.5 18t18.5 58v401q0 25 -13 36q-17 15 -45 15h-89v61z" />
    <glyph glyph-name="twosuperior" unicode="&#xb2;" horiz-adv-x="705" 
d="M235 884h247q70 0 74 82h57l-14 -254h-584v62q250 199 337 315q58 78 58 145q0 50 -36 83.5t-97 33.5q-50 0 -84 -22.5t-34 -42.5q0 -14 30 -28q66 -30 66 -81q0 -31 -25 -54t-63 -23q-48 0 -79.5 32t-31.5 82q0 81 81 146.5t210 65.5q126 0 193 -52.5t67 -134.5
q0 -74 -46.5 -134t-199.5 -143q-89 -48 -126 -78z" />
    <glyph glyph-name="threesuperior" unicode="&#xb3;" horiz-adv-x="705" 
d="M425 1080q95 -18 142 -63.5t47 -119.5q0 -88 -74.5 -143.5t-224.5 -55.5q-132 0 -200.5 50t-68.5 117q0 44 27.5 71.5t73.5 27.5q43 0 69.5 -23t26.5 -55q0 -31 -38 -67q-18 -16 -18 -27q0 -13 19 -22q30 -15 80 -15q68 0 100 33.5t32 108.5q0 76 -28 109q-29 33 -88 33
l-50 -3l-42 -2q-22 0 -32 9t-10 27q0 20 12 29.5t39 9.5l28 -1l36 -2q60 0 90 32q29 32 29 102q0 63 -30 95t-82 32q-39 0 -60 -12q-15 -9 -15 -23q0 -11 17 -26q31 -28 31 -56q0 -32 -25.5 -55t-65.5 -23q-44 0 -72 26.5t-28 63.5q0 64 67.5 114t184.5 50q121 0 191 -52.5
t70 -127.5q0 -60 -39.5 -104t-120.5 -62z" />
    <glyph glyph-name="onehalf" unicode="&#xbd;" horiz-adv-x="1763" 
d="M173 1361q157 10 279 65h59v-590q0 -32 16 -46q23 -18 63 -18h59v-60h-461v60h49q46 0 64.5 18t18.5 58v401q0 25 -13 36q-17 15 -45 15h-89v61zM1367 1395h83l-983 -1395h-83zM1262 172h247q70 0 74 82h57l-14 -254h-584v62q250 199 337 315q58 78 58 145q0 50 -36 83.5
t-97 33.5q-50 0 -84 -22.5t-34 -42.5q0 -14 30 -28q66 -30 66 -81q0 -31 -25 -54t-63 -23q-48 0 -79.5 32t-31.5 82q0 81 81 146.5t210 65.5q126 0 193 -52.5t67 -134.5q0 -74 -46.5 -134t-199.5 -143q-89 -48 -126 -78z" />
    <glyph glyph-name="onequarter" unicode="&#xbc;" horiz-adv-x="1763" 
d="M173 1361q157 10 279 65h59v-590q0 -32 16 -46q23 -18 63 -18h59v-60h-461v60h49q46 0 64.5 18t18.5 58v401q0 25 -13 36q-17 15 -45 15h-89v61zM1383 1395h83l-983 -1395h-83zM1379 714h82v-475h124v-70h-124v-48q0 -31 14.5 -47t39.5 -16h51v-58h-395v58h38
q38 0 54 15.5t16 47.5v48h-322v70zM1279 513l-241 -274h241v274z" />
    <glyph glyph-name="threequarters" unicode="&#xbe;" horiz-adv-x="1763" 
d="M512 1080q95 -18 142 -63.5t47 -119.5q0 -88 -74.5 -143.5t-224.5 -55.5q-132 0 -200.5 50t-68.5 117q0 44 27.5 71.5t73.5 27.5q43 0 69.5 -23t26.5 -55q0 -31 -38 -67q-18 -16 -18 -27q0 -13 19 -22q30 -15 80 -15q68 0 100 33.5t32 108.5q0 76 -28 109q-29 33 -88 33
l-50 -3l-42 -2q-22 0 -32 9t-10 27q0 20 12 29.5t39 9.5l28 -1l36 -2q60 0 90 32q29 32 29 102q0 63 -30 95t-82 32q-39 0 -60 -12q-15 -9 -15 -23q0 -11 17 -26q31 -28 31 -56q0 -32 -25.5 -55t-65.5 -23q-44 0 -72 26.5t-28 63.5q0 64 67.5 114t184.5 50q121 0 191 -52.5
t70 -127.5q0 -60 -39.5 -104t-120.5 -62zM1384 1395h83l-983 -1395h-83zM1379 714h82v-475h124v-70h-124v-48q0 -31 14.5 -47t39.5 -16h51v-58h-395v58h38q38 0 54 15.5t16 47.5v48h-322v70zM1279 513l-241 -274h241v274z" />
    <glyph glyph-name="franc" unicode="&#x20a3;" horiz-adv-x="1479" 
d="M635 415h241v-107h-241v-123q0 -43 23 -63q33 -29 78 -29h140v-93h-783v93h131q46 0 71 24.5t25 61.5v129h-227v107h227v894q0 43 -24.5 60t-100.5 17h-102v93h1305l15 -510h-90q-24 236 -110.5 326.5t-266.5 90.5h-219q-48 0 -70 -20t-22 -57v-495h80q239 0 276 284h87
v-683h-87q-4 110 -36 173.5t-88.5 99.5t-130.5 36h-101v-309z" />
    <glyph glyph-name="Gbreve" unicode="&#x11e;" horiz-adv-x="1706" 
d="M1311 1517h71l36 -591h-89q-71 265 -192.5 382.5t-270.5 117.5q-114 0 -207.5 -68t-146.5 -212.5t-53 -394.5q0 -281 44 -418t134 -203.5t207 -66.5q154 0 241 87t87 231v135q0 37 -19.5 55.5t-56.5 18.5h-155v91h716v-91h-90q-48 0 -69.5 -19.5t-21.5 -54.5v-545h-78
l-125 249q-84 -130 -195.5 -190t-262.5 -60q-201 0 -366 96t-255 263t-90 401q0 345 212 566t519 221q114 0 203 -33.5t189 -117.5zM1085 1942h63q-19 -154 -105.5 -239t-205.5 -85q-116 0 -200.5 88.5t-93.5 235.5h66q22 -65 78.5 -97t164.5 -32q92 0 146.5 31t86.5 98z
" />
    <glyph glyph-name="gbreve" unicode="&#x11f;" horiz-adv-x="1251" 
d="M870 936q120 143 238 143q60 0 96 -35t36 -90q0 -49 -27.5 -78.5t-69.5 -29.5q-59 0 -85 63q-16 38 -38 38q-28 0 -76 -59q108 -109 108 -230q0 -94 -51 -170t-154.5 -121t-258.5 -45l-107 2q-119 0 -161 -24q-43 -24 -43 -62q0 -33 27 -49q35 -22 112 -22l92 3
q149 8 219 8q233 0 324 -66t91 -183q0 -140 -105 -225q-128 -104 -447 -104q-272 0 -382 63t-110 148q0 53 47 93t199 75q-99 20 -149 68t-50 124q0 69 37.5 117t134.5 85q-92 50 -138.5 119t-46.5 157q0 95 51 171.5t157 122t258 45.5q72 0 140 -13t132 -39zM592 900
q-69 0 -118.5 -64.5t-49.5 -185.5q0 -117 49 -179t120 -62q70 0 120 64t50 180q0 117 -50 182t-121 65zM984 -163q0 59 -66 86q-45 19 -200 19q-280 0 -361 -38t-81 -95q0 -54 63 -90.5t239 -36.5q229 0 330 53q76 41 76 102zM878 1454h63q-19 -154 -105.5 -239t-205.5 -85
q-116 0 -200.5 88.5t-93.5 235.5h66q22 -65 78.5 -97t164.5 -32q92 0 146.5 31t86.5 98z" />
    <glyph glyph-name="Idot" unicode="&#x130;" horiz-adv-x="909" 
d="M75 1479h758v-93h-137q-44 0 -64 -17.5t-20 -51.5v-1145q0 -40 21 -57q27 -22 78 -22h122v-93h-758v93h116q60 0 84.5 20t24.5 59v1132q0 42 -22.5 62t-70.5 20h-132v93zM455 1921q55 0 94 -39t39 -94q0 -56 -39 -95t-94 -39q-56 0 -95 39t-39 95q0 55 39 94t95 39z" />
    <glyph glyph-name="Scedilla" unicode="&#x15e;" horiz-adv-x="1366" 
d="M1013 1366l93 132h71l9 -511h-90q-70 220 -199 329.5t-285 109.5q-133 0 -216.5 -72.5t-83.5 -173.5q0 -60 33 -110t106.5 -85.5t257.5 -73.5q215 -45 297 -81q130 -58 195 -153.5t65 -232.5q0 -205 -141 -327q-170 -147 -421 -147q-231 0 -422 161l-117 -146h-73v548h87
q131 -469 532 -469q164 0 255 75.5t91 188.5q0 79 -40 132.5t-124 86.5q-46 18 -228 57q-245 54 -349.5 111.5t-153.5 141t-49 203.5q0 202 135.5 329.5t363.5 127.5q219 0 401 -151zM605 24h176l-31 -46q88 -11 133 -57t45 -112q0 -83 -85 -143t-262 -60q-72 0 -162 13v89
l41 -1l71 -1q116 0 169 27q36 19 36 53q0 31 -40 49q-59 26 -213 27z" />
    <glyph glyph-name="scedilla" unicode="&#x15f;" horiz-adv-x="1024" 
d="M742 908l66 79h61l20 -320h-81q-64 127 -140.5 178.5t-185.5 51.5q-94 0 -143 -36t-49 -91q0 -54 38 -82q38 -29 208 -63q154 -31 205 -52q97 -39 151.5 -116t54.5 -180q0 -130 -104.5 -218.5t-274.5 -88.5q-82 0 -148.5 19.5t-138.5 68.5l-71 -84h-76l-18 354h83
q106 -268 364 -268q106 0 162 41t56 98q0 52 -35 79t-186 58q-163 33 -222 57q-101 39 -152 108.5t-51 167.5q0 140 93 229.5t249 89.5q76 0 136.5 -18t128.5 -62zM459 24h176l-31 -46q88 -11 133 -57t45 -112q0 -83 -85 -143t-262 -60q-72 0 -162 13v89l41 -1l71 -1
q116 0 169 27q36 19 36 53q0 31 -40 49q-59 26 -213 27z" />
    <glyph glyph-name="Cacute" unicode="&#x106;" horiz-adv-x="1593" 
d="M1266 1368l69 147h74l25 -593h-92q-43 256 -162 380t-272 124q-168 0 -278 -160t-110 -505q0 -365 121 -542q97 -139 286 -139t318 139q93 101 130 298h90q-32 -253 -193 -400t-396 -147q-304 0 -509.5 214.5t-205.5 549.5q0 372 237 594q202 189 473 189
q107 0 198.5 -33.5t196.5 -115.5zM707 1603l-28 23l162 231q77 110 158 110q45 0 81.5 -33.5t36.5 -70.5q0 -40 -26.5 -70.5t-119.5 -71.5z" />
    <glyph glyph-name="cacute" unicode="&#x107;" horiz-adv-x="1139" 
d="M1009 338l78 -37q-61 -158 -188 -244.5t-302 -86.5q-237 0 -370 129.5t-133 348.5q0 236 157.5 388t417.5 152q187 0 286 -75.5t99 -182.5q0 -78 -43.5 -123.5t-114.5 -45.5q-62 0 -98.5 35.5t-36.5 92.5q0 49 40 114q17 27 17 38q0 20 -31 36q-44 25 -115 25
q-132 0 -191 -84q-79 -111 -79 -336t78.5 -316.5t202.5 -91.5q98 0 184.5 65.5t141.5 198.5zM492 1116l-28 23l162 231q77 110 158 110q45 0 81.5 -33.5t36.5 -70.5q0 -40 -26.5 -70.5t-119.5 -71.5z" />
    <glyph glyph-name="Ccaron" unicode="&#x10c;" horiz-adv-x="1593" 
d="M1266 1368l69 147h74l25 -593h-92q-43 256 -162 380t-272 124q-168 0 -278 -160t-110 -505q0 -365 121 -542q97 -139 286 -139t318 139q93 101 130 298h90q-32 -253 -193 -400t-396 -147q-304 0 -509.5 214.5t-205.5 549.5q0 372 237 594q202 189 473 189
q107 0 198.5 -33.5t196.5 -115.5zM1156 1966l38 6l-182 -381h-298l-182 375h36l296 -215z" />
    <glyph glyph-name="ccaron" unicode="&#x10d;" horiz-adv-x="1139" 
d="M1009 338l78 -37q-61 -158 -188 -244.5t-302 -86.5q-237 0 -370 129.5t-133 348.5q0 236 157.5 388t417.5 152q187 0 286 -75.5t99 -182.5q0 -78 -43.5 -123.5t-114.5 -45.5q-62 0 -98.5 35.5t-36.5 92.5q0 49 40 114q17 27 17 38q0 20 -31 36q-44 25 -115 25
q-132 0 -191 -84q-79 -111 -79 -336t78.5 -316.5t202.5 -91.5q98 0 184.5 65.5t141.5 198.5zM904 1479l38 6l-182 -381h-298l-182 375h36l296 -215z" />
    <glyph glyph-name="dmacron" unicode="&#x111;" horiz-adv-x="1366" 
d="M667 1483l465 18v-260h166v-107h-166v-857q0 -94 12.5 -126.5t38.5 -47t100 -14.5v-89l-385 -12l-28 182q-88 -115 -159.5 -153t-178.5 -38q-192 0 -313 129t-121 350q0 244 128 387t318 143q102 0 181.5 -44.5t144.5 -144.5v335h-342v107h342q-2 69 -16 98.5t-37 41
t-95 11.5h-55v91zM635 859q-116 0 -173 -102q-47 -83 -47 -264q0 -151 26 -225.5t74.5 -111t110.5 -36.5q102 0 164 87q83 114 83 292q0 165 -72 262.5t-166 97.5z" />
    <glyph glyph-name="overscore" unicode="&#xaf;" horiz-adv-x="1024" 
d="M-12 1805h1048v-102h-1048v102z" />
    <glyph glyph-name="middot" unicode="&#xb7;" horiz-adv-x="682" 
d="M341 934q55 0 94 -39.5t39 -94.5t-39 -94t-94 -39q-56 0 -95 39t-39 94t39 94.5t95 39.5z" />
    <glyph glyph-name="foursuperior" unicode="&#xf003;" horiz-adv-x="705" 
d="M441 1426h82v-475h124v-70h-124v-48q0 -31 14.5 -47t39.5 -16h51v-58h-395v58h38q38 0 54 15.5t16 47.5v48h-322v70zM341 1225l-241 -274h241v274z" />
    <glyph glyph-name="Abreve" unicode="&#x102;" horiz-adv-x="1554" 
d="M833 1515l555 -1326q24 -56 52 -76t74 -20h54v-93h-694v93h65q77 0 106 17t29 45q0 22 -12 51l-115 274h-552l-54 -125q-33 -78 -33 -116q0 -65 48 -105.5t131 -40.5h47v-93h-561v93h32q54 0 95 34q58 48 90 123l531 1265h112zM672 1141l-236 -563h470zM1000 1945h63
q-19 -154 -105.5 -239t-205.5 -85q-116 0 -200.5 88.5t-93.5 235.5h66q22 -65 78.5 -97t164.5 -32q92 0 146.5 31t86.5 98z" />
    <glyph glyph-name="abreve" unicode="&#x103;" horiz-adv-x="1251" 
d="M1176 116l42 -72q-61 -42 -109.5 -58t-106.5 -16q-86 0 -139 36.5t-97 137.5q-102 -101 -183 -137.5t-183 -36.5q-141 0 -220 65t-79 165q0 151 146 242q117 72 513 144v135q0 80 -53 130.5t-142 50.5q-68 0 -120 -29q-35 -19 -35 -38q0 -10 13 -30q28 -45 28 -89
q0 -56 -37 -90.5t-99 -34.5q-66 0 -106 37.5t-40 96.5q0 97 105 171q131 92 326 92q147 0 261 -46q73 -29 118.5 -101.5t45.5 -178.5v-475q0 -54 20 -78t55 -24q29 0 76 31zM760 499q-214 -29 -289.5 -89.5t-75.5 -159.5q0 -70 35.5 -107.5t99.5 -37.5q99 0 164.5 71
t65.5 194v129zM799 1454h63q-19 -154 -105.5 -239t-205.5 -85q-116 0 -200.5 88.5t-93.5 235.5h66q22 -65 78.5 -97t164.5 -32q92 0 146.5 31t86.5 98z" />
    <glyph glyph-name="Aogonek" unicode="&#x104;" horiz-adv-x="1554" 
d="M833 1515l555 -1326q24 -56 52 -76t74 -20h54v-93h-694v93h65q77 0 106 17t29 45q0 22 -12 51l-115 274h-552l-54 -125q-33 -78 -33 -116q0 -65 48 -105.5t131 -40.5h47v-93h-561v93h32q54 0 95 34q58 48 90 123l531 1265h112zM672 1141l-236 -563h470zM1260 17h88
q-96 -71 -96 -155q0 -55 36 -110.5t95 -85t146 -29.5l30 -34q-90 -71 -199 -71q-120 0 -203.5 74.5t-83.5 173.5q0 68 46 130.5t141 106.5z" />
    <glyph glyph-name="aogonek" unicode="&#x105;" horiz-adv-x="1251" 
d="M1176 116l42 -72q-61 -42 -109.5 -58t-106.5 -16q-86 0 -139 36.5t-97 137.5q-102 -101 -183 -137.5t-183 -36.5q-141 0 -220 65t-79 165q0 151 146 242q117 72 513 144v135q0 80 -53 130.5t-142 50.5q-68 0 -120 -29q-35 -19 -35 -38q0 -10 13 -30q28 -45 28 -89
q0 -56 -37 -90.5t-99 -34.5q-66 0 -106 37.5t-40 96.5q0 97 105 171q131 92 326 92q147 0 261 -46q73 -29 118.5 -101.5t45.5 -178.5v-475q0 -54 20 -78t55 -24q29 0 76 31zM760 499q-214 -29 -289.5 -89.5t-75.5 -159.5q0 -70 35.5 -107.5t99.5 -37.5q99 0 164.5 71
t65.5 194v129zM885 17h88q-96 -71 -96 -155q0 -55 36 -110.5t95 -85t146 -29.5l30 -34q-90 -71 -199 -71q-120 0 -203.5 74.5t-83.5 173.5q0 68 46 130.5t141 106.5z" />
    <glyph glyph-name="Dcaron" unicode="&#x10e;" horiz-adv-x="1706" 
d="M77 1479h796q217 0 381 -92t257 -262t93 -383q0 -221 -85 -384.5t-254 -260.5t-363 -97h-825v93h123q45 0 68 24.5t23 68.5v1114q0 45 -24 65.5t-81 20.5h-109v93zM804 93q137 0 243 69t153 188.5t47 370.5q0 264 -55.5 404.5t-150.5 200t-279 59.5q-101 0 -126.5 -17
t-25.5 -62v-1119q0 -50 20.5 -72t65.5 -22h108zM977 1970l38 6l-182 -381h-298l-182 375h36l296 -215z" />
    <glyph glyph-name="dcaron" unicode="&#x10f;" horiz-adv-x="1544" 
d="M667 1483l465 18v-1224q0 -94 12.5 -126.5t38.5 -47t100 -14.5v-89l-385 -12l-28 182q-88 -115 -159.5 -153t-178.5 -38q-192 0 -313 129t-121 350q0 244 128 387t318 143q102 0 181.5 -44.5t144.5 -144.5v426q0 76 -14 109t-37.5 45.5t-96.5 12.5h-55v91zM635 859
q-116 0 -173 -102q-47 -83 -47 -264q0 -151 26 -225.5t74.5 -111t110.5 -36.5q102 0 164 87q83 114 83 292q0 165 -72 262.5t-166 97.5zM1289 947l-27 49q183 107 183 209q0 24 -20 24q-4 0 -15 -2q-17 -4 -34 -4q-61 0 -100.5 42.5t-39.5 100.5q0 54 42 95t102 41
q72 0 123 -58.5t51 -147.5q0 -102 -71 -195.5t-194 -153.5z" />
    <glyph glyph-name="Dslash" unicode="&#x110;" horiz-adv-x="1706" 
d="M39 686v107h226v507q0 45 -24 65.5t-82 20.5h-108v93h795q218 0 381.5 -92t257 -262t93.5 -383q0 -221 -85.5 -384.5t-254 -260.5t-362.5 -97h-825v93h123q45 0 68 24.5t23 68.5v500h-226zM584 686v-499q0 -50 20.5 -72t64.5 -22h108q138 0 244 69t152.5 188.5
t46.5 370.5q0 264 -55 404.5t-150.5 200t-279.5 59.5q-100 0 -125.5 -17t-25.5 -62v-513h281v-107h-281z" />
    <glyph glyph-name="Eogonek" unicode="&#x118;" horiz-adv-x="1554" 
d="M71 1479h1288l29 -517h-88q-31 183 -77.5 263.5t-122 120.5t-197.5 40h-202q-47 0 -68 -18.5t-21 -51.5v-513h69q119 0 184.5 68t77.5 219h90v-688h-90q-9 171 -75 241t-199 70h-57v-547q0 -36 21 -51q32 -22 92 -22h178q183 0 299 117t144 353h90l-22 -563h-1343v93h133
q45 0 68.5 23t23.5 62v1138q0 36 -23.5 53t-84.5 17h-117v93zM1055 17h88q-96 -71 -96 -155q0 -55 36 -110.5t95 -85t146 -29.5l30 -34q-90 -71 -199 -71q-120 0 -203.5 74.5t-83.5 173.5q0 68 46 130.5t141 106.5z" />
    <glyph glyph-name="eogonek" unicode="&#x119;" horiz-adv-x="1176" 
d="M1067 462h-657q3 -197 79.5 -290.5t196.5 -93.5q86 0 163 48t158 174l73 -45q-85 -150 -194.5 -214.5t-267.5 -64.5q-230 0 -372 140t-142 359t143 366t351 147q144 0 247.5 -59t161 -172.5t60.5 -294.5zM410 552h313q44 0 63 22t19 80q0 116 -53 179.5t-135 63.5
q-97 0 -148.5 -86t-58.5 -259zM585 17h88q-96 -71 -96 -155q0 -55 36 -110.5t95 -85t146 -29.5l30 -34q-90 -71 -199 -71q-120 0 -203.5 74.5t-83.5 173.5q0 68 46 130.5t141 106.5z" />
    <glyph glyph-name="Ecaron" unicode="&#x11a;" horiz-adv-x="1554" 
d="M71 1479h1288l29 -517h-88q-31 183 -77.5 263.5t-122 120.5t-197.5 40h-202q-47 0 -68 -18.5t-21 -51.5v-513h69q119 0 184.5 68t77.5 219h90v-688h-90q-9 171 -75 241t-199 70h-57v-547q0 -36 21 -51q32 -22 92 -22h178q183 0 299 117t144 353h90l-22 -563h-1343v93h133
q45 0 68.5 23t23.5 62v1138q0 36 -23.5 53t-84.5 17h-117v93zM1027 1972l38 6l-182 -381h-298l-182 375h36l296 -215z" />
    <glyph glyph-name="ecaron" unicode="&#x11b;" horiz-adv-x="1176" 
d="M1067 462h-657q3 -197 79.5 -290.5t196.5 -93.5q86 0 163 48t158 174l73 -45q-85 -150 -194.5 -214.5t-267.5 -64.5q-230 0 -372 140t-142 359t143 366t351 147q144 0 247.5 -59t161 -172.5t60.5 -294.5zM410 552h313q44 0 63 22t19 80q0 116 -53 179.5t-135 63.5
q-97 0 -148.5 -86t-58.5 -259zM882 1479l38 6l-182 -381h-298l-182 375h36l296 -215z" />
    <glyph glyph-name="IJ" unicode="&#x132;" horiz-adv-x="2236" 
d="M75 1479h758v-93h-137q-84 0 -84 -69v-1145q0 -79 99 -79h122v-93h-758v93h116q109 0 109 79v1132q0 82 -93 82h-132v93zM1429 1479h727v-93h-87q-92 0 -92 -87v-900q0 -191 -138 -310t-364 -119q-214 0 -347 115.5t-133 265.5q0 119 68 192t162 73q83 0 141 -54t58 -137
q0 -76 -41.5 -122t-98.5 -46q-13 0 -36 4q-31 7 -45 7q-48 0 -48 -43q0 -69 77.5 -112.5t170.5 -43.5q123 0 191.5 80.5t68.5 229.5v920q0 87 -85 87h-149v93z" />
    <glyph glyph-name="ij" unicode="&#x133;" horiz-adv-x="1479" 
d="M1118 1481q68 0 115.5 -48t47.5 -115t-47.5 -115t-115.5 -48q-67 0 -115 47t-48 116q0 68 48 115.5t115 47.5zM371 1476q64 0 113.5 -46t49.5 -117q0 -67 -48 -115t-115 -48q-68 0 -116 48t-48 115t48 115t116 48zM856 936l421 27v-856q0 -107 -54.5 -230.5t-158 -197
t-210.5 -73.5q-69 0 -119.5 36t-50.5 108q0 61 36.5 94.5t85.5 33.5q78 0 95 -84q16 -73 51 -73q65 0 65 127v896q0 55 -30.5 80.5t-70.5 25.5h-60v86zM114 936l416 19v-795q0 -67 83 -67h63v-93h-562v93h62q53 0 72 24.5t19 78.5v542q0 107 -111 107h-42v91z" />
    <glyph glyph-name="Lacute" unicode="&#x139;" horiz-adv-x="1479" 
d="M85 1386v93h759v-93h-128q-55 0 -77 -21t-22 -68v-1100q0 -67 21 -85.5t99 -18.5h213q119 0 222 113t158 361h90l-34 -567h-1301v93h130q43 0 65 22t22 62v1131q0 41 -22.5 59.5t-77.5 18.5h-117zM437 1609l-28 23l162 231q77 110 158 110q45 0 81.5 -33.5t36.5 -70.5
q0 -40 -26.5 -70.5t-119.5 -71.5z" />
    <glyph glyph-name="lacute" unicode="&#x13a;" horiz-adv-x="721" 
d="M73 1479l438 22v-1331q0 -36 23 -56.5t66 -20.5h59v-93h-563v93h64q44 0 65.5 23.5t21.5 71.5v1093q0 51 -28 78.5t-76 27.5h-70v92zM207 1609l-28 23l162 231q77 110 158 110q45 0 81.5 -33.5t36.5 -70.5q0 -40 -26.5 -70.5t-119.5 -71.5z" />
    <glyph glyph-name="Lcaron" unicode="&#x13d;" horiz-adv-x="1479" 
d="M85 1386v93h759v-93h-128q-55 0 -77 -21t-22 -68v-1100q0 -67 21 -85.5t99 -18.5h213q119 0 222 113t158 361h90l-34 -567h-1301v93h130q43 0 65 22t22 62v1131q0 41 -22.5 59.5t-77.5 18.5h-117zM990 838l-33 61q112 56 171 130t59 124q0 30 -29 30l-28 -3
q-21 -4 -33 -4q-67 0 -117.5 50.5t-50.5 119.5q0 70 50.5 120.5t124.5 50.5q91 0 155.5 -72t64.5 -182q0 -116 -87 -234t-247 -191z" />
    <glyph glyph-name="lcaron" unicode="&#x13e;" horiz-adv-x="907" 
d="M73 1479l438 22v-1331q0 -36 23 -56.5t66 -20.5h59v-93h-563v93h64q44 0 65.5 23.5t21.5 71.5v1093q0 51 -28 78.5t-76 27.5h-70v92zM659 947l-27 49q183 107 183 209q0 24 -20 24q-4 0 -15 -2q-17 -4 -34 -4q-61 0 -100.5 42.5t-39.5 100.5q0 54 42 95t102 41
q72 0 123 -58.5t51 -147.5q0 -102 -71 -195.5t-194 -153.5z" />
    <glyph glyph-name="Ldot" unicode="&#x13f;" horiz-adv-x="1479" 
d="M85 1386v93h759v-93h-128q-55 0 -77 -21t-22 -68v-1100q0 -67 21 -85.5t99 -18.5h213q119 0 222 113t158 361h90l-34 -567h-1301v93h130q43 0 65 22t22 62v1131q0 41 -22.5 59.5t-77.5 18.5h-117zM1001 934q55 0 94 -39.5t39 -94.5t-39 -94t-94 -39q-56 0 -95 39t-39 94
t39 94.5t95 39.5z" />
    <glyph glyph-name="ldot" unicode="&#x140;" horiz-adv-x="891" 
d="M73 1479l438 22v-1331q0 -36 23 -56.5t66 -20.5h59v-93h-563v93h64q44 0 65.5 23.5t21.5 71.5v1093q0 51 -28 78.5t-76 27.5h-70v92zM751 934q55 0 94 -39.5t39 -94.5t-39 -94t-94 -39q-56 0 -95 39t-39 94t39 94.5t95 39.5z" />
    <glyph glyph-name="Nacute" unicode="&#x143;" horiz-adv-x="1706" 
d="M75 1479h459l801 -1014v689q0 102 -58 163.5t-165 68.5v93h540v-93q-113 -12 -162 -67.5t-49 -164.5v-1154h-115l-912 1168v-809q0 -139 63.5 -202.5t157.5 -63.5h25v-93h-597v93h41q88 0 148 70t60 180v956q-67 87 -171 87h-66v93zM697 1609l-28 23l162 231
q77 110 158 110q45 0 81.5 -33.5t36.5 -70.5q0 -40 -26.5 -70.5t-119.5 -71.5z" />
    <glyph glyph-name="nacute" unicode="&#x144;" horiz-adv-x="1403" 
d="M1347 93v-93h-563v93h59q47 0 70 24t23 70v406q0 104 -47.5 159.5t-124.5 55.5q-105 0 -171 -78.5t-66 -229.5v-313q0 -46 23.5 -70t60.5 -24h71v-93h-584v93h76q44 0 66.5 24t22.5 70v557q0 48 -32.5 76.5t-85.5 28.5h-40v87l390 21q21 -86 32 -205q82 111 175 166
t196 55q140 0 221 -93q80 -93 80 -259v-434q0 -50 23 -72t73 -22h52zM617 1116l-28 23l162 231q77 110 158 110q45 0 81.5 -33.5t36.5 -70.5q0 -40 -26.5 -70.5t-119.5 -71.5z" />
    <glyph glyph-name="Ncaron" unicode="&#x147;" horiz-adv-x="1706" 
d="M75 1479h459l801 -1014v689q0 102 -58 163.5t-165 68.5v93h540v-93q-113 -12 -162 -67.5t-49 -164.5v-1154h-115l-912 1168v-809q0 -139 63.5 -202.5t157.5 -63.5h25v-93h-597v93h41q88 0 148 70t60 180v956q-67 87 -171 87h-66v93zM1107 1972l38 6l-182 -381h-298
l-182 375h36l296 -215z" />
    <glyph glyph-name="ncaron" unicode="&#x148;" horiz-adv-x="1403" 
d="M1347 93v-93h-563v93h59q47 0 70 24t23 70v406q0 104 -47.5 159.5t-124.5 55.5q-105 0 -171 -78.5t-66 -229.5v-313q0 -46 23.5 -70t60.5 -24h71v-93h-584v93h76q44 0 66.5 24t22.5 70v557q0 48 -32.5 76.5t-85.5 28.5h-40v87l390 21q21 -86 32 -205q82 111 175 166
t196 55q140 0 221 -93q80 -93 80 -259v-434q0 -50 23 -72t73 -22h52zM957 1479l38 6l-182 -381h-298l-182 375h36l296 -215z" />
    <glyph glyph-name="napostrophe" unicode="&#x149;" horiz-adv-x="1776" 
d="M1720 93v-93h-563v93h59q47 0 70 24t23 70v406q0 104 -47.5 159.5t-124.5 55.5q-105 0 -171 -78.5t-66 -229.5v-313q0 -46 23.5 -70t60.5 -24h71v-93h-584v93h76q44 0 66.5 24t22.5 70v557q0 48 -32.5 76.5t-85.5 28.5h-40v87l390 21q21 -86 32 -205q82 111 175 166
t196 55q140 0 221 -93q80 -93 80 -259v-434q0 -50 23 -72t73 -22h52zM30 838l-33 61q112 56 171 130t59 124q0 30 -29 30l-28 -3q-21 -4 -33 -4q-67 0 -117.5 50.5t-50.5 119.5q0 70 50.5 120.5t124.5 50.5q91 0 155.5 -72t64.5 -182q0 -116 -87 -234t-247 -191z" />
    <glyph glyph-name="Odblacute" unicode="&#x150;" horiz-adv-x="1706" 
d="M846 1517q209 0 385.5 -101t275 -275.5t98.5 -393.5q0 -333 -217.5 -555t-539.5 -222q-214 0 -383.5 101t-267.5 272.5t-98 398.5q0 337 215 556t532 219zM852 1421q-119 0 -206.5 -65.5t-139 -211.5t-51.5 -400q0 -267 47.5 -404.5t138.5 -203.5t212 -66
q179 0 286 153.5t107 533.5q0 266 -46 399.5t-137 199t-211 65.5zM465 1609l-28 23l162 231q77 110 158 110q45 0 81.5 -33.5t36.5 -70.5q0 -40 -26.5 -70.5t-119.5 -71.5zM857 1609l-28 23l161 231q77 110 158 110q46 0 82.5 -33.5t36.5 -70.5q0 -40 -27 -70.5t-119 -71.5z
" />
    <glyph glyph-name="odblacute" unicode="&#x151;" horiz-adv-x="1251" 
d="M617 988q157 0 288.5 -68t195.5 -177.5t64 -263.5q0 -246 -167.5 -377.5t-379.5 -131.5q-150 0 -274.5 67.5t-191.5 182t-67 258.5q0 217 151.5 363.5t380.5 146.5zM623 893q-104 0 -165.5 -91.5t-61.5 -321.5q0 -239 61 -329.5t165 -90.5q106 0 171 93t65 321
q0 234 -64 326.5t-171 92.5zM276 1116l-28 23l162 231q77 110 158 110q45 0 81.5 -33.5t36.5 -70.5q0 -40 -26.5 -70.5t-119.5 -71.5zM668 1116l-28 23l161 231q77 110 158 110q46 0 82.5 -33.5t36.5 -70.5q0 -40 -27 -70.5t-119 -71.5z" />
    <glyph glyph-name="Racute" unicode="&#x154;" horiz-adv-x="1669" 
d="M121 1479h772q188 0 306.5 -48.5t176.5 -132t58 -185.5q0 -163 -146 -264q-111 -77 -342 -100q116 -19 178.5 -60.5t110.5 -123.5q63 -108 103 -259q25 -97 44 -122t43 -25q66 0 79 175h88q-10 -186 -83 -266.5t-206 -80.5q-95 0 -152.5 39t-87.5 114q-18 43 -50 202
q-37 186 -66.5 250t-76.5 95t-116 31h-109v-545q0 -36 21 -55q30 -25 70 -25h134v-93h-749v93h116q45 0 68 23.5t23 65.5v1115q0 46 -21 67.5t-60 21.5h-126v93zM645 808h125q166 0 262 85q72 65 72 219q0 142 -71 207.5t-246 65.5q-94 0 -118 -20.5t-24 -91.5v-465z
M567 1609l-28 23l162 231q77 110 158 110q45 0 81.5 -33.5t36.5 -70.5q0 -40 -26.5 -70.5t-119.5 -71.5z" />
    <glyph glyph-name="racute" unicode="&#x155;" horiz-adv-x="1063" 
d="M741 93v-93h-654v93h81q50 0 73 19.5t23 52.5v554q0 67 -30.5 98t-85.5 31h-53v88l400 21v-305q35 153 122 235t196 82q93 0 147 -49.5t54 -127.5q0 -67 -37.5 -108.5t-91.5 -41.5q-48 0 -82.5 36t-34.5 92q0 31 17 65q9 19 9 27q0 14 -6.5 20.5t-20.5 6.5q-36 0 -79 -42
q-66 -65 -111 -202.5t-45 -277.5v-202q0 -35 19 -53.5t53 -18.5h137zM317 1116l-28 23l162 231q77 110 158 110q45 0 81.5 -33.5t36.5 -70.5q0 -40 -26.5 -70.5t-119.5 -71.5z" />
    <glyph glyph-name="Rcaron" unicode="&#x158;" horiz-adv-x="1669" 
d="M121 1479h772q188 0 306.5 -48.5t176.5 -132t58 -185.5q0 -163 -146 -264q-111 -77 -342 -100q116 -19 178.5 -60.5t110.5 -123.5q63 -108 103 -259q25 -97 44 -122t43 -25q66 0 79 175h88q-10 -186 -83 -266.5t-206 -80.5q-95 0 -152.5 39t-87.5 114q-18 43 -50 202
q-37 186 -66.5 250t-76.5 95t-116 31h-109v-545q0 -36 21 -55q30 -25 70 -25h134v-93h-749v93h116q45 0 68 23.5t23 65.5v1115q0 46 -21 67.5t-60 21.5h-126v93zM645 808h125q166 0 262 85q72 65 72 219q0 142 -71 207.5t-246 65.5q-94 0 -118 -20.5t-24 -91.5v-465z
M1027 1972l38 6l-182 -381h-298l-182 375h36l296 -215z" />
    <glyph glyph-name="rcaron" unicode="&#x159;" horiz-adv-x="1063" 
d="M741 93v-93h-654v93h81q50 0 73 19.5t23 52.5v554q0 67 -30.5 98t-85.5 31h-53v88l400 21v-305q35 153 122 235t196 82q93 0 147 -49.5t54 -127.5q0 -67 -37.5 -108.5t-91.5 -41.5q-48 0 -82.5 36t-34.5 92q0 31 17 65q9 19 9 27q0 14 -6.5 20.5t-20.5 6.5q-36 0 -79 -42
q-66 -65 -111 -202.5t-45 -277.5v-202q0 -35 19 -53.5t53 -18.5h137zM777 1479l38 6l-182 -381h-298l-182 375h36l296 -215z" />
    <glyph glyph-name="Sacute" unicode="&#x15a;" horiz-adv-x="1366" 
d="M1013 1366l93 132h71l9 -511h-90q-70 220 -199 329.5t-285 109.5q-133 0 -216.5 -72.5t-83.5 -173.5q0 -60 33 -110t106.5 -85.5t257.5 -73.5q215 -45 297 -81q130 -58 195 -153.5t65 -232.5q0 -205 -141 -327q-170 -147 -421 -147q-231 0 -422 161l-117 -146h-73v548h87
q131 -469 532 -469q164 0 255 75.5t91 188.5q0 79 -40 132.5t-124 86.5q-46 18 -228 57q-245 54 -349.5 111.5t-153.5 141t-49 203.5q0 202 135.5 329.5t363.5 127.5q219 0 401 -151zM467 1609l-28 23l162 231q77 110 158 110q45 0 81.5 -33.5t36.5 -70.5q0 -40 -26.5 -70.5
t-119.5 -71.5z" />
    <glyph glyph-name="sacute" unicode="&#x15b;" horiz-adv-x="1024" 
d="M742 908l66 79h61l20 -320h-81q-64 127 -140.5 178.5t-185.5 51.5q-94 0 -143 -36t-49 -91q0 -54 38 -82q38 -29 208 -63q154 -31 205 -52q97 -39 151.5 -116t54.5 -180q0 -130 -104.5 -218.5t-274.5 -88.5q-82 0 -148.5 19.5t-138.5 68.5l-71 -84h-76l-18 354h83
q106 -268 364 -268q106 0 162 41t56 98q0 52 -35 79t-186 58q-163 33 -222 57q-101 39 -152 108.5t-51 167.5q0 140 93 229.5t249 89.5q76 0 136.5 -18t128.5 -62zM312 1116l-28 23l162 231q77 110 158 110q45 0 81.5 -33.5t36.5 -70.5q0 -40 -26.5 -70.5t-119.5 -71.5z" />
    <glyph glyph-name="Tcedilla" unicode="&#x162;" horiz-adv-x="1479" 
d="M101 1479h1293l33 -562h-91q-32 180 -83 281t-116.5 143.5t-143.5 42.5q-45 0 -66 -18.5t-21 -53.5v-1144q0 -33 20.5 -54t49.5 -21h168v-93h-791v93h160q36 0 57 20.5t21 54.5v1138q0 40 -21.5 59t-67.5 19q-255 0 -345 -467h-88zM649 -653l-27 49q183 107 183 209
q0 24 -20 24q-4 0 -15 -2q-17 -4 -34 -4q-61 0 -100.5 42.5t-39.5 100.5q0 54 42 95t102 41q72 0 123 -58.5t51 -147.5q0 -102 -71 -195.5t-194 -153.5z" />
    <glyph glyph-name="tcedilla" unicode="&#x163;" horiz-adv-x="872" 
d="M387 1321h90v-385h309v-108h-309v-595q0 -59 30 -91.5t79 -32.5q140 0 148 261h90q-3 -139 -44 -223.5t-117.5 -130.5t-172.5 -46q-84 0 -145.5 34t-98 101.5t-36.5 146.5v576h-166v92q152 20 237 117t106 284zM329 -653l-27 49q183 107 183 209q0 24 -20 24q-4 0 -15 -2
q-17 -4 -34 -4q-61 0 -100.5 42.5t-39.5 100.5q0 54 42 95t102 41q72 0 123 -58.5t51 -147.5q0 -102 -71 -195.5t-194 -153.5z" />
    <glyph glyph-name="Tcaron" unicode="&#x164;" horiz-adv-x="1479" 
d="M101 1479h1293l33 -562h-91q-32 180 -83 281t-116.5 143.5t-143.5 42.5q-45 0 -66 -18.5t-21 -53.5v-1144q0 -33 20.5 -54t49.5 -21h168v-93h-791v93h160q36 0 57 20.5t21 54.5v1138q0 40 -21.5 59t-67.5 19q-255 0 -345 -467h-88zM1027 1972l38 6l-182 -381h-298
l-182 375h36l296 -215z" />
    <glyph glyph-name="tcaron" unicode="&#x165;" horiz-adv-x="980" 
d="M708 1012l-27 45q88 39 137 95.5t49 93.5q0 22 -24 22q-7 0 -22 -2q-17 -3 -26 -3q-53 0 -95 36.5t-42 90.5q0 50 40 88.5t102 38.5q78 0 128 -56t50 -134q0 -92 -76.5 -180t-193.5 -135zM435 1321h90v-385h309v-108h-309v-595q0 -124 109 -124q140 0 148 261h90
q-3 -209 -99 -304.5t-235 -95.5q-135 0 -207.5 81.5t-72.5 200.5v576h-166v92q304 33 343 401z" />
    <glyph glyph-name="Uring" unicode="&#x16e;" horiz-adv-x="1706" 
d="M63 1479h744v-93h-151q-32 0 -50 -21.5t-18 -65.5v-818q0 -173 92 -265.5t254 -92.5q119 0 216 51q71 38 116.5 125t45.5 219v628q0 120 -53.5 180t-143.5 60h-22v93h564v-93h-39q-88 0 -134 -66.5t-46 -164.5v-681q0 -227 -152 -365q-153 -139 -420 -139
q-191 0 -332.5 62.5t-201 161t-59.5 260.5v831q0 58 -22 79.5t-79 21.5h-109v93zM924 1995q88 0 150 -62t62 -150q0 -87 -62 -149t-150 -62q-87 0 -149 62t-62 150q0 87 62 149t149 62zM925 1902q-49 0 -84 -35t-35 -84t35 -84t84 -35t84 35t35 84t-35 84t-84 35z" />
    <glyph glyph-name="uring" unicode="&#x16f;" horiz-adv-x="1403" 
d="M82 936l418 24v-624q0 -87 47 -137.5t122 -50.5q106 0 169.5 84t63.5 197v306q0 54 -30 82t-82 28h-46v91l422 24v-758q0 -51 31.5 -80t83.5 -29h43v-93l-387 -12q-24 100 -28 214q-97 -123 -187 -173t-187 -50q-96 0 -161.5 40t-104.5 127t-39 211v372q0 61 -31 87.5
t-117 28.5v91zM674 1502q88 0 150 -62t62 -150q0 -87 -62 -149t-150 -62q-87 0 -149 62t-62 150q0 87 62 149t149 62zM675 1409q-49 0 -84 -35t-35 -84t35 -84t84 -35t84 35t35 84t-35 84t-84 35z" />
    <glyph glyph-name="Udblacute" unicode="&#x170;" horiz-adv-x="1706" 
d="M63 1479h744v-93h-151q-32 0 -50 -21.5t-18 -65.5v-818q0 -173 92 -265.5t254 -92.5q119 0 216 51q71 38 116.5 125t45.5 219v628q0 120 -53.5 180t-143.5 60h-22v93h564v-93h-39q-88 0 -134 -66.5t-46 -164.5v-681q0 -227 -152 -365q-153 -139 -420 -139
q-191 0 -332.5 62.5t-201 161t-59.5 260.5v831q0 58 -22 79.5t-79 21.5h-109v93zM605 1609l-28 23l162 231q77 110 158 110q45 0 81.5 -33.5t36.5 -70.5q0 -40 -26.5 -70.5t-119.5 -71.5zM997 1609l-28 23l161 231q77 110 158 110q46 0 82.5 -33.5t36.5 -70.5
q0 -40 -27 -70.5t-119 -71.5z" />
    <glyph glyph-name="udblacute" unicode="&#x171;" horiz-adv-x="1403" 
d="M82 936l418 24v-624q0 -87 47 -137.5t122 -50.5q106 0 169.5 84t63.5 197v306q0 54 -30 82t-82 28h-46v91l422 24v-758q0 -51 31.5 -80t83.5 -29h43v-93l-387 -12q-24 100 -28 214q-97 -123 -187 -173t-187 -50q-96 0 -161.5 40t-104.5 127t-39 211v372q0 61 -31 87.5
t-117 28.5v91zM355 1116l-28 23l162 231q77 110 158 110q45 0 81.5 -33.5t36.5 -70.5q0 -40 -26.5 -70.5t-119.5 -71.5zM747 1116l-28 23l161 231q77 110 158 110q46 0 82.5 -33.5t36.5 -70.5q0 -40 -27 -70.5t-119 -71.5z" />
    <glyph glyph-name="Zacute" unicode="&#x179;" horiz-adv-x="1366" 
d="M174 1479h1088v-93l-829 -1293h377q98 0 169.5 43.5t125.5 140.5t87 279h91l-28 -556h-1171v93l825 1293h-283q-171 0 -268.5 -95.5t-130.5 -325.5h-87zM617 1609l-28 23l162 231q77 110 158 110q45 0 81.5 -33.5t36.5 -70.5q0 -40 -26.5 -70.5t-119.5 -71.5z" />
    <glyph glyph-name="zacute" unicode="&#x17a;" horiz-adv-x="1100" 
d="M177 936h809v-90l-559 -753h264q86 0 142.5 62t83.5 219h88l-19 -374h-874v93l558 753h-221q-77 0 -128 -57t-74 -197h-89zM417 1116l-28 23l162 231q77 110 158 110q45 0 81.5 -33.5t36.5 -70.5q0 -40 -26.5 -70.5t-119.5 -71.5z" />
    <glyph glyph-name="Zdot" unicode="&#x17b;" horiz-adv-x="1366" 
d="M174 1479h1088v-93l-829 -1293h377q98 0 169.5 43.5t125.5 140.5t87 279h91l-28 -556h-1171v93l825 1293h-283q-171 0 -268.5 -95.5t-130.5 -325.5h-87zM691 1927q55 0 94 -39t39 -94q0 -56 -39 -95t-94 -39q-56 0 -95 39t-39 95q0 55 39 94t95 39z" />
    <glyph glyph-name="zdot" unicode="&#x17c;" horiz-adv-x="1100" 
d="M177 936h809v-90l-559 -753h264q86 0 142.5 62t83.5 219h88l-19 -374h-874v93l558 753h-221q-77 0 -128 -57t-74 -197h-89zM551 1434q55 0 94 -39t39 -94q0 -56 -39 -95t-94 -39q-56 0 -95 39t-39 95q0 55 39 94t95 39z" />
    <glyph glyph-name="noGamma" unicode="&#xf100;" horiz-adv-x="1382" 
d="M1332 1356v-359h-36q-20 106 -61.5 172t-84.5 84.5t-126 18.5h-396v-1083q0 -83 35.5 -118t135.5 -35h53v-36h-741v36h48q91 0 122.5 36.5t31.5 136.5v953q0 105 -40.5 131.5t-132.5 26.5h-29v36h1221z" />
    <glyph glyph-name="noTheta" unicode="&#xf101;" horiz-adv-x="1661" 
d="M1561 671q0 -298 -199.5 -500t-531.5 -202q-200 0 -360 78.5t-265 242.5t-105 389q0 211 99 375.5t268.5 248.5t360.5 84q220 0 402.5 -107t256.5 -273.5t74 -335.5zM1209 664q0 310 -104 480t-274 170q-164 0 -272 -160.5t-108 -472.5q0 -281 99.5 -460.5t276.5 -179.5
q173 0 277.5 167.5t104.5 455.5zM654 427h-36v508h36q0 -74 37 -105t139 -31q101 0 138.5 29t37.5 107h37v-508h-37q0 133 -145 133q-102 0 -134.5 -10t-52.5 -41t-20 -82z" />
    <glyph glyph-name="noPhi" unicode="&#xf102;" horiz-adv-x="1688" 
d="M543 0v36q75 -1 108 32t34 115q-310 14 -447.5 159.5t-137.5 336.5q0 205 146.5 344t438.5 148q2 15 2 23q0 60 -33 92t-111 34v36h601v-36q-77 -2 -110 -33.5t-33 -92.5q0 -8 1 -23q292 -9 438.5 -148t146.5 -344q0 -147 -78 -263.5t-193 -167.5t-314 -65
q1 -83 34.5 -115.5t107.5 -31.5v-36h-601zM685 1097q-124 4 -197 -93.5t-73 -334.5q0 -246 85 -328.5t185 -82.5v839zM1002 259q12 -1 17 -1q88 0 171 82t83 342q0 415 -271 415v-838z" />
    <glyph glyph-name="noalpha" unicode="&#xf103;" horiz-adv-x="1141" 
d="M771 935h274l-94 -439l-7 -27l-10 -42q-25 -112 -50 -178q9 -53 37.5 -88.5t58.5 -35.5q82 0 87 150h37q-2 -181 -39.5 -242t-89.5 -61q-93 0 -130 202q-112 -202 -345 -202q-184 0 -299 129t-115 336q0 212 113.5 369t275.5 157q161 0 252 -223zM700 615
q-60 173 -105.5 220t-96.5 47q-63 0 -90 -85t-27 -387q0 -228 25.5 -297.5t76.5 -69.5q41 0 78 46.5t81 252.5z" />
    <glyph glyph-name="nodelta" unicode="&#xf104;" horiz-adv-x="1045" 
d="M493 837q-26 31 -66 68q-100 92 -146 155t-46 140q0 92 75 139.5t194 47.5q145 0 241 -44.5t96 -123.5q0 -43 -29.5 -66.5t-68.5 -23.5q-68 0 -147 93q-77 90 -161 90q-58 0 -95.5 -31t-37.5 -72q0 -91 214 -216q171 -99 249.5 -162.5t136.5 -175.5t58 -227
q0 -187 -132.5 -321.5t-319.5 -134.5q-172 0 -297 121t-125 317q0 116 51 198t126.5 135t229.5 94zM536 783q-93 -36 -130.5 -115t-37.5 -270q0 -229 39.5 -292.5t104.5 -63.5q162 0 162 329q0 246 -138 412z" />
    <glyph glyph-name="noepsilon" unicode="&#xf105;" horiz-adv-x="935" 
d="M418 489q-146 21 -216.5 93t-70.5 148q0 94 95 163.5t292 69.5q161 0 238 -47.5t77 -117.5q0 -39 -27.5 -68.5t-82.5 -29.5q-52 0 -80 25.5t-28 49.5q0 17 9 48q4 13 4 24q0 46 -101 46q-143 0 -143 -185q0 -106 28 -141.5t106 -35.5q22 0 42 2q50 5 67 5q20 0 36 -12
t16 -29q0 -37 -52 -37q-23 0 -49 2q-36 3 -59 3q-140 0 -140 -213q0 -211 147 -211q46 0 79.5 21.5t33.5 47.5q0 13 -6 41q-3 16 -3 31q0 46 31.5 69.5t74.5 23.5q54 0 84 -32t30 -77q0 -82 -96 -138t-239 -56q-182 0 -305.5 75t-123.5 191q0 52 31 100t97 87.5t204 63.5z
" />
    <glyph glyph-name="nosigma" unicode="&#xf106;" horiz-adv-x="1149" 
d="M1106 935v-208h-393q264 -145 264 -375q0 -162 -126.5 -271t-303.5 -109q-196 0 -328.5 153t-132.5 351q0 210 154.5 334.5t443.5 124.5h422zM618 727q-254 -7 -254 -266q0 -171 57.5 -295t134.5 -124q67 0 105.5 85.5t38.5 227.5q0 205 -82 372z" />
    <glyph glyph-name="notau" unicode="&#xf107;" horiz-adv-x="896" 
d="M826 935v-209h-284q-31 -332 -31 -421q0 -73 29 -115.5t75 -42.5q103 0 124 168h34q-6 -189 -71 -266t-152 -77q-84 0 -143 73.5t-59 259.5q0 124 31 421q-39 2 -55 2q-93 0 -136.5 -27t-77.5 -95h-39q65 179 119 240.5t95 75t176 13.5h365z" />
    <glyph glyph-name="nophi" unicode="&#xf108;" horiz-adv-x="1260" 
d="M708 -428h-160v402q-98 0 -209.5 58.5t-182 180.5t-70.5 269q0 206 130.5 345t307.5 136v-36q-92 -30 -131.5 -135.5t-39.5 -314.5q0 -229 59.5 -334t135.5 -106v628q0 163 67.5 230.5t168.5 67.5q136 0 263.5 -128.5t127.5 -339.5q0 -127 -56 -248t-165 -195t-246 -78
v-402zM708 37q71 3 134 102.5t63 333.5q0 186 -41.5 281t-102.5 95q-31 0 -42 -45.5t-11 -213.5v-553z" />
    <glyph glyph-name="underscoredbl" unicode="&#x2017;" horiz-adv-x="1024" 
d="M-12 -108h1048v-103h-1048v103zM-12 -286h1048v-102h-1048v102z" />
    <glyph glyph-name="minute" unicode="&#x2032;" horiz-adv-x="494" 
d="M167 739h-45l6 389q2 140 55.5 213t139.5 73q107 0 107 -96q0 -59 -67 -190z" />
    <glyph glyph-name="second" unicode="&#x2033;" horiz-adv-x="682" 
d="M466 751h-45l5 388q2 141 56 214t140 73q107 0 107 -96q0 -59 -67 -191zM63 751h-45l6 388q2 141 55.5 214t139.5 73q107 0 107 -96q0 -59 -67 -191z" />
    <glyph glyph-name="exclamdbl" unicode="&#x203c;" horiz-adv-x="1212" 
d="M347 432h-74q0 225 -69 521q-67 286 -67 358q0 91 47 148.5t126 57.5q81 0 126.5 -60t45.5 -143q0 -59 -50 -283q-56 -248 -70.5 -352t-14.5 -247zM953 432h-73q0 225 -70 521q-67 286 -67 358q0 91 47 148.5t126 57.5q81 0 126.5 -60t45.5 -143q0 -59 -50 -283
q-56 -248 -70.5 -352t-14.5 -247zM311 318q70 0 121 -50t51 -124q0 -73 -50.5 -123.5t-120.5 -50.5q-72 0 -122 51t-50 123q0 71 50 122.5t121 51.5zM918 318q69 0 120.5 -50t51.5 -124q0 -73 -51 -123.5t-121 -50.5q-71 0 -121.5 51t-50.5 123q0 71 50 122.5t122 51.5z" />
    <glyph glyph-name="nsuperior" unicode="&#x207f;" horiz-adv-x="884" 
d="M860 907v-70h-379v70h49q47 0 47 48v240q0 118 -97 118q-62 0 -99 -46t-37 -128v-184q0 -48 40 -48h57v-70h-392v70h60q44 0 44 48v328q0 55 -62 55h-38v66l268 13q13 -47 20 -101q100 110 225 110q92 0 146.5 -56t54.5 -159v-256q0 -48 48 -48h45z" />
    <glyph glyph-name="peseta" unicode="&#x20a7;" horiz-adv-x="2920" 
d="M1466 965q71 36 125.5 132t66.5 224h91v-385h309v-108h-309v-595q0 -124 108 -124q141 0 148 261h90q0 -108 105.5 -209t260.5 -101q103 0 159.5 40.5t56.5 98.5q0 56 -38.5 81.5t-182.5 55.5q-164 33 -244 65t-130.5 101.5t-50.5 168.5q0 130 89 223.5t254 93.5
q146 0 264 -80l66 79h61l20 -320h-81q-110 230 -327 230q-102 0 -146.5 -38.5t-44.5 -87.5q0 -61 43.5 -88t202.5 -58q156 -31 230 -62t127.5 -108t53.5 -175q0 -144 -112 -227t-269 -83q-154 0 -285 88l-71 -84h-76l-7 124q-89 -128 -262 -128q-135 0 -207.5 81.5
t-72.5 200.5v576h-91q-161 -169 -453 -169h-274v-482q0 -84 82 -84h170v-93h-788v93h132q89 0 89 84v1127q0 41 -24.5 61.5t-54.5 20.5h-142v93h866q194 0 341 -107t147 -299q0 -59 -15 -108zM663 750h183q96 0 172.5 41.5t106 101.5t29.5 181q0 109 -32 178t-98 102
t-208 33q-94 0 -123.5 -14.5t-29.5 -58.5v-564z" />
    <glyph glyph-name="afii61248" unicode="&#x2105;" horiz-adv-x="2049" 
d="M724 970l70 -36q-83 -244 -329 -244q-157 0 -244 96t-87 250q0 167 103 278.5t275 111.5q123 0 191.5 -54t68.5 -135q0 -61 -31.5 -94t-80.5 -33q-43 0 -71 25t-28 73q0 38 28 85q8 14 8 24q0 14 -24.5 24.5t-56.5 10.5q-161 0 -161 -294q0 -281 169 -281q125 0 200 193z
M1427 1395h101l-983 -1395h-101zM1552 715q142 0 252.5 -91.5t110.5 -277.5q0 -181 -113 -274t-250 -93q-143 0 -248 99t-105 268q0 173 108 271t245 98zM1556 634q-134 0 -134 -287q0 -292 134 -292q138 0 138 291q0 288 -138 288z" />
    <glyph glyph-name="afii61289" unicode="&#x2113;" horiz-adv-x="789" 
d="M23 341l140 150l1 503q0 240 91.5 340.5t211.5 100.5q97 0 166 -60t69 -166q0 -85 -41 -187.5t-217 -310.5v-377q0 -121 26 -170.5t83 -49.5q112 0 153 189h51q-67 -325 -318 -325q-109 0 -192.5 78.5t-83.5 248.5v108l-103 -107zM444 785q196 229 196 408q0 138 -83 138
q-60 0 -86.5 -69.5t-26.5 -231.5v-245z" />
    <glyph glyph-name="arrowleft" unicode="&#x2190;" horiz-adv-x="2048" 
d="M492 876h76q-81 -170 -195 -309h1595v-101h-1595q102 -102 198 -309h-78q-223 253 -414 341v45q177 71 413 333z" />
    <glyph glyph-name="arrowup" unicode="&#x2191;" horiz-adv-x="1024" 
d="M153 1050q262 236 333 413h46q87 -192 340 -415v-77q-207 96 -309 197v-1597h-101v1597q-139 -114 -309 -195v77z" />
    <glyph glyph-name="arrowright" unicode="&#x2192;" horiz-adv-x="2048" 
d="M1555 876q237 -262 413 -333v-45q-191 -88 -414 -341h-77q95 207 197 309h-1595v101h1595q-114 139 -195 309h76z" />
    <glyph glyph-name="arrowdown" unicode="&#x2193;" horiz-adv-x="1024" 
d="M153 -16v76q170 -81 309 -195v1598h101v-1598q102 102 309 197v-77q-253 -223 -340 -414h-46q-71 176 -333 413z" />
    <glyph glyph-name="arrowboth" unicode="&#x2194;" horiz-adv-x="2048" 
d="M1968 540v-45q-181 -79 -406 -337h-80q69 172 194 311h-1305q125 -139 194 -311h-80q-224 258 -406 337v45q182 79 406 338h80q-69 -172 -194 -311h1305q-125 139 -194 311h80q225 -259 406 -338z" />
    <glyph glyph-name="arrowupdn" unicode="&#x2195;" horiz-adv-x="1024" 
d="M489 1463h45q79 -182 337 -407v-80q-171 69 -311 195v-1306q140 126 311 194v-79q-258 -225 -337 -407h-45q-79 182 -337 407v79q171 -68 311 -194v1306q-140 -126 -311 -195v80q258 225 337 407z" />
    <glyph glyph-name="arrowupdnbse" unicode="&#x21a8;" horiz-adv-x="1024" 
d="M489 1463h45q79 -182 337 -407v-80q-171 69 -311 195v-1306q140 126 311 194v-79q-258 -225 -337 -407h-45q-79 182 -337 407v79q171 -68 311 -194v1306q-140 -126 -311 -195v80q258 225 337 407zM154 -522h717v-98h-717v98z" />
    <glyph glyph-name="orthogonal" unicode="&#x221f;" horiz-adv-x="2005" 
d="M362 1279h100v-1179h1181v-100h-1281v1279z" />
    <glyph glyph-name="intersection" unicode="&#x2229;" horiz-adv-x="1472" 
d="M311 0h-129v592q1 119 2.5 229t20 193.5t60.5 154t117 131t166.5 93.5t187.5 33q146 0 272.5 -71t189.5 -170.5t77.5 -209.5t14.5 -383v-592h-128v599q0 230 -11.5 330.5t-58 180t-146 135.5t-210.5 56q-112 0 -211.5 -57t-144.5 -134.5t-57 -178.5t-12 -332v-599z" />
    <glyph glyph-name="equivalence" unicode="&#x2261;" horiz-adv-x="1544" 
d="M213 1216h1118v-188h-1118v188zM213 791h1118v-188h-1118v188zM213 367h1118v-188h-1118v188z" />
    <glyph glyph-name="H22073" unicode="&#x25a1;" horiz-adv-x="1237" 
d="M146 944h944v-944h-944v944zM222 868v-792h792v792h-792z" />
    <glyph glyph-name="H18543" unicode="&#x25aa;" horiz-adv-x="726" 
d="M594 909v-464h-463v463z" />
    <glyph glyph-name="H18551" unicode="&#x25ab;" horiz-adv-x="726" 
d="M594 909v-464h-463v463zM518 833l-311 -1v-311h311v312z" />
    <glyph glyph-name="H18533" unicode="&#x25cf;" horiz-adv-x="1237" 
d="M619 1018q110 0 216 -57t165 -163t59 -220q0 -183 -129 -312t-311 -129q-183 0 -312 129t-129 312q0 115 59 220.5t165 162.5t217 57z" />
    <glyph glyph-name="openbullet" unicode="&#x25e6;" horiz-adv-x="726" 
d="M363 928q104 0 177.5 -73.5t73.5 -177.5t-73.5 -177.5t-177.5 -73.5t-177.5 73.5t-73.5 177.5t73 177.5t178 73.5zM363 852q-73 0 -124 -51.5t-51 -123.5q0 -73 51.5 -124t123.5 -51t123.5 51t51.5 124q0 72 -51 123.5t-124 51.5z" />
    <glyph glyph-name="commaaccent" unicode="&#xf004;" horiz-adv-x="682" 
d="M229 -653l-27 49q183 107 183 209q0 24 -20 24q-4 0 -15 -2q-17 -4 -34 -4q-61 0 -100.5 42.5t-39.5 100.5q0 54 42 95t102 41q72 0 123 -58.5t51 -147.5q0 -102 -71 -195.5t-194 -153.5z" />
    <glyph glyph-name="Amacron" unicode="&#x100;" horiz-adv-x="1554" 
d="M833 1515l555 -1326q24 -56 52 -76t74 -20h54v-93h-694v93h65q77 0 106 17t29 45q0 22 -12 51l-115 274h-552l-54 -125q-33 -78 -33 -116q0 -65 48 -105.5t131 -40.5h47v-93h-561v93h32q54 0 95 34q58 48 90 123l531 1265h112zM672 1141l-236 -563h470zM418 1866h706
v-176h-706v176z" />
    <glyph glyph-name="amacron" unicode="&#x101;" horiz-adv-x="1251" 
d="M1176 116l42 -72q-61 -42 -109.5 -58t-106.5 -16q-86 0 -139 36.5t-97 137.5q-102 -101 -183 -137.5t-183 -36.5q-141 0 -220 65t-79 165q0 151 146 242q117 72 513 144v135q0 80 -53 130.5t-142 50.5q-68 0 -120 -29q-35 -19 -35 -38q0 -10 13 -30q28 -45 28 -89
q0 -56 -37 -90.5t-99 -34.5q-66 0 -106 37.5t-40 96.5q0 97 105 171q131 92 326 92q147 0 261 -46q73 -29 118.5 -101.5t45.5 -178.5v-475q0 -54 20 -78t55 -24q29 0 76 31zM760 499q-214 -29 -289.5 -89.5t-75.5 -159.5q0 -70 35.5 -107.5t99.5 -37.5q99 0 164.5 71
t65.5 194v129zM257 1386h706v-176h-706v176z" />
    <glyph glyph-name="Ccircumflex" unicode="&#x108;" horiz-adv-x="1593" 
d="M1266 1368l69 147h74l25 -593h-92q-43 256 -162 380t-272 124q-168 0 -278 -160t-110 -505q0 -365 121 -542q97 -139 286 -139t318 139q93 101 130 298h90q-32 -253 -193 -400t-396 -147q-304 0 -509.5 214.5t-205.5 549.5q0 372 237 594q202 189 473 189
q107 0 198.5 -33.5t196.5 -115.5zM690 1968h297l183 -376h-36l-295 219l-296 -219h-36z" />
    <glyph glyph-name="ccircumflex" unicode="&#x109;" horiz-adv-x="1139" 
d="M1009 338l78 -37q-61 -158 -188 -244.5t-302 -86.5q-237 0 -370 129.5t-133 348.5q0 236 157.5 388t417.5 152q187 0 286 -75.5t99 -182.5q0 -78 -43.5 -123.5t-114.5 -45.5q-62 0 -98.5 35.5t-36.5 92.5q0 49 40 114q17 27 17 38q0 20 -31 36q-44 25 -115 25
q-132 0 -191 -84q-79 -111 -79 -336t78.5 -316.5t202.5 -91.5q98 0 184.5 65.5t141.5 198.5zM442 1487h297l183 -376h-36l-295 219l-296 -219h-36z" />
    <glyph glyph-name="Cdot" unicode="&#x10a;" horiz-adv-x="1593" 
d="M1266 1368l69 147h74l25 -593h-92q-43 256 -162 380t-272 124q-168 0 -278 -160t-110 -505q0 -365 121 -542q97 -139 286 -139t318 139q93 101 130 298h90q-32 -253 -193 -400t-396 -147q-304 0 -509.5 214.5t-205.5 549.5q0 372 237 594q202 189 473 189
q107 0 198.5 -33.5t196.5 -115.5zM864 1915q55 0 94 -39t39 -94q0 -56 -39 -95t-94 -39q-56 0 -95 39t-39 95q0 55 39 94t95 39z" />
    <glyph glyph-name="cdot" unicode="&#x10b;" horiz-adv-x="1139" 
d="M1009 338l78 -37q-61 -158 -188 -244.5t-302 -86.5q-237 0 -370 129.5t-133 348.5q0 236 157.5 388t417.5 152q187 0 286 -75.5t99 -182.5q0 -78 -43.5 -123.5t-114.5 -45.5q-62 0 -98.5 35.5t-36.5 92.5q0 49 40 114q17 27 17 38q0 20 -31 36q-44 25 -115 25
q-132 0 -191 -84q-79 -111 -79 -336t78.5 -316.5t202.5 -91.5q98 0 184.5 65.5t141.5 198.5zM629 1434q55 0 94 -39t39 -94q0 -56 -39 -95t-94 -39q-56 0 -95 39t-39 95q0 55 39 94t95 39z" />
    <glyph glyph-name="Emacron" unicode="&#x112;" horiz-adv-x="1554" 
d="M71 1479h1288l29 -517h-88q-31 183 -77.5 263.5t-122 120.5t-197.5 40h-202q-47 0 -68 -18.5t-21 -51.5v-513h69q119 0 184.5 68t77.5 219h90v-688h-90q-9 171 -75 241t-199 70h-57v-547q0 -36 21 -51q32 -22 92 -22h178q183 0 299 117t144 353h90l-22 -563h-1343v93h133
q45 0 68.5 23t23.5 62v1138q0 36 -23.5 53t-84.5 17h-117v93zM401 1866h706v-176h-706v176z" />
    <glyph glyph-name="emacron" unicode="&#x113;" horiz-adv-x="1176" 
d="M1067 462h-657q3 -197 79.5 -290.5t196.5 -93.5q86 0 163 48t158 174l73 -45q-85 -150 -194.5 -214.5t-267.5 -64.5q-230 0 -372 140t-142 359t143 366t351 147q144 0 247.5 -59t161 -172.5t60.5 -294.5zM410 552h313q44 0 63 22t19 80q0 116 -53 179.5t-135 63.5
q-97 0 -148.5 -86t-58.5 -259zM240 1386h706v-176h-706v176z" />
    <glyph glyph-name="Ebreve" unicode="&#x114;" horiz-adv-x="1554" 
d="M71 1479h1288l29 -517h-88q-31 183 -77.5 263.5t-122 120.5t-197.5 40h-202q-47 0 -68 -18.5t-21 -51.5v-513h69q119 0 184.5 68t77.5 219h90v-688h-90q-9 171 -75 241t-199 70h-57v-547q0 -36 21 -51q32 -22 92 -22h178q183 0 299 117t144 353h90l-22 -563h-1343v93h133
q45 0 68.5 23t23.5 62v1138q0 36 -23.5 53t-84.5 17h-117v93zM1018 1935h63q-19 -154 -105.5 -239t-205.5 -85q-116 0 -200.5 88.5t-93.5 235.5h66q22 -65 78.5 -97t164.5 -32q92 0 146.5 31t86.5 98z" />
    <glyph glyph-name="ebreve" unicode="&#x115;" horiz-adv-x="1176" 
d="M1067 462h-657q3 -197 79.5 -290.5t196.5 -93.5q86 0 163 48t158 174l73 -45q-85 -150 -194.5 -214.5t-267.5 -64.5q-230 0 -372 140t-142 359t143 366t351 147q144 0 247.5 -59t161 -172.5t60.5 -294.5zM410 552h313q44 0 63 22t19 80q0 116 -53 179.5t-135 63.5
q-97 0 -148.5 -86t-58.5 -259zM857 1454h63q-19 -154 -105.5 -239t-205.5 -85q-116 0 -200.5 88.5t-93.5 235.5h66q22 -65 78.5 -97t164.5 -32q92 0 146.5 31t86.5 98z" />
    <glyph glyph-name="Edot" unicode="&#x116;" horiz-adv-x="1554" 
d="M71 1479h1288l29 -517h-88q-31 183 -77.5 263.5t-122 120.5t-197.5 40h-202q-47 0 -68 -18.5t-21 -51.5v-513h69q119 0 184.5 68t77.5 219h90v-688h-90q-9 171 -75 241t-199 70h-57v-547q0 -36 21 -51q32 -22 92 -22h178q183 0 299 117t144 353h90l-22 -563h-1343v93h133
q45 0 68.5 23t23.5 62v1138q0 36 -23.5 53t-84.5 17h-117v93zM779 1915q55 0 94 -39t39 -94q0 -56 -39 -95t-94 -39q-56 0 -95 39t-39 95q0 55 39 94t95 39z" />
    <glyph glyph-name="edot" unicode="&#x117;" horiz-adv-x="1176" 
d="M1067 462h-657q3 -197 79.5 -290.5t196.5 -93.5q86 0 163 48t158 174l73 -45q-85 -150 -194.5 -214.5t-267.5 -64.5q-230 0 -372 140t-142 359t143 366t351 147q144 0 247.5 -59t161 -172.5t60.5 -294.5zM410 552h313q44 0 63 22t19 80q0 116 -53 179.5t-135 63.5
q-97 0 -148.5 -86t-58.5 -259zM605 1434q55 0 94 -39t39 -94q0 -56 -39 -95t-94 -39q-56 0 -95 39t-39 95q0 55 39 94t95 39z" />
    <glyph glyph-name="Gcircumflex" unicode="&#x11c;" horiz-adv-x="1706" 
d="M1311 1517h71l36 -591h-89q-71 265 -192.5 382.5t-270.5 117.5q-114 0 -207.5 -68t-146.5 -212.5t-53 -394.5q0 -281 44 -418t134 -203.5t207 -66.5q154 0 241 87t87 231v135q0 37 -19.5 55.5t-56.5 18.5h-155v91h716v-91h-90q-48 0 -69.5 -19.5t-21.5 -54.5v-545h-78
l-125 249q-84 -130 -195.5 -190t-262.5 -60q-201 0 -366 96t-255 263t-90 401q0 345 212 566t519 221q114 0 203 -33.5t189 -117.5zM695 1968h297l183 -376h-36l-295 219l-296 -219h-36z" />
    <glyph glyph-name="gcircumflex" unicode="&#x11d;" horiz-adv-x="1251" 
d="M870 936q120 143 238 143q60 0 96 -35t36 -90q0 -49 -27.5 -78.5t-69.5 -29.5q-59 0 -85 63q-16 38 -38 38q-28 0 -76 -59q108 -109 108 -230q0 -94 -51 -170t-154.5 -121t-258.5 -45l-107 2q-119 0 -161 -24q-43 -24 -43 -62q0 -33 27 -49q35 -22 112 -22l92 3
q149 8 219 8q233 0 324 -66t91 -183q0 -140 -105 -225q-128 -104 -447 -104q-272 0 -382 63t-110 148q0 53 47 93t199 75q-99 20 -149 68t-50 124q0 69 37.5 117t134.5 85q-92 50 -138.5 119t-46.5 157q0 95 51 171.5t157 122t258 45.5q72 0 140 -13t132 -39zM592 900
q-69 0 -118.5 -64.5t-49.5 -185.5q0 -117 49 -179t120 -62q70 0 120 64t50 180q0 117 -50 182t-121 65zM984 -163q0 59 -66 86q-45 19 -200 19q-280 0 -361 -38t-81 -95q0 -54 63 -90.5t239 -36.5q229 0 330 53q76 41 76 102zM471 1487h297l183 -376h-36l-295 219l-296 -219
h-36z" />
    <glyph glyph-name="Gdot" unicode="&#x120;" horiz-adv-x="1706" 
d="M1311 1517h71l36 -591h-89q-71 265 -192.5 382.5t-270.5 117.5q-114 0 -207.5 -68t-146.5 -212.5t-53 -394.5q0 -281 44 -418t134 -203.5t207 -66.5q154 0 241 87t87 231v135q0 37 -19.5 55.5t-56.5 18.5h-155v91h716v-91h-90q-48 0 -69.5 -19.5t-21.5 -54.5v-545h-78
l-125 249q-84 -130 -195.5 -190t-262.5 -60q-201 0 -366 96t-255 263t-90 401q0 345 212 566t519 221q114 0 203 -33.5t189 -117.5zM856 1915q55 0 94 -39t39 -94q0 -56 -39 -95t-94 -39q-56 0 -95 39t-39 95q0 55 39 94t95 39z" />
    <glyph glyph-name="gdot" unicode="&#x121;" horiz-adv-x="1251" 
d="M870 936q120 143 238 143q60 0 96 -35t36 -90q0 -49 -27.5 -78.5t-69.5 -29.5q-59 0 -85 63q-16 38 -38 38q-28 0 -76 -59q108 -109 108 -230q0 -94 -51 -170t-154.5 -121t-258.5 -45l-107 2q-119 0 -161 -24q-43 -24 -43 -62q0 -33 27 -49q35 -22 112 -22l92 3
q149 8 219 8q233 0 324 -66t91 -183q0 -140 -105 -225q-128 -104 -447 -104q-272 0 -382 63t-110 148q0 53 47 93t199 75q-99 20 -149 68t-50 124q0 69 37.5 117t134.5 85q-92 50 -138.5 119t-46.5 157q0 95 51 171.5t157 122t258 45.5q72 0 140 -13t132 -39zM592 900
q-69 0 -118.5 -64.5t-49.5 -185.5q0 -117 49 -179t120 -62q70 0 120 64t50 180q0 117 -50 182t-121 65zM984 -163q0 59 -66 86q-45 19 -200 19q-280 0 -361 -38t-81 -95q0 -54 63 -90.5t239 -36.5q229 0 330 53q76 41 76 102zM632 1434q55 0 94 -39t39 -94q0 -56 -39 -95
t-94 -39q-56 0 -95 39t-39 95q0 55 39 94t95 39z" />
    <glyph glyph-name="Gcedilla" unicode="&#x122;" horiz-adv-x="1706" 
d="M914 -23q86 -11 127.5 -59.5t41.5 -108.5q0 -85 -87 -144t-261 -59q-76 0 -162 13v89l41 -1l72 -1q205 0 205 80q0 76 -254 76l86 113q-273 35 -446 233t-173 520q0 356 217 572.5t518 216.5q215 0 388 -151l84 151h71l36 -591h-89q-68 256 -190 377t-270 121
q-180 0 -295 -155.5t-115 -517.5q0 -424 110 -556t279 -132q146 0 235 86t89 232v132q0 75 -76 75h-155v93h716v-93h-90q-91 0 -91 -75v-542h-78l-125 249q-132 -210 -359 -243z" />
    <glyph glyph-name="gcedilla" unicode="&#x123;" horiz-adv-x="1251" 
d="M870 936q120 143 238 143q60 0 96 -35t36 -90q0 -49 -27.5 -78.5t-69.5 -29.5q-59 0 -85 63q-16 38 -38 38q-28 0 -76 -59q108 -109 108 -230q0 -94 -51 -170t-154.5 -121t-258.5 -45l-107 2q-119 0 -161 -24q-43 -24 -43 -62q0 -33 27 -49q35 -22 112 -22l92 3
q149 8 219 8q233 0 324 -66t91 -183q0 -140 -105 -225q-128 -104 -447 -104q-272 0 -382 63t-110 148q0 53 47 93t199 75q-99 20 -149 68t-50 124q0 69 37.5 117t134.5 85q-92 50 -138.5 119t-46.5 157q0 95 51 171.5t157 122t258 45.5q72 0 140 -13t132 -39zM592 900
q-69 0 -118.5 -64.5t-49.5 -185.5q0 -117 49 -179t120 -62q70 0 120 64t50 180q0 117 -50 182t-121 65zM984 -163q0 59 -66 86q-45 19 -200 19q-280 0 -361 -38t-81 -95q0 -54 63 -90.5t239 -36.5q229 0 330 53q76 41 76 102zM700 1484l7 -31q-70 -7 -104.5 -37t-34.5 -56
q0 -16 16 -16q4 0 9 1q17 3 30 3q48 0 80.5 -27.5t32.5 -65.5q0 -35 -33.5 -61.5t-81.5 -26.5q-58 0 -99 38t-41 95q0 69 56.5 122.5t162.5 61.5z" />
    <glyph glyph-name="Hcircumflex" unicode="&#x124;" horiz-adv-x="1782" 
d="M111 1479h685v-93h-101q-43 0 -64 -19t-21 -51v-485h564v460q0 53 -22.5 74t-75.5 21h-86v93h686v-93h-92q-53 0 -75 -20t-22 -62v-1117q0 -49 22.5 -71.5t63.5 -22.5h103v-93h-686v93h104q43 0 61.5 19t18.5 64v532h-564v-532q0 -43 18 -63t49 -20h119v-93h-685v93h110
q38 0 55.5 19.5t17.5 63.5v1115q0 52 -23 73.5t-74 21.5h-86v93zM741 1968h297l183 -376h-36l-295 219l-296 -219h-36z" />
    <glyph glyph-name="hcircumflex" unicode="&#x125;" horiz-adv-x="1403" 
d="M74 1479l442 22v-728q101 124 186 169.5t186 45.5q140 0 214 -85q84 -98 84 -277v-444q0 -46 21 -67.5t61 -21.5h65v-93h-565v93h61q51 0 69 19q25 25 25 70v436q0 94 -50.5 149.5t-126.5 55.5q-94 0 -162 -79t-68 -215v-347q0 -45 21.5 -67t61.5 -22h68v-93h-582v93h81
q43 0 65 23t22 66v1101q0 48 -30.5 75.5t-81.5 27.5h-67v93zM580 1952h297l183 -376h-36l-295 219l-296 -219h-36z" />
    <glyph glyph-name="Hbar" unicode="&#x126;" horiz-adv-x="1782" 
d="M609 1168h563v123q0 60 -26 77.5t-72 17.5h-89v93h689v-93h-90q-97 0 -97 -82v-136h175v-107h-175v-874q0 -94 86 -94h101v-93h-689v93h108q79 0 79 83v532h-563v-532q0 -83 67 -83h120v-93h-689v93h114q73 0 73 83v885h-175v107h175v123q0 57 -24.5 76t-72.5 19h-90v93
h689v-93h-102q-85 0 -85 -70v-148zM609 1061v-229h563v229h-563z" />
    <glyph glyph-name="hbar" unicode="&#x127;" horiz-adv-x="1403" 
d="M516 1239h335v-108h-335v-358q94 119 180.5 167.5t195.5 48.5q141 0 217.5 -95.5t76.5 -267.5v-444q0 -89 82 -89h65v-93h-565v93h61q94 0 94 89v436q0 94 -50.5 149.5t-126.5 55.5q-95 0 -162.5 -80.5t-67.5 -213.5v-347q0 -89 83 -89h68v-93h-582v93h81q87 0 87 89v949
h-179v108h179v44q0 49 -31.5 76t-80.5 27h-67v93l442 22v-262z" />
    <glyph glyph-name="Itilde" unicode="&#x128;" horiz-adv-x="909" 
d="M75 1479h758v-93h-137q-44 0 -64 -17.5t-20 -51.5v-1145q0 -40 21 -57q27 -22 78 -22h122v-93h-758v93h116q60 0 84.5 20t24.5 59v1132q0 42 -22.5 62t-70.5 20h-132v93zM775 1912h27q-5 -118 -71.5 -190t-151.5 -72q-35 0 -73 9t-165 56q-63 23 -96 23q-82 0 -116 -89
h-23q14 127 76.5 192.5t149.5 65.5q53 0 178 -44q113 -41 146 -41q98 0 119 90z" />
    <glyph glyph-name="itilde" unicode="&#x129;" horiz-adv-x="758" 
d="M114 936l416 19v-795q0 -32 20.5 -49.5t62.5 -17.5h63v-93h-562v93h62q50 0 70.5 23t20.5 80v542q0 51 -29.5 79t-81.5 28h-42v91zM658 1431h27q-5 -118 -71.5 -190t-151.5 -72q-35 0 -73 9t-165 56q-63 23 -96 23q-82 0 -116 -89h-23q14 127 76.5 192.5t149.5 65.5
q53 0 178 -44q113 -41 146 -41q98 0 119 90z" />
    <glyph glyph-name="Imacron" unicode="&#x12a;" horiz-adv-x="909" 
d="M75 1479h758v-93h-137q-44 0 -64 -17.5t-20 -51.5v-1145q0 -40 21 -57q27 -22 78 -22h122v-93h-758v93h116q60 0 84.5 20t24.5 59v1132q0 42 -22.5 62t-70.5 20h-132v93zM101 1866h706v-176h-706v176z" />
    <glyph glyph-name="imacron" unicode="&#x12b;" horiz-adv-x="758" 
d="M114 936l416 19v-795q0 -32 20.5 -49.5t62.5 -17.5h63v-93h-562v93h62q50 0 70.5 23t20.5 80v542q0 51 -29.5 79t-81.5 28h-42v91zM18 1386h706v-176h-706v176z" />
    <glyph glyph-name="Ibreve" unicode="&#x12c;" horiz-adv-x="909" 
d="M75 1479h758v-93h-137q-44 0 -64 -17.5t-20 -51.5v-1145q0 -40 21 -57q27 -22 78 -22h122v-93h-758v93h116q60 0 84.5 20t24.5 59v1132q0 42 -22.5 62t-70.5 20h-132v93zM694 1935h63q-19 -154 -105.5 -239t-205.5 -85q-116 0 -200.5 88.5t-93.5 235.5h66
q22 -65 78.5 -97t164.5 -32q92 0 146.5 31t86.5 98z" />
    <glyph glyph-name="ibreve" unicode="&#x12d;" horiz-adv-x="758" 
d="M114 936l416 19v-795q0 -32 20.5 -49.5t62.5 -17.5h63v-93h-562v93h62q50 0 70.5 23t20.5 80v542q0 51 -29.5 79t-81.5 28h-42v91zM610 1454h63q-19 -154 -105.5 -239t-205.5 -85q-116 0 -200.5 88.5t-93.5 235.5h66q22 -65 78.5 -97t164.5 -32q92 0 146.5 31t86.5 98z
" />
    <glyph glyph-name="Iogonek" unicode="&#x12e;" horiz-adv-x="909" 
d="M525 0q-74 -59 -74 -136q0 -78 69.5 -152.5t208.5 -74.5l29 -34q-86 -71 -199 -71q-118 0 -202.5 74t-84.5 172q0 137 152 222h-349v93h116q109 0 109 79v1132q0 82 -93 82h-132v93h758v-93h-137q-84 0 -84 -69v-1145q0 -79 99 -79h122v-93h-308z" />
    <glyph glyph-name="iogonek" unicode="&#x12f;" horiz-adv-x="758" 
d="M534 1313q0 -67 -48 -115t-115 -48q-68 0 -116 48t-48 115t48 115t116 48q67 0 115 -47.5t48 -115.5zM437 0q-74 -59 -74 -136q0 -78 69 -152.5t208 -74.5l30 -34q-86 -71 -199 -71q-114 0 -200.5 73t-86.5 173q0 137 152 222h-222v93h62q50 0 70.5 23t20.5 80v542
q0 107 -111 107h-42v91l416 19v-795q0 -67 83 -67h63v-93h-239z" />
    <glyph glyph-name="Jcircumflex" unicode="&#x134;" horiz-adv-x="1327" 
d="M519 1479h727v-93h-87q-48 0 -70 -21.5t-22 -65.5v-900q0 -187 -135 -308q-136 -121 -367 -121q-213 0 -346.5 115.5t-133.5 266.5q0 117 67.5 190.5t164.5 73.5q83 0 140 -55.5t57 -135.5q0 -76 -41 -122t-99 -46q-13 0 -36 4q-31 7 -44 7q-27 0 -38 -10
q-11 -11 -11 -34q0 -58 59 -100q79 -55 189 -55q122 0 191 79.5t69 230.5v920q0 45 -21.5 66t-63.5 21h-149v93zM729 1968h297l183 -376h-36l-295 219l-296 -219h-36z" />
    <glyph glyph-name="jcircumflex" unicode="&#x135;" horiz-adv-x="721" 
d="M199 1487h297l183 -376h-36l-295 219l-296 -219h-36zM99 936l421 27v-856q0 -187 -127 -344t-297 -157q-73 0 -121 38.5t-48 105.5q0 59 35.5 93.5t86.5 34.5q77 0 95 -84q15 -73 51 -73q64 0 64 127v896q0 55 -30 80.5t-71 25.5h-59v86z" />
    <glyph glyph-name="Kcedilla" unicode="&#x136;" horiz-adv-x="1669" 
d="M93 1479h733v-93h-120q-58 0 -79 -18t-21 -59v-653l488 562q42 49 42 90q0 35 -26 53q-36 25 -97 25h-41v93h609v-93h-38q-82 0 -152 -41q-103 -61 -206 -181l-188 -218l438 -756q28 -48 66 -69q50 -28 99 -28h58v-93h-726v93h74q60 0 86 16t26 37q0 12 -8 25l-316 543
l-188 -219v-324q0 -39 20.5 -58.5t56.5 -19.5h134v-93h-724v93h105q46 0 68.5 20t22.5 58v1145q0 35 -21.5 52.5t-69.5 17.5h-105v93zM645 -86q107 9 172 9q205 0 205 -147q0 -79 -77.5 -139t-226.5 -60q-54 0 -117 7l5 93q39 -2 59 -2q165 0 165 79q0 68 -188 68z" />
    <glyph glyph-name="kcedilla" unicode="&#x137;" horiz-adv-x="1366" 
d="M58 1488l442 13v-1027l277 223q66 54 66 91q0 23 -27 40.5t-87 17.5h-33v90h545v-90q-87 -3 -136 -22q-67 -26 -127 -76l-158 -131l346 -469q42 -55 101 -55h50v-93h-588v93h58q42 0 59 9.5t17 21.5q0 11 -10 24l-225 313l-128 -101v-186q0 -44 18 -62.5t59 -18.5h65v-93
h-574v93h71q51 0 74.5 24.5t23.5 74.5v1128q0 38 -23.5 58t-66.5 20h-89v90zM493 -86q107 9 172 9q205 0 205 -147q0 -79 -77.5 -139t-226.5 -60q-54 0 -117 7l5 93q39 -2 59 -2q165 0 165 79q0 68 -188 68z" />
    <glyph glyph-name="kgreenlandic" unicode="&#x138;" horiz-adv-x="1393" 
d="M84 936l442 21v-483l277 223q66 54 66 90q0 56 -114 56h-33v93h545v-93q-149 -1 -263 -95l-158 -131l346 -469q42 -55 101 -55h50v-93h-588v93h58q76 0 76 31q0 11 -10 24l-225 313l-128 -101v-186q0 -81 77 -81h65v-93h-574v93h71q98 0 98 99v573q0 78 -90 78h-89v93z
" />
    <glyph glyph-name="Lcedilla" unicode="&#x13b;" horiz-adv-x="1479" 
d="M85 1386v93h759v-93h-128q-55 0 -77 -21t-22 -68v-1100q0 -67 21 -85.5t99 -18.5h213q119 0 222 113t158 361h90l-34 -567h-1301v93h130q43 0 65 22t22 62v1131q0 41 -22.5 59.5t-77.5 18.5h-117zM549 -86q107 9 172 9q205 0 205 -147q0 -79 -77.5 -139t-226.5 -60
q-54 0 -117 7l5 93q39 -2 59 -2q165 0 165 79q0 68 -188 68z" />
    <glyph glyph-name="lcedilla" unicode="&#x13c;" horiz-adv-x="721" 
d="M73 1479l438 22v-1331q0 -36 23 -56.5t66 -20.5h59v-93h-563v93h64q44 0 65.5 23.5t21.5 71.5v1093q0 51 -28 78.5t-76 27.5h-70v92zM181 -86q107 9 172 9q205 0 205 -147q0 -79 -77.5 -139t-226.5 -60q-54 0 -117 7l5 93q39 -2 59 -2q165 0 165 79q0 68 -188 68z" />
    <glyph glyph-name="Ncedilla" unicode="&#x145;" horiz-adv-x="1706" 
d="M75 1479h459l801 -1014v689q0 102 -58 163.5t-165 68.5v93h540v-93q-113 -12 -162 -67.5t-49 -164.5v-1154h-115l-912 1168v-809q0 -139 63.5 -202.5t157.5 -63.5h25v-93h-597v93h41q88 0 148 70t60 180v956q-67 87 -171 87h-66v93zM673 -86q107 9 172 9q205 0 205 -147
q0 -79 -77.5 -139t-226.5 -60q-54 0 -117 7l5 93q39 -2 59 -2q165 0 165 79q0 68 -188 68z" />
    <glyph glyph-name="ncedilla" unicode="&#x146;" horiz-adv-x="1403" 
d="M1347 93v-93h-563v93h59q47 0 70 24t23 70v406q0 104 -47.5 159.5t-124.5 55.5q-105 0 -171 -78.5t-66 -229.5v-313q0 -46 23.5 -70t60.5 -24h71v-93h-584v93h76q44 0 66.5 24t22.5 70v557q0 48 -32.5 76.5t-85.5 28.5h-40v87l390 21q21 -86 32 -205q82 111 175 166
t196 55q140 0 221 -93q80 -93 80 -259v-434q0 -50 23 -72t73 -22h52zM521 -86q107 9 172 9q205 0 205 -147q0 -79 -77.5 -139t-226.5 -60q-54 0 -117 7l5 93q39 -2 59 -2q165 0 165 79q0 68 -188 68z" />
    <glyph glyph-name="Eng" unicode="&#x14a;" horiz-adv-x="1747" 
d="M610 1117v-941q0 -83 67 -83h41v-93h-610v93h114q73 0 73 83v1115q0 55 -23 75t-74 20h-90v93h502v-178q148 216 397 216q273 0 456 -217t183 -542q0 -322 -150 -555t-408 -233q-171 0 -262.5 104.5t-91.5 258.5q0 116 61.5 190.5t153.5 74.5q76 0 126 -50t50 -122
q0 -64 -33.5 -109t-90.5 -45q-12 0 -35 5q-29 5 -42 5q-48 0 -48 -52q0 -62 53.5 -111.5t119.5 -49.5q239 0 239 656q0 682 -336 682q-114 0 -206.5 -77.5t-135.5 -212.5z" />
    <glyph glyph-name="eng" unicode="&#x14b;" horiz-adv-x="1364" 
d="M936 593q0 103 -46.5 159t-125.5 56q-97 0 -167 -76.5t-70 -231.5v-313q0 -94 84 -94h71v-93h-584v93h76q89 0 89 94v557q0 46 -31 75.5t-87 29.5h-40v87l390 21q22 -87 32 -205q159 218 372 218q134 0 217 -88.5t83 -260.5v-514q0 -104 -60 -237t-162 -198.5t-202 -65.5
q-73 0 -121 38.5t-48 105.5q0 59 36 93.5t86 34.5q77 0 95 -84q15 -73 51 -73q62 0 62 127v745z" />
    <glyph glyph-name="Omacron" unicode="&#x14c;" horiz-adv-x="1706" 
d="M846 1517q209 0 385.5 -101t275 -275.5t98.5 -393.5q0 -333 -217.5 -555t-539.5 -222q-214 0 -383.5 101t-267.5 272.5t-98 398.5q0 337 215 556t532 219zM852 1421q-119 0 -206.5 -65.5t-139 -211.5t-51.5 -400q0 -267 47.5 -404.5t138.5 -203.5t212 -66
q179 0 286 153.5t107 533.5q0 266 -46 399.5t-137 199t-211 65.5zM500 1866h706v-176h-706v176z" />
    <glyph glyph-name="omacron" unicode="&#x14d;" horiz-adv-x="1251" 
d="M617 988q157 0 288.5 -68t195.5 -177.5t64 -263.5q0 -246 -167.5 -377.5t-379.5 -131.5q-150 0 -274.5 67.5t-191.5 182t-67 258.5q0 217 151.5 363.5t380.5 146.5zM623 893q-104 0 -165.5 -91.5t-61.5 -321.5q0 -239 61 -329.5t165 -90.5q106 0 171 93t65 321
q0 234 -64 326.5t-171 92.5zM273 1386h706v-176h-706v176z" />
    <glyph glyph-name="Obreve" unicode="&#x14e;" horiz-adv-x="1706" 
d="M846 1517q209 0 385.5 -101t275 -275.5t98.5 -393.5q0 -333 -217.5 -555t-539.5 -222q-214 0 -383.5 101t-267.5 272.5t-98 398.5q0 337 215 556t532 219zM852 1421q-119 0 -206.5 -65.5t-139 -211.5t-51.5 -400q0 -267 47.5 -404.5t138.5 -203.5t212 -66
q179 0 286 153.5t107 533.5q0 266 -46 399.5t-137 199t-211 65.5zM1092 1935h63q-19 -154 -105.5 -239t-205.5 -85q-116 0 -200.5 88.5t-93.5 235.5h66q22 -65 78.5 -97t164.5 -32q92 0 146.5 31t86.5 98z" />
    <glyph glyph-name="obreve" unicode="&#x14f;" horiz-adv-x="1251" 
d="M617 988q157 0 288.5 -68t195.5 -177.5t64 -263.5q0 -246 -167.5 -377.5t-379.5 -131.5q-150 0 -274.5 67.5t-191.5 182t-67 258.5q0 217 151.5 363.5t380.5 146.5zM623 893q-104 0 -165.5 -91.5t-61.5 -321.5q0 -239 61 -329.5t165 -90.5q106 0 171 93t65 321
q0 234 -64 326.5t-171 92.5zM866 1454h63q-19 -154 -105.5 -239t-205.5 -85q-116 0 -200.5 88.5t-93.5 235.5h66q22 -65 78.5 -97t164.5 -32q92 0 146.5 31t86.5 98z" />
    <glyph glyph-name="Rcedilla" unicode="&#x156;" horiz-adv-x="1669" 
d="M121 1479h772q188 0 306.5 -48.5t176.5 -132t58 -185.5q0 -163 -146 -264q-111 -77 -342 -100q116 -19 178.5 -60.5t110.5 -123.5q63 -108 103 -259q25 -97 44 -122t43 -25q66 0 79 175h88q-10 -186 -83 -266.5t-206 -80.5q-95 0 -152.5 39t-87.5 114q-18 43 -50 202
q-37 186 -66.5 250t-76.5 95t-116 31h-109v-545q0 -36 21 -55q30 -25 70 -25h134v-93h-749v93h116q45 0 68 23.5t23 65.5v1115q0 46 -21 67.5t-60 21.5h-126v93zM645 808h125q166 0 262 85q72 65 72 219q0 142 -71 207.5t-246 65.5q-94 0 -118 -20.5t-24 -91.5v-465z
M645 -86q107 9 172 9q205 0 205 -147q0 -79 -77.5 -139t-226.5 -60q-54 0 -117 7l5 93q39 -2 59 -2q165 0 165 79q0 68 -188 68z" />
    <glyph glyph-name="rcedilla" unicode="&#x157;" horiz-adv-x="1063" 
d="M741 93v-93h-654v93h81q50 0 73 19.5t23 52.5v554q0 67 -30.5 98t-85.5 31h-53v88l400 21v-305q35 153 122 235t196 82q93 0 147 -49.5t54 -127.5q0 -67 -37.5 -108.5t-91.5 -41.5q-48 0 -82.5 36t-34.5 92q0 31 17 65q9 19 9 27q0 14 -6.5 20.5t-20.5 6.5q-36 0 -79 -42
q-66 -65 -111 -202.5t-45 -277.5v-202q0 -35 19 -53.5t53 -18.5h137zM301 -86q107 9 172 9q205 0 205 -147q0 -79 -77.5 -139t-226.5 -60q-54 0 -117 7l5 93q39 -2 59 -2q165 0 165 79q0 68 -188 68z" />
    <glyph glyph-name="Scircumflex" unicode="&#x15c;" horiz-adv-x="1366" 
d="M1013 1366l93 132h71l9 -511h-90q-70 220 -199 329.5t-285 109.5q-133 0 -216.5 -72.5t-83.5 -173.5q0 -60 33 -110t106.5 -85.5t257.5 -73.5q215 -45 297 -81q130 -58 195 -153.5t65 -232.5q0 -205 -141 -327q-170 -147 -421 -147q-231 0 -422 161l-117 -146h-73v548h87
q131 -469 532 -469q164 0 255 75.5t91 188.5q0 79 -40 132.5t-124 86.5q-46 18 -228 57q-245 54 -349.5 111.5t-153.5 141t-49 203.5q0 202 135.5 329.5t363.5 127.5q219 0 401 -151zM534 1971h297l183 -376h-36l-295 219l-296 -219h-36z" />
    <glyph glyph-name="scircumflex" unicode="&#x15d;" horiz-adv-x="1024" 
d="M742 908l66 79h61l20 -320h-81q-64 127 -140.5 178.5t-185.5 51.5q-94 0 -143 -36t-49 -91q0 -54 38 -82q38 -29 208 -63q154 -31 205 -52q97 -39 151.5 -116t54.5 -180q0 -130 -104.5 -218.5t-274.5 -88.5q-82 0 -148.5 19.5t-138.5 68.5l-71 -84h-76l-18 354h83
q106 -268 364 -268q106 0 162 41t56 98q0 52 -35 79t-186 58q-163 33 -222 57q-101 39 -152 108.5t-51 167.5q0 140 93 229.5t249 89.5q76 0 136.5 -18t128.5 -62zM386 1487h297l183 -376h-36l-295 219l-296 -219h-36z" />
    <glyph glyph-name="Tbar" unicode="&#x166;" horiz-adv-x="1479" 
d="M906 787h378v-107h-378v-512q0 -34 20.5 -54.5t49.5 -20.5h168v-93h-791v93h160q78 0 78 75v512h-378v107h378v519q0 78 -89 78q-257 0 -345 -467h-88l32 562h1293l33 -562h-91q-79 467 -343 467q-87 0 -87 -72v-525z" />
    <glyph glyph-name="tbar" unicode="&#x167;" horiz-adv-x="872" 
d="M477 648h309v-108h-309v-307q0 -124 109 -124q140 0 148 261h90q-3 -209 -99 -304.5t-235 -95.5q-135 0 -207.5 81.5t-72.5 200.5v288h-166v108h166v180h-166v92q304 33 343 401h90v-385h309v-108h-309v-180z" />
    <glyph glyph-name="Utilde" unicode="&#x168;" horiz-adv-x="1706" 
d="M63 1479h744v-93h-151q-32 0 -50 -21.5t-18 -65.5v-818q0 -173 92 -265.5t254 -92.5q119 0 216 51q71 38 116.5 125t45.5 219v628q0 120 -53.5 180t-143.5 60h-22v93h564v-93h-39q-88 0 -134 -66.5t-46 -164.5v-681q0 -227 -152 -365q-153 -139 -420 -139
q-191 0 -332.5 62.5t-201 161t-59.5 260.5v831q0 58 -22 79.5t-79 21.5h-109v93zM1206 1912h27q-5 -118 -71.5 -190t-151.5 -72q-35 0 -73 9t-165 56q-63 23 -96 23q-82 0 -116 -89h-23q14 127 76.5 192.5t149.5 65.5q53 0 178 -44q113 -41 146 -41q98 0 119 90z" />
    <glyph glyph-name="utilde" unicode="&#x169;" horiz-adv-x="1403" 
d="M82 936l418 24v-624q0 -87 47 -137.5t122 -50.5q106 0 169.5 84t63.5 197v306q0 54 -30 82t-82 28h-46v91l422 24v-758q0 -51 31.5 -80t83.5 -29h43v-93l-387 -12q-24 100 -28 214q-97 -123 -187 -173t-187 -50q-96 0 -161.5 40t-104.5 127t-39 211v372q0 61 -31 87.5
t-117 28.5v91zM1025 1431h27q-5 -118 -71.5 -190t-151.5 -72q-35 0 -73 9t-165 56q-63 23 -96 23q-82 0 -116 -89h-23q14 127 76.5 192.5t149.5 65.5q53 0 178 -44q113 -41 146 -41q98 0 119 90z" />
    <glyph glyph-name="Umacron" unicode="&#x16a;" horiz-adv-x="1706" 
d="M63 1479h744v-93h-151q-32 0 -50 -21.5t-18 -65.5v-818q0 -173 92 -265.5t254 -92.5q119 0 216 51q71 38 116.5 125t45.5 219v628q0 120 -53.5 180t-143.5 60h-22v93h564v-93h-39q-88 0 -134 -66.5t-46 -164.5v-681q0 -227 -152 -365q-153 -139 -420 -139
q-191 0 -332.5 62.5t-201 161t-59.5 260.5v831q0 58 -22 79.5t-79 21.5h-109v93zM507 1866h706v-176h-706v176z" />
    <glyph glyph-name="umacron" unicode="&#x16b;" horiz-adv-x="1403" 
d="M82 936l418 24v-624q0 -87 47 -137.5t122 -50.5q106 0 169.5 84t63.5 197v306q0 54 -30 82t-82 28h-46v91l422 24v-758q0 -51 31.5 -80t83.5 -29h43v-93l-387 -12q-24 100 -28 214q-97 -123 -187 -173t-187 -50q-96 0 -161.5 40t-104.5 127t-39 211v372q0 61 -31 87.5
t-117 28.5v91zM348 1386h706v-176h-706v176z" />
    <glyph glyph-name="Ubreve" unicode="&#x16c;" horiz-adv-x="1706" 
d="M63 1479h744v-93h-151q-32 0 -50 -21.5t-18 -65.5v-818q0 -173 92 -265.5t254 -92.5q119 0 216 51q71 38 116.5 125t45.5 219v628q0 120 -53.5 180t-143.5 60h-22v93h564v-93h-39q-88 0 -134 -66.5t-46 -164.5v-681q0 -227 -152 -365q-153 -139 -420 -139
q-191 0 -332.5 62.5t-201 161t-59.5 260.5v831q0 58 -22 79.5t-79 21.5h-109v93zM1100 1935h63q-19 -154 -105.5 -239t-205.5 -85q-116 0 -200.5 88.5t-93.5 235.5h66q22 -65 78.5 -97t164.5 -32q92 0 146.5 31t86.5 98z" />
    <glyph glyph-name="ubreve" unicode="&#x16d;" horiz-adv-x="1403" 
d="M82 936l418 24v-624q0 -87 47 -137.5t122 -50.5q106 0 169.5 84t63.5 197v306q0 54 -30 82t-82 28h-46v91l422 24v-758q0 -51 31.5 -80t83.5 -29h43v-93l-387 -12q-24 100 -28 214q-97 -123 -187 -173t-187 -50q-96 0 -161.5 40t-104.5 127t-39 211v372q0 61 -31 87.5
t-117 28.5v91zM941 1454h63q-19 -154 -105.5 -239t-205.5 -85q-116 0 -200.5 88.5t-93.5 235.5h66q22 -65 78.5 -97t164.5 -32q92 0 146.5 31t86.5 98z" />
    <glyph glyph-name="Uogonek" unicode="&#x172;" horiz-adv-x="1706" 
d="M997 -20q-51 -56 -51 -119q0 -74 68.5 -149t208.5 -75l30 -34q-87 -71 -199 -71q-115 0 -201 72.5t-86 173.5q0 109 106 192q-197 0 -338.5 62t-201.5 161t-60 261v831q0 66 -25.5 83.5t-75.5 17.5h-109v93h744v-93h-151q-68 0 -68 -87v-818q0 -191 101.5 -274.5
t245.5 -83.5q175 0 276 97t101 298v628q0 122 -54.5 181t-142.5 59h-22v93h564v-93h-39q-89 0 -134.5 -68t-45.5 -163v-681q0 -203 -117 -331.5t-324 -162.5z" />
    <glyph glyph-name="uogonek" unicode="&#x173;" horiz-adv-x="1403" 
d="M1134 -6q-74 -52 -74 -136q0 -73 68 -147t209 -74l29 -34q-86 -71 -198 -71q-115 0 -201 72.5t-86 173.5q0 124 138 213l-82 -3q-25 99 -28 214q-174 -232 -377 -232q-138 0 -220 96t-82 291v372q0 60 -30.5 88t-117.5 28v91l418 24v-624q0 -86 44.5 -141.5t126.5 -55.5
q99 0 165 85t66 205v306q0 110 -112 110h-46v91l422 24v-758q0 -109 115 -109h43v-93z" />
    <glyph glyph-name="Wcircumflex" unicode="&#x174;" horiz-adv-x="2009" 
d="M-73 1479h595v-93h-56q-53 0 -71.5 -12.5t-18.5 -37.5q0 -18 7 -41l294 -873l256 762l-44 127q-14 40 -39 55q-33 20 -87 20h-72v93h685v-93h-63q-69 0 -93.5 -16t-24.5 -47q0 -13 5 -28l292 -873l245 769q12 35 12 68q0 61 -32.5 94t-85.5 33h-42v93h482v-93
q-80 -2 -127.5 -37.5t-69.5 -105.5l-410 -1270h-123l-348 1038l-349 -1038h-122l-452 1338q-14 42 -37 58.5t-59 16.5h-47v93zM850 1968h297l183 -376h-36l-295 219l-296 -219h-36z" />
    <glyph glyph-name="wcircumflex" unicode="&#x175;" horiz-adv-x="1821" 
d="M103 936h483v-88h-28q-46 0 -63.5 -12.5t-17.5 -32.5q0 -14 7 -29l196 -433l169 403q-41 77 -63 89q-25 15 -84 15v88h524v-88h-31q-48 0 -66 -13.5t-18 -35.5q0 -26 14 -55l185 -403l160 391q6 17 6 36q0 37 -20.5 58.5t-53.5 21.5h-38v88h373v-88q-116 -8 -165 -128
l-302 -752h-75l-289 646l-263 -646h-76l-357 806q-20 43 -40.5 57.5t-66.5 16.5v88zM772 1487h297l183 -376h-36l-295 219l-296 -219h-36z" />
    <glyph glyph-name="Ycircumflex" unicode="&#x176;" horiz-adv-x="1479" 
d="M-10 1479h736v-93h-102q-54 0 -75 -13.5t-21 -35.5q0 -25 18 -57l308 -530l216 430q27 53 27 98q0 50 -35 79t-106 29h-45v93h572v-93q-99 -2 -159 -39.5t-102 -120.5l-297 -587v-465q0 -41 22.5 -61t70.5 -20h153v-93h-810v93h152q52 0 73 19.5t21 61.5v413l-398 685
q-38 66 -80.5 90t-106.5 24h-32v93zM588 1968h297l183 -376h-36l-295 219l-296 -219h-36z" />
    <glyph glyph-name="ycircumflex" unicode="&#x177;" horiz-adv-x="1251" 
d="M68 936h553v-86h-53q-48 0 -68 -14t-20 -36q0 -25 17 -57l233 -454l196 411q16 34 16 62q0 40 -30 64t-88 24h-29v86h407v-86q-60 -2 -95 -26.5t-62 -80.5l-373 -781q-95 -200 -201 -291q-81 -68 -182 -68q-105 0 -166 51t-61 126q0 56 35.5 91.5t89.5 35.5
q55 0 90 -34.5t35 -86.5q0 -17 -7 -43q-4 -15 -4 -23q0 -24 26 -24q46 0 115 74.5t151 237.5l-399 768q-22 43 -45 58.5t-55 15.5h-26v86zM484 1487h297l183 -376h-36l-295 219l-296 -219h-36z" />
    <glyph glyph-name="longs" unicode="&#x17f;" horiz-adv-x="745" 
d="M712 93v-93h-676v93h97q78 0 78 69v810q0 545 452 545q131 0 205 -64.5t74 -162.5q0 -76 -45 -126t-108 -50q-57 0 -98.5 37.5t-41.5 94.5q0 58 60 104q29 22 29 37q0 37 -76 37q-85 0 -134.5 -77.5t-49.5 -214.5v-970q0 -41 15.5 -55t53.5 -14h165z" />
    <glyph glyph-name="Aringacute" unicode="&#x1fa;" horiz-adv-x="1554" 
d="M833 1515l555 -1326q24 -56 52 -76t74 -20h54v-93h-694v93h65q77 0 106 17t29 45q0 22 -12 51l-115 274h-552l-54 -125q-33 -78 -33 -116q0 -65 48 -105.5t131 -40.5h47v-93h-561v93h32q54 0 95 34q58 48 90 123l531 1265h112zM672 1141l-236 -563h470zM770 1978
q88 0 150 -62t62 -150q0 -87 -62 -149t-150 -62q-87 0 -149 62t-62 150q0 87 62 149t149 62zM771 1885q-49 0 -84 -35t-35 -84t35 -84t84 -35t84 35t35 84t-35 84t-84 35zM603 1964l-28 23l162 231q77 110 158 110q45 0 81.5 -33.5t36.5 -70.5q0 -40 -26.5 -70.5
t-119.5 -71.5z" />
    <glyph glyph-name="aringacute" unicode="&#x1fb;" horiz-adv-x="1251" 
d="M1176 116l42 -72q-61 -42 -109.5 -58t-106.5 -16q-86 0 -139 36.5t-97 137.5q-102 -101 -183 -137.5t-183 -36.5q-141 0 -220 65t-79 165q0 151 146 242q117 72 513 144v135q0 80 -53 130.5t-142 50.5q-68 0 -120 -29q-35 -19 -35 -38q0 -10 13 -30q28 -45 28 -89
q0 -56 -37 -90.5t-99 -34.5q-66 0 -106 37.5t-40 96.5q0 97 105 171q131 92 326 92q147 0 261 -46q73 -29 118.5 -101.5t45.5 -178.5v-475q0 -54 20 -78t55 -24q29 0 76 31zM760 499q-214 -29 -289.5 -89.5t-75.5 -159.5q0 -70 35.5 -107.5t99.5 -37.5q99 0 164.5 71
t65.5 194v129zM599 1502q88 0 150 -62t62 -150q0 -87 -62 -149t-150 -62q-87 0 -149 62t-62 150q0 87 62 149t149 62zM600 1409q-49 0 -84 -35t-35 -84t35 -84t84 -35t84 35t35 84t-35 84t-84 35zM467 1538l-28 23l162 231q77 110 158 110q45 0 81.5 -33.5t36.5 -70.5
q0 -40 -26.5 -70.5t-119.5 -71.5z" />
    <glyph glyph-name="AEacute" unicode="&#x1fc;" horiz-adv-x="2009" 
d="M462 1386v93h1380l29 -499h-87q-36 224 -121.5 315t-213.5 91h-161q-56 0 -79 -20t-23 -61v-515h48q102 0 164.5 70t70.5 210h88v-666h-88q-6 161 -70 229t-185 68h-28v-535q0 -38 21 -55q28 -24 70 -24h143q179 0 283.5 107t138.5 355h88l-27 -549h-1250v87h145
q43 0 65.5 23.5t22.5 63.5v454h-424l-189 -336q-29 -52 -29 -99q0 -37 14.5 -60.5t45.5 -36.5q21 -9 85 -9v-87h-471v87q139 21 231 185l555 1001q21 38 21 63t-23 37.5t-107 12.5h-133zM886 1395l-373 -675h373v675zM962 1596l-28 23l162 231q77 110 158 110
q45 0 81.5 -33.5t36.5 -70.5q0 -40 -26.5 -70.5t-119.5 -71.5z" />
    <glyph glyph-name="aeacute" unicode="&#x1fd;" horiz-adv-x="1782" 
d="M942 899q144 89 289 89q119 0 219.5 -61.5t156.5 -173t61 -291.5h-644q0 -191 77 -288.5t189 -97.5q83 0 162.5 51.5t150.5 173.5l73 -47q-78 -148 -188 -216t-261 -68q-137 0 -240 50t-187 160q-124 -125 -209.5 -167.5t-184.5 -42.5q-134 0 -210.5 67.5t-76.5 169.5
q0 84 48 152t156.5 113t438.5 120v125q0 86 -53.5 135.5t-149.5 49.5q-72 0 -110 -22q-27 -16 -27 -41q0 -12 12 -33q27 -44 27 -85q0 -53 -37.5 -89.5t-93.5 -36.5q-62 0 -103 39t-41 97q0 91 118.5 174t335.5 83q81 0 156.5 -22t145.5 -67zM1024 553h299q44 0 63.5 22.5
t19.5 82.5q0 115 -52 179.5t-129 64.5q-85 0 -141.5 -80.5t-59.5 -268.5zM762 505q-203 -33 -278.5 -96.5t-75.5 -156.5q0 -74 34 -108t105 -34q85 0 150 71t65 170v154zM786 1116l-28 23l162 231q77 110 158 110q45 0 81.5 -33.5t36.5 -70.5q0 -40 -26.5 -70.5
t-119.5 -71.5z" />
    <glyph glyph-name="Oslashacute" unicode="&#x1fe;" horiz-adv-x="1706" 
d="M1390 1295q215 -221 215 -548q0 -333 -217.5 -555t-539.5 -222q-143 0 -255 39.5t-216 124.5l-117 -134h-119l170 195q-108 111 -160 242t-52 304q0 337 214.5 556.5t528.5 219.5q279 0 481 -162l109 124h118zM486 396l699 800q-45 109 -132 167t-202 58
q-118 0 -205.5 -66t-139 -211.5t-51.5 -403.5q0 -219 31 -344zM1216 1097l-698 -800q45 -109 133 -168t202 -59q117 0 206 68t138 211t49 415q0 201 -30 333zM677 1596l-28 23l162 231q77 110 158 110q45 0 81.5 -33.5t36.5 -70.5q0 -40 -26.5 -70.5t-119.5 -71.5z" />
    <glyph glyph-name="oslashacute" unicode="&#x1ff;" horiz-adv-x="1251" 
d="M1035 828q130 -133 130 -349q0 -245 -167.5 -377t-379.5 -132q-174 0 -313 90l-86 -90h-120l137 144q-69 63 -110 158t-41 206q0 217 151.5 363.5t379.5 146.5q202 0 353 -104l99 104h119zM409 296l417 438q-52 159 -203 159q-104 0 -165.5 -92t-61.5 -326
q0 -100 13 -179zM848 631l-414 -434q23 -64 73.5 -100.5t114.5 -36.5q106 0 171 93t65 321q0 93 -10 157zM451 1116l-28 23l162 231q77 110 158 110q45 0 81.5 -33.5t36.5 -70.5q0 -40 -26.5 -70.5t-119.5 -71.5z" />
    <glyph glyph-name="tonos" unicode="&#x384;" horiz-adv-x="682" 
d="M361 1112h-36l-80 212q-16 42 -16 53q0 72 24 106t89 34q112 0 112 -102q0 -41 -18 -91z" />
    <glyph glyph-name="dieresistonos" unicode="&#x385;" horiz-adv-x="682" 
d="M362 1112h-36l-80 212q-16 42 -16 53q0 72 24 106t89 34q112 0 112 -102q0 -41 -18 -91zM171 1302q0 -49 -35.5 -84t-84.5 -35q-48 0 -83.5 34.5t-35.5 84.5t35.5 85t84.5 35t84 -35t35 -85zM751 1302q0 -49 -35.5 -84t-84.5 -35q-48 0 -83.5 34.5t-35.5 84.5t35 85
t84 35t84.5 -35t35.5 -85z" />
    <glyph glyph-name="Alphatonos" unicode="&#x386;" horiz-adv-x="1554" 
d="M833 1515l555 -1326q24 -56 52 -76t74 -20h54v-93h-694v93h65q77 0 106 17t29 45q0 22 -12 51l-115 274h-552l-54 -125q-33 -78 -33 -116q0 -65 48 -105.5t131 -40.5h47v-93h-561v93h32q54 0 95 34q58 48 90 123l531 1265h112zM672 1141l-236 -563h470zM229 1112h-36
l-80 212q-16 42 -16 53q0 72 24 106t89 34q112 0 112 -102q0 -41 -18 -91z" />
    <glyph glyph-name="anoteleia" unicode="&#x387;" horiz-adv-x="569" 
d="M465 799q0 -71 -50 -121t-120 -50t-120 49.5t-50 120.5q0 74 53 123t117 49q70 0 120 -50t50 -121z" />
    <glyph glyph-name="Epsilontonos" unicode="&#x388;" horiz-adv-x="1735" 
d="M251 1479h1288l29 -517h-88q-31 183 -77.5 263.5t-122 120.5t-197.5 40h-202q-47 0 -68 -18.5t-21 -51.5v-513h69q119 0 184.5 68t77.5 219h90v-688h-90q-9 171 -75 241t-199 70h-57v-547q0 -36 21 -51q32 -22 92 -22h178q183 0 299 117t144 353h90l-22 -563h-1343v93
h133q45 0 68.5 23t23.5 62v1138q0 36 -23.5 53t-84.5 17h-117v93zM84 1112h-36l-80 212q-16 42 -16 53q0 72 24 106t89 34q112 0 112 -102q0 -41 -18 -91z" />
    <glyph glyph-name="Etatonos" unicode="&#x389;" horiz-adv-x="1925" 
d="M253 1479h685v-93h-101q-43 0 -64 -19t-21 -51v-485h564v460q0 53 -22.5 74t-75.5 21h-86v93h686v-93h-92q-53 0 -75 -20t-22 -62v-1117q0 -49 22.5 -71.5t63.5 -22.5h103v-93h-686v93h104q43 0 61.5 19t18.5 64v532h-564v-532q0 -43 18 -63t49 -20h119v-93h-685v93h110
q38 0 55.5 19.5t17.5 63.5v1115q0 52 -23 73.5t-74 21.5h-86v93zM84 1112h-36l-80 212q-16 42 -16 53q0 72 24 106t89 34q112 0 112 -102q0 -41 -18 -91z" />
    <glyph glyph-name="Iotatonos" unicode="&#x38a;" horiz-adv-x="1085" 
d="M251 1479h758v-93h-137q-44 0 -64 -17.5t-20 -51.5v-1145q0 -40 21 -57q27 -22 78 -22h122v-93h-758v93h116q60 0 84.5 20t24.5 59v1132q0 42 -22.5 62t-70.5 20h-132v93zM84 1112h-36l-80 212q-16 42 -16 53q0 72 24 106t89 34q112 0 112 -102q0 -41 -18 -91z" />
    <glyph glyph-name="Omicrontonos" unicode="&#x38c;" horiz-adv-x="1706" 
d="M846 1517q209 0 385.5 -101t275 -275.5t98.5 -393.5q0 -333 -217.5 -555t-539.5 -222q-214 0 -383.5 101t-267.5 272.5t-98 398.5q0 337 215 556t532 219zM852 1421q-119 0 -206.5 -65.5t-139 -211.5t-51.5 -400q0 -267 47.5 -404.5t138.5 -203.5t212 -66
q179 0 286 153.5t107 533.5q0 266 -46 399.5t-137 199t-211 65.5zM83 1112h-36l-80 212q-16 42 -16 53q0 72 24 106t89 34q112 0 112 -102q0 -41 -18 -91z" />
    <glyph glyph-name="Upsilontonos" unicode="&#x38e;" horiz-adv-x="1739" 
d="M251 1479h736v-93h-102q-54 0 -75 -13.5t-21 -35.5q0 -25 18 -57l308 -530l216 430q27 53 27 98q0 50 -35 79t-106 29h-45v93h572v-93q-99 -2 -159 -39.5t-102 -120.5l-297 -587v-465q0 -41 22.5 -61t70.5 -20h153v-93h-810v93h152q52 0 73 19.5t21 61.5v413l-398 685
q-38 66 -80.5 90t-106.5 24h-32v93zM84 1112h-36l-80 212q-16 42 -16 53q0 72 24 106t89 34q112 0 112 -102q0 -41 -18 -91z" />
    <glyph glyph-name="Omegatonos" unicode="&#x38f;" horiz-adv-x="1737" 
d="M672 259l-12 74q-506 154 -506 565q0 287 222.5 453t512.5 166q304 0 524 -157t220 -440q0 -220 -135.5 -374.5t-371.5 -212.5l-12 -74h161q222 0 267 165h90l-21 -424h-648l43 410q154 76 211.5 196t57.5 313q0 274 -98.5 388t-275.5 114q-187 0 -288.5 -126
t-101.5 -376q0 -172 55 -302t215 -207l42 -410h-647l-22 424h90q49 -165 275 -165h153zM84 1112h-36l-80 212q-16 42 -16 53q0 72 24 106t89 34q112 0 112 -102q0 -41 -18 -91z" />
    <glyph glyph-name="iotadieresistonos" unicode="&#x390;" horiz-adv-x="823" 
d="M56 845v91l421 19v-722q0 -124 108 -124q141 0 148 261h90q-3 -209 -98.5 -304.5t-235.5 -95.5q-134 0 -207 81.5t-73 200.5v423q0 86 -5.5 108t-34.5 42t-71 20h-42zM414 1112h-36l-80 212q-16 42 -16 53q0 72 24 106t89 34q112 0 112 -102q0 -41 -18 -91zM223 1302
q0 -49 -35.5 -84t-84.5 -35q-48 0 -83.5 34.5t-35.5 84.5t35.5 85t84.5 35t84 -35t35 -85zM803 1302q0 -49 -35.5 -84t-84.5 -35q-48 0 -83.5 34.5t-35.5 84.5t35 85t84 35t84.5 -35t35.5 -85z" />
    <glyph glyph-name="Alpha" unicode="&#x391;" horiz-adv-x="1554" 
d="M833 1515l555 -1326q24 -56 52 -76t74 -20h54v-93h-694v93h65q77 0 106 17t29 45q0 22 -12 51l-115 274h-552l-54 -125q-33 -78 -33 -116q0 -65 48 -105.5t131 -40.5h47v-93h-561v93h32q54 0 95 34q58 48 90 123l531 1265h112zM672 1141l-236 -563h470z" />
    <glyph glyph-name="Beta" unicode="&#x392;" horiz-adv-x="1593" 
d="M86 1479h897q209 0 329 -99.5t120 -247.5q0 -130 -95.5 -220t-286.5 -140q253 -42 359.5 -139t106.5 -243q0 -129 -76 -222q-54 -66 -188.5 -117t-317.5 -51h-848v93h136q35 0 53 21q24 29 24 69v1145q0 26 -22.5 42t-75.5 16h-115v93zM616 809h167q172 0 246 72t74 238
q0 144 -71 205t-270 61q-95 0 -120.5 -17t-25.5 -62v-497zM616 717v-538q0 -42 18 -64t49 -22h192q141 0 221.5 77t80.5 226q0 156 -86 238.5t-250 82.5h-225z" />
    <glyph glyph-name="Gamma" unicode="&#x393;" horiz-adv-x="1434" 
d="M107 1479h1297l18 -558h-94q-14 225 -89 345t-291 120h-206q-53 0 -73 -22.5t-20 -71.5v-1107q0 -47 31.5 -69.5t70.5 -22.5h152v-93h-796v93h131q49 0 72.5 26t23.5 60v1130q0 43 -24.5 60t-100.5 17h-102v93z" />
    <glyph glyph-name="Delta" unicode="&#x394;" horiz-adv-x="1415" 
d="M764 1515l603 -1422v-93h-1319v93l604 1422h112zM602 1141l-368 -882h723z" />
    <glyph glyph-name="Epsilon" unicode="&#x395;" horiz-adv-x="1554" 
d="M71 1479h1288l29 -517h-88q-31 183 -77.5 263.5t-122 120.5t-197.5 40h-202q-47 0 -68 -18.5t-21 -51.5v-513h69q119 0 184.5 68t77.5 219h90v-688h-90q-9 171 -75 241t-199 70h-57v-547q0 -36 21 -51q32 -22 92 -22h178q183 0 299 117t144 353h90l-22 -563h-1343v93h133
q45 0 68.5 23t23.5 62v1138q0 36 -23.5 53t-84.5 17h-117v93z" />
    <glyph glyph-name="Zeta" unicode="&#x396;" horiz-adv-x="1366" 
d="M174 1479h1088v-93l-829 -1293h377q98 0 169.5 43.5t125.5 140.5t87 279h91l-28 -556h-1171v93l825 1293h-283q-171 0 -268.5 -95.5t-130.5 -325.5h-87z" />
    <glyph glyph-name="Eta" unicode="&#x397;" horiz-adv-x="1782" 
d="M111 1479h685v-93h-101q-43 0 -64 -19t-21 -51v-485h564v460q0 53 -22.5 74t-75.5 21h-86v93h686v-93h-92q-53 0 -75 -20t-22 -62v-1117q0 -49 22.5 -71.5t63.5 -22.5h103v-93h-686v93h104q43 0 61.5 19t18.5 64v532h-564v-532q0 -43 18 -63t49 -20h119v-93h-685v93h110
q38 0 55.5 19.5t17.5 63.5v1115q0 52 -23 73.5t-74 21.5h-86v93z" />
    <glyph glyph-name="Theta" unicode="&#x398;" horiz-adv-x="1706" 
d="M844 1517q318 0 540 -215.5t222 -554.5q0 -324 -213 -550.5t-544 -226.5q-312 0 -530.5 217.5t-218.5 557.5q0 335 215.5 553.5t528.5 218.5zM854 1421q-397 0 -397 -674q0 -387 106.5 -532t291.5 -145q180 0 286.5 154t106.5 533q0 394 -110.5 529t-283.5 135zM605 499
v495h91q4 -145 156 -145q66 0 111.5 37t46.5 108h90v-495h-90q-4 164 -155 164q-156 0 -159 -164h-91z" />
    <glyph glyph-name="Iota" unicode="&#x399;" horiz-adv-x="909" 
d="M75 1479h758v-93h-137q-44 0 -64 -17.5t-20 -51.5v-1145q0 -40 21 -57q27 -22 78 -22h122v-93h-758v93h116q60 0 84.5 20t24.5 59v1132q0 42 -22.5 62t-70.5 20h-132v93z" />
    <glyph glyph-name="Kappa" unicode="&#x39a;" horiz-adv-x="1669" 
d="M93 1479h733v-93h-120q-58 0 -79 -18t-21 -59v-653l488 562q42 49 42 90q0 35 -26 53q-36 25 -97 25h-41v93h609v-93h-38q-82 0 -152 -41q-103 -61 -206 -181l-188 -218l438 -756q28 -48 66 -69q50 -28 99 -28h58v-93h-726v93h74q60 0 86 16t26 37q0 12 -8 25l-316 543
l-188 -219v-324q0 -39 20.5 -58.5t56.5 -19.5h134v-93h-724v93h105q46 0 68.5 20t22.5 58v1145q0 35 -21.5 52.5t-69.5 17.5h-105v93z" />
    <glyph glyph-name="Lambda" unicode="&#x39b;" horiz-adv-x="1554" 
d="M672 1141l-331 -786q-33 -80 -33 -117q0 -60 45.5 -102.5t133.5 -42.5h47v-93h-561v93h32q53 0 103 40.5t82 116.5l531 1265h112l555 -1326q28 -65 58 -80.5t68 -15.5h54v-93h-694v93h65q137 0 137 64q0 14 -14 49z" />
    <glyph glyph-name="Mu" unicode="&#x39c;" horiz-adv-x="2009" 
d="M64 1479h596l335 -1002l336 1002h609v-93h-132q-49 0 -67.5 -18t-18.5 -62v-1130q0 -43 20 -59q30 -24 81 -24h117v-93h-751v93h142q39 0 59.5 22t20.5 61v1210l-472 -1386h-88l-468 1398v-1081q0 -93 59 -152.5t171 -71.5v-93h-549v93q104 9 161.5 73t57.5 163v956
q0 61 -21 81t-81 20h-117v93z" />
    <glyph glyph-name="Nu" unicode="&#x39d;" horiz-adv-x="1706" 
d="M75 1479h459l801 -1014v689q0 102 -58 163.5t-165 68.5v93h540v-93q-113 -12 -162 -67.5t-49 -164.5v-1154h-115l-912 1168v-809q0 -139 63.5 -202.5t157.5 -63.5h25v-93h-597v93h41q88 0 148 70t60 180v956q-67 87 -171 87h-66v93z" />
    <glyph glyph-name="Xi" unicode="&#x39e;" horiz-adv-x="1538" 
d="M167 998l30 481h1145l30 -481h-89q-37 126 -128.5 174.5t-267.5 48.5h-235q-181 0 -271 -50.5t-125 -172.5h-89zM474 499v495h90q5 -145 205 -145q87 0 146 37t59 108h91v-495h-91q-3 164 -201 164q-206 0 -209 -164h-90zM119 526h90q28 -135 144.5 -201t298.5 -66h235
q385 0 443 267h90l-22 -526h-1257z" />
    <glyph glyph-name="Omicron" unicode="&#x39f;" horiz-adv-x="1706" 
d="M846 1517q209 0 385.5 -101t275 -275.5t98.5 -393.5q0 -333 -217.5 -555t-539.5 -222q-214 0 -383.5 101t-267.5 272.5t-98 398.5q0 337 215 556t532 219zM852 1421q-119 0 -206.5 -65.5t-139 -211.5t-51.5 -400q0 -267 47.5 -404.5t138.5 -203.5t212 -66
q179 0 286 153.5t107 533.5q0 266 -46 399.5t-137 199t-211 65.5z" />
    <glyph glyph-name="Pi" unicode="&#x3a0;" horiz-adv-x="1782" 
d="M1172 1379h-563v-1203q0 -83 67 -83h120v-93h-689v93h114q73 0 73 83v1115q0 95 -97 95h-90v93h1567v-93h-90q-97 0 -97 -82v-1117q0 -94 86 -94h101v-93h-689v93h108q79 0 79 83v1203z" />
    <glyph glyph-name="Rho" unicode="&#x3a1;" horiz-adv-x="1554" 
d="M127 1479h866q220 0 354 -118t134 -289q0 -130 -77.5 -227.5t-208 -141.5t-258.5 -44h-274v-482q0 -40 23 -62t59 -22h170v-93h-788v93h132q44 0 66.5 22t22.5 62v1127q0 38 -23 60t-56 22h-142v93zM663 750h183q96 0 170.5 41t106 99.5t31.5 189.5q0 180 -97 254
q-71 53 -242 53q-99 0 -125.5 -16.5t-26.5 -56.5v-564z" />
    <glyph glyph-name="Sigma" unicode="&#x3a3;" horiz-adv-x="1366" 
d="M800 860l-467 -601h459q319 0 400 297h91l-28 -556h-1171v93l478 617l-454 676v93h1094l34 -514h-87q-49 421 -399 421h-307z" />
    <glyph glyph-name="Tau" unicode="&#x3a4;" horiz-adv-x="1479" 
d="M101 1479h1293l33 -562h-91q-32 180 -83 281t-116.5 143.5t-143.5 42.5q-45 0 -66 -18.5t-21 -53.5v-1144q0 -33 20.5 -54t49.5 -21h168v-93h-791v93h160q36 0 57 20.5t21 54.5v1138q0 40 -21.5 59t-67.5 19q-255 0 -345 -467h-88z" />
    <glyph glyph-name="Upsilon" unicode="&#x3a5;" horiz-adv-x="1479" 
d="M-10 1479h736v-93h-102q-54 0 -75 -13.5t-21 -35.5q0 -25 18 -57l308 -530l216 430q27 53 27 98q0 50 -35 79t-106 29h-45v93h572v-93q-99 -2 -159 -39.5t-102 -120.5l-297 -587v-465q0 -41 22.5 -61t70.5 -20h153v-93h-810v93h152q52 0 73 19.5t21 61.5v413l-398 685
q-38 66 -80.5 90t-106.5 24h-32v93z" />
    <glyph glyph-name="Phi" unicode="&#x3a6;" horiz-adv-x="1899" 
d="M1321 1479v-93h-136q-43 0 -64 -30t-21 -120h85q307 0 460 -132.5t153 -351.5q0 -238 -167.5 -364.5t-462.5 -126.5h-68v-63q0 -71 29.5 -88t69.5 -17h122v-93h-758v93h115q64 0 87 24.5t23 78.5v65h-58q-320 0 -475 140t-155 342q0 225 160 359t442 134h86
q-1 103 -28.5 126.5t-64.5 23.5h-132v93h758zM788 1147h-40q-154 0 -241.5 -95t-87.5 -299q0 -398 322 -398h47v792zM1097 355h60q159 0 240.5 92t81.5 315q0 193 -87 289t-242 96h-53v-792z" />
    <glyph glyph-name="Chi" unicode="&#x3a7;" horiz-adv-x="1479" 
d="M-76 1479h732v-93h-55q-75 0 -99 -13t-24 -35q0 -26 41 -83l247 -339l195 237q64 77 64 146q0 42 -26.5 64.5t-77.5 22.5h-46v93h582v-93h-44q-55 0 -97.5 -23t-96.5 -86l-383 -453l490 -653q35 -47 64 -62.5t67 -15.5h49v-93h-721v93h76q54 0 78 17.5t24 44.5
q0 23 -32 59l-10 14l-275 374l-230 -282q-47 -58 -47 -123q0 -49 26 -73q34 -31 82 -31h56v-93h-609v93h38q46 0 97 29q84 50 130 106l388 463l-466 618q-37 48 -63 62.5t-68 14.5h-56v93z" />
    <glyph glyph-name="Psi" unicode="&#x3a8;" horiz-adv-x="2111" 
d="M42 1386v93h489v-467q0 -153 18.5 -236.5t105 -127.5t209.5 -44h35v675q0 62 -19 84.5t-74 22.5h-59v93h617v-93h-59q-94 0 -94 -88v-693h48q71 0 166.5 34t125 124.5t29.5 248.5v467h489v-93h-73q-57 0 -79 -20.5t-22 -83.5v-267q0 -213 -55.5 -318t-188.5 -171
t-344 -66h-96v-288q0 -79 109 -79h116v-93h-762v93h116q109 0 109 79v289h-74q-275 0 -393.5 58.5t-167 165t-48.5 315.5v282q0 71 -26.5 87.5t-74.5 16.5h-73z" />
    <glyph glyph-name="Omega" unicode="&#x3a9;" horiz-adv-x="1688" 
d="M622 259l-12 74q-506 154 -506 565q0 287 222.5 453t512.5 166q304 0 524 -157t220 -440q0 -220 -135.5 -374.5t-371.5 -212.5l-12 -74h161q222 0 267 165h90l-21 -424h-648l43 410q154 76 211.5 196t57.5 313q0 274 -98.5 388t-275.5 114q-187 0 -288.5 -126
t-101.5 -376q0 -172 55 -302t215 -207l42 -410h-647l-22 424h90q49 -165 275 -165h153z" />
    <glyph glyph-name="Iotadieresis" unicode="&#x3aa;" horiz-adv-x="909" 
d="M75 1479h758v-93h-137q-44 0 -64 -17.5t-20 -51.5v-1145q0 -40 21 -57q27 -22 78 -22h122v-93h-758v93h116q60 0 84.5 20t24.5 59v1132q0 42 -22.5 62t-70.5 20h-132v93zM673 1915q56 0 95 -39t39 -94q0 -56 -39.5 -95t-94.5 -39t-94.5 39t-39.5 95q0 55 39 94t95 39z
M234 1914q55 0 94 -39t39 -94t-39 -94t-94 -39t-94 39t-39 94q0 56 39 94.5t94 38.5z" />
    <glyph glyph-name="Upsilondieresis" unicode="&#x3ab;" horiz-adv-x="1479" 
d="M-10 1479h736v-93h-102q-54 0 -75 -13.5t-21 -35.5q0 -25 18 -57l308 -530l216 430q27 53 27 98q0 50 -35 79t-106 29h-45v93h572v-93q-99 -2 -159 -39.5t-102 -120.5l-297 -587v-465q0 -41 22.5 -61t70.5 -20h153v-93h-810v93h152q52 0 73 19.5t21 61.5v413l-398 685
q-38 66 -80.5 90t-106.5 24h-32v93zM956 1915q56 0 95 -39t39 -94q0 -56 -39.5 -95t-94.5 -39t-94.5 39t-39.5 95q0 55 39 94t95 39zM517 1914q55 0 94 -39t39 -94t-39 -94t-94 -39t-94 39t-39 94q0 56 39 94.5t94 38.5z" />
    <glyph glyph-name="alphatonos" unicode="&#x3ac;" horiz-adv-x="1362" 
d="M1121 318q0 -94 13.5 -144t42 -65.5t102.5 -15.5v-93l-385 -12l-26 172l-7 8q-133 -198 -338 -198q-187 0 -306 136t-119 347q0 221 134 378.5t355 157.5q196 0 359 -165q54 80 149 168l61 -30q-35 -139 -35 -304v-340zM642 895q-99 0 -168.5 -100t-69.5 -299
q0 -179 67 -277.5t161 -98.5q100 0 162.5 98t62.5 301q0 181 -60.5 278.5t-154.5 97.5zM672 1112h-36l-80 212q-16 42 -16 53q0 72 24 106t89 34q112 0 112 -102q0 -41 -18 -91z" />
    <glyph glyph-name="epsilontonos" unicode="&#x3ad;" horiz-adv-x="1090" 
d="M946 243l65 -32q-130 -241 -460 -241q-207 0 -336 69t-129 195q0 204 344 246q-322 38 -322 232q0 125 128 201t334 76q217 0 320 -75.5t103 -187.5q0 -71 -38 -114t-104 -43q-59 0 -98.5 36.5t-39.5 86.5q0 36 25 80q16 28 16 42q0 40 -53 62.5t-112 22.5
q-93 0 -139.5 -58.5t-46.5 -142.5q0 -89 49 -127.5t107 -38.5h50v-82h-44q-75 0 -123.5 -51t-48.5 -128q0 -83 68.5 -134.5t178.5 -51.5q190 0 306 158zM616 1112h-36l-80 212q-16 42 -16 53q0 72 24 106t89 34q112 0 112 -102q0 -41 -18 -91z" />
    <glyph glyph-name="etatonos" unicode="&#x3ae;" horiz-adv-x="1403" 
d="M1347 -295v-93h-563v96h59q93 0 93 94v791q0 103 -47 159t-125 56q-105 0 -171 -78.5t-66 -229.5v-313q0 -94 84 -94h71v-93h-584v93h76q89 0 89 94v557q0 50 -34 77.5t-84 27.5h-40v87l390 21q22 -87 32 -205q159 218 372 218q142 0 221 -94t79 -255v-819q0 -97 96 -97
h52zM742 1112h-36l-80 212q-16 42 -16 53q0 72 24 106t89 34q112 0 112 -102q0 -41 -18 -91z" />
    <glyph glyph-name="iotatonos" unicode="&#x3af;" horiz-adv-x="823" 
d="M56 845v91l421 19v-722q0 -124 108 -124q141 0 148 261h90q-3 -209 -98.5 -304.5t-235.5 -95.5q-134 0 -207 81.5t-73 200.5v423q0 86 -5.5 108t-34.5 42t-71 20h-42zM425 1112h-36l-80 212q-16 42 -16 53q0 72 24 106t89 34q112 0 112 -102q0 -41 -18 -91z" />
    <glyph glyph-name="upsilondieresistonos" unicode="&#x3b0;" horiz-adv-x="1366" 
d="M82 845v91l418 24v-499q0 -149 19 -203.5t65 -86.5t111 -32q84 0 130 34t65 95.5t19 192.5v243q0 87 -30.5 114t-116.5 27v91l418 24v-484q0 -306 -126.5 -406.5t-345.5 -100.5q-275 0 -376.5 109.5t-101.5 381.5v244q0 83 -29.5 111t-118.5 30zM712 1112h-36l-80 212
q-16 42 -16 53q0 72 24 106t89 34q112 0 112 -102q0 -41 -18 -91zM521 1302q0 -49 -35.5 -84t-84.5 -35q-48 0 -83.5 34.5t-35.5 84.5t35.5 85t84.5 35t84 -35t35 -85zM1101 1302q0 -49 -35.5 -84t-84.5 -35q-48 0 -83.5 34.5t-35.5 84.5t35 85t84 35t84.5 -35t35.5 -85z
" />
    <glyph glyph-name="alpha" unicode="&#x3b1;" horiz-adv-x="1362" 
d="M1121 318q0 -94 13.5 -144t42 -65.5t102.5 -15.5v-93l-385 -12l-26 172l-7 8q-133 -198 -338 -198q-187 0 -306 136t-119 347q0 221 134 378.5t355 157.5q196 0 359 -165q54 80 149 168l61 -30q-35 -139 -35 -304v-340zM642 895q-99 0 -168.5 -100t-69.5 -299
q0 -179 67 -277.5t161 -98.5q100 0 162.5 98t62.5 301q0 181 -60.5 278.5t-154.5 97.5z" />
    <glyph glyph-name="beta" unicode="&#x3b2;" horiz-adv-x="1245" 
d="M42 -388v96h30q68 0 87 22.5t19 100.5v1169q0 197 51.5 297t162.5 160t280 60q211 0 344 -82.5t133 -237.5q0 -239 -310 -312q347 -57 347 -402q0 -235 -130 -374t-347 -139q-153 0 -259 73v-212q0 -79 24 -101t133 -22v-96h-565zM634 924q127 8 172 70t45 180
q0 250 -191 250q-116 0 -168 -80t-52 -336v-634q0 -180 58 -231t145 -51q233 0 233 388q0 204 -52 280.5t-190 76.5v87z" />
    <glyph glyph-name="gamma" unicode="&#x3b3;" horiz-adv-x="1251" 
d="M774 166v-335q0 -79 23.5 -101t132.5 -22v-96h-564v96h30q59 0 82 15t23 108v335l-307 610q-37 74 -100 74h-26v86h360q22 -102 69 -193l233 -454l196 411q16 34 16 57q0 93 -118 93h-29v86h407v-86q-107 -2 -157 -107z" />
    <glyph glyph-name="delta" unicode="&#x3b4;" horiz-adv-x="1251" 
d="M459 912q-182 42 -243 107t-61 163q0 147 142.5 241t401.5 94q185 0 292 -68.5t107 -174.5q0 -62 -36.5 -98.5t-97.5 -36.5q-53 0 -92 29.5t-39 80.5q0 42 40 91q24 30 24 43q0 25 -65.5 40.5t-114.5 15.5q-110 0 -182 -66t-72 -172q0 -91 58.5 -134t203.5 -75
q151 -34 235 -78t144.5 -156t60.5 -280q0 -221 -140.5 -364.5t-391.5 -143.5q-250 0 -399 143.5t-149 348.5q0 163 94 286t280 164zM622 883q-230 0 -230 -403q0 -239 62.5 -329.5t168.5 -90.5q235 0 235 413q0 232 -63 321t-173 89z" />
    <glyph glyph-name="epsilon" unicode="&#x3b5;" horiz-adv-x="1090" 
d="M946 243l65 -32q-130 -241 -460 -241q-207 0 -336 69t-129 195q0 204 344 246q-322 38 -322 232q0 125 128 201t334 76q217 0 320 -75.5t103 -187.5q0 -71 -38 -114t-104 -43q-59 0 -98.5 36.5t-39.5 86.5q0 36 25 80q16 28 16 42q0 40 -53 62.5t-112 22.5
q-93 0 -139.5 -58.5t-46.5 -142.5q0 -89 49 -127.5t107 -38.5h50v-82h-44q-75 0 -123.5 -51t-48.5 -128q0 -83 68.5 -134.5t178.5 -51.5q190 0 306 158z" />
    <glyph glyph-name="zeta" unicode="&#x3b6;" horiz-adv-x="981" 
d="M951 1481v-87q-291 -296 -422.5 -488.5t-131.5 -371.5q0 -73 31 -130t130 -99l167 -69q120 -51 162.5 -86t68 -89t25.5 -117q0 -145 -114 -244.5t-311 -99.5q-99 0 -191.5 27t-92.5 87q0 41 29.5 71t72.5 30q37 0 93 -60q62 -67 141 -67q73 0 111.5 51.5t38.5 114.5
q0 79 -44.5 116t-229.5 111q-163 66 -236.5 112.5t-115.5 121t-42 172.5q0 101 46 198.5t199.5 250.5t427.5 356h-340q-149 0 -262 -16l29 219q90 -14 183 -14h578z" />
    <glyph glyph-name="eta" unicode="&#x3b7;" horiz-adv-x="1403" 
d="M1347 -295v-93h-563v96h59q93 0 93 94v791q0 103 -47 159t-125 56q-105 0 -171 -78.5t-66 -229.5v-313q0 -94 84 -94h71v-93h-584v93h76q89 0 89 94v557q0 50 -34 77.5t-84 27.5h-40v87l390 21q22 -87 32 -205q159 218 372 218q142 0 221 -94t79 -255v-819q0 -97 96 -97
h52z" />
    <glyph glyph-name="theta" unicode="&#x3b8;" horiz-adv-x="1176" 
d="M587 1517q225 0 354 -221.5t129 -558.5q0 -341 -132 -554t-353 -213q-208 0 -343.5 214t-135.5 547q0 338 124 562t357 224zM763 831q-8 360 -52 474t-122 114q-83 0 -127 -128t-48 -460h349zM412 708q0 -354 44.5 -497.5t128.5 -143.5q57 0 95 55.5t60.5 216.5t25.5 369
h-354z" />
    <glyph glyph-name="iota" unicode="&#x3b9;" horiz-adv-x="823" 
d="M56 845v91l421 19v-722q0 -124 108 -124q141 0 148 261h90q-3 -209 -98.5 -304.5t-235.5 -95.5q-134 0 -207 81.5t-73 200.5v423q0 86 -5.5 108t-34.5 42t-71 20h-42z" />
    <glyph glyph-name="kappa" unicode="&#x3ba;" horiz-adv-x="1366" 
d="M58 936l442 13v-475l277 223q66 54 66 91q0 58 -114 58h-33v90h545v-90q-93 -1 -152 -28t-111 -70l-158 -131l346 -469q42 -55 101 -55h50v-93h-588v93h58q76 0 76 31q0 11 -10 24l-225 313l-128 -101v-186q0 -81 77 -81h65v-93h-574v93h71q98 0 98 99v576q0 78 -90 78
h-89v90z" />
    <glyph glyph-name="lambda" unicode="&#x3bb;" horiz-adv-x="1272" 
d="M533 831l-185 422q-36 80 -74.5 106.5t-113.5 26.5h-63v93l419 22l585 -1316q43 -96 121 -96h43v-89h-595v89h52q93 0 93 50q0 31 -26 92l-200 481l-232 -430q-39 -72 -39 -118q0 -71 133 -75v-89h-445v89q62 3 102 24t92 115z" />
    <glyph glyph-name="mu" unicode="&#x3bc;" horiz-adv-x="1403" 
d="M492 -1v-194q0 -97 96 -97h52v-96h-563v96h59q93 0 93 91v930q0 66 -34 91t-113 25v91l418 24v-624q0 -86 46 -137t125 -51q106 0 168.5 87t62.5 194v306q0 110 -112 110h-47v91l423 24v-758q0 -56 33.5 -82.5t80.5 -26.5h44v-93l-387 -12q-25 99 -28 214
q-175 -221 -344 -221q-39 0 -73 18z" />
    <glyph glyph-name="nu" unicode="&#x3bd;" horiz-adv-x="1251" 
d="M43 936h559v-89h-46q-55 0 -75 -14t-20 -40q0 -28 22 -68l240 -445l209 416q16 31 16 62q0 85 -142 89v89h409v-89q-56 -6 -86 -26.5t-54 -67.5l-392 -786h-72l-432 795q-29 53 -51.5 69t-59.5 16h-25v89z" />
    <glyph glyph-name="xi" unicode="&#x3be;" horiz-adv-x="981" 
d="M930 1481v-120q-319 -107 -319 -311q0 -185 262 -218v-115q-84 17 -146 17q-142 0 -234 -81.5t-92 -194.5q0 -75 53 -122.5t187 -91.5q135 -44 198 -75t102.5 -90t39.5 -138q0 -141 -113.5 -241t-311.5 -100q-121 0 -202.5 30.5t-81.5 82.5q0 42 30 72t72 30q38 0 93 -60
q62 -67 141 -67q69 0 109.5 49.5t40.5 115.5q0 60 -39 105t-195 93q-276 86 -353 174t-77 196q0 151 130.5 257t390.5 139q-155 39 -227.5 93.5t-72.5 140.5q0 178 317 259h-228q-135 0 -230 -29l26 214q35 -7 115 -10l54 -4h561z" />
    <glyph glyph-name="omicron" unicode="&#x3bf;" horiz-adv-x="1251" 
d="M617 988q157 0 288.5 -68t195.5 -177.5t64 -263.5q0 -246 -167.5 -377.5t-379.5 -131.5q-150 0 -274.5 67.5t-191.5 182t-67 258.5q0 217 151.5 363.5t380.5 146.5zM623 893q-104 0 -165.5 -91.5t-61.5 -321.5q0 -239 61 -329.5t165 -90.5q106 0 171 93t65 321
q0 234 -64 326.5t-171 92.5z" />
    <glyph glyph-name="pi1" unicode="&#x3c0;" horiz-adv-x="1462" 
d="M935 813h-409v-626q0 -94 84 -94h71v-93h-584v93h76q89 0 89 94v563q0 93 -83 93h-72v93h1258v-93h-77q-89 0 -89 -93v-563q0 -94 84 -94h71v-93h-584v93h77q88 0 88 94v626z" />
    <glyph glyph-name="rho" unicode="&#x3c1;" horiz-adv-x="1325" 
d="M24 -388v96h30q68 0 87 22.5t19 100.5v470q0 238 51.5 380.5t191 225t303.5 82.5q217 0 375.5 -133.5t158.5 -370.5q0 -225 -139.5 -370.5t-376.5 -145.5q-181 0 -292 97v-235q0 -79 24 -101t133 -22v-96h-565zM698 893q-227 0 -227 -413q0 -239 61 -329.5t165 -90.5
q236 0 236 414q0 228 -62 323.5t-173 95.5z" />
    <glyph glyph-name="sigma1" unicode="&#x3c2;" horiz-adv-x="1038" 
d="M1041 -59q0 -141 -113.5 -241t-311.5 -100q-127 0 -205.5 31.5t-78.5 82.5q0 41 29.5 71t72.5 30q37 0 93 -60q62 -67 140 -67q70 0 110.5 49t40.5 116q0 52 -25 88t-65.5 56t-171.5 63q-279 92 -373 195.5t-94 243.5q0 188 162.5 339.5t425.5 151.5q167 0 259.5 -67.5
t92.5 -184.5q0 -81 -41.5 -129t-115.5 -48q-62 0 -99 35.5t-37 92.5q0 49 40 114q17 27 17 38q0 24 -38.5 42.5t-90.5 18.5q-113 0 -190 -105t-77 -246q0 -118 61.5 -184.5t259 -127t260.5 -131t63 -167.5z" />
    <glyph glyph-name="sigma" unicode="&#x3c3;" horiz-adv-x="1284" 
d="M868 936h416v-108h-272q154 -153 154 -349q0 -125 -66.5 -251.5t-202 -192t-278.5 -65.5q-222 0 -377.5 141t-155.5 366q0 229 159 370.5t373 141.5q120 0 250 -53zM624 893q-227 0 -227 -413q0 -235 61 -327.5t165 -92.5q236 0 236 414q0 228 -62 323.5t-173 95.5z" />
    <glyph glyph-name="tau" unicode="&#x3c4;" horiz-adv-x="1077" 
d="M1014 813h-333v-580q0 -124 109 -124q140 0 147 261h90q-3 -205 -96 -302.5t-236 -97.5q-126 0 -203.5 78.5t-77.5 203.5v561h-54q-108 0 -145.5 -34t-86.5 -179h-92l67 336h911v-123z" />
    <glyph glyph-name="upsilon" unicode="&#x3c5;" horiz-adv-x="1366" 
d="M82 845v91l418 24v-499q0 -149 19 -203.5t65 -86.5t111 -32q84 0 130 34t65 95.5t19 192.5v243q0 87 -30.5 114t-116.5 27v91l418 24v-484q0 -306 -126.5 -406.5t-345.5 -100.5q-275 0 -376.5 109.5t-101.5 381.5v244q0 83 -29.5 111t-118.5 30z" />
    <glyph glyph-name="phi" unicode="&#x3c6;" horiz-adv-x="1599" 
d="M935 -29v-166q0 -97 96 -97h52v-96h-572v96h58q94 0 94 94v169q-280 7 -429 148.5t-149 357.5q0 219 147.5 358t418.5 154v-96q-259 -19 -259 -428q0 -198 56.5 -296.5t214.5 -108.5v429q0 190 30.5 283t125.5 155t242 62q204 0 328.5 -124.5t124.5 -349.5
q0 -221 -126 -375.5t-453 -168.5zM935 60q130 9 182 58t70.5 154t18.5 223q0 196 -42.5 297t-122.5 101q-66 0 -86 -73.5t-20 -330.5v-429z" />
    <glyph glyph-name="chi" unicode="&#x3c7;" horiz-adv-x="1251" 
d="M714 441l148 200q65 88 65 132q0 72 -147 74v90h433v-90q-70 -2 -110 -33.5t-103 -119.5l-237 -334l324 -538q41 -69 71.5 -91.5t76.5 -22.5h49v-96h-595v96h46q95 0 95 48q0 18 -34 77l-202 354l-235 -318q-42 -57 -42 -92q0 -66 130 -69v-96h-474v96q79 2 128 32
t129 130l317 392l-295 474q-41 67 -71 87.5t-102 20.5h-58v93l378 23z" />
    <glyph glyph-name="psi" unicode="&#x3c8;" horiz-adv-x="1784" 
d="M1024 60q187 1 243 75t56 245v557h418v-92q-87 0 -117 -28t-30 -88v-237q0 -242 -63 -347.5t-164.5 -137.5t-342.5 -36v-166q0 -97 95 -97h52v-96h-564v96h59q93 0 93 94v169q-254 0 -358.5 46.5t-157.5 152t-53 284.5v275q0 66 -34 91t-114 25v92l418 23v-616
q0 -113 32 -174t89.5 -84.5t177.5 -25.5v877h265v-877z" />
    <glyph glyph-name="omega" unicode="&#x3c9;" horiz-adv-x="1577" 
d="M652 511h273v-121q0 -236 29 -283t72 -47q158 0 158 409q0 214 -48.5 320t-210.5 110v90q282 0 424 -144t142 -395q0 -220 -120 -349.5t-306 -129.5q-178 0 -277 129q-87 -129 -264 -129q-178 0 -308 120.5t-130 346.5q0 254 145.5 400t420.5 151v-90q-128 0 -193.5 -93
t-65.5 -349q0 -398 154 -398q62 0 83.5 63.5t21.5 264.5v124z" />
    <glyph glyph-name="iotadieresis" unicode="&#x3ca;" horiz-adv-x="823" 
d="M56 845v91l421 19v-722q0 -124 108 -124q141 0 148 261h90q-3 -209 -98.5 -304.5t-235.5 -95.5q-134 0 -207 81.5t-73 200.5v423q0 86 -5.5 108t-34.5 42t-71 20h-42zM601 1434q56 0 95 -39t39 -94q0 -56 -39.5 -95t-94.5 -39t-94.5 39t-39.5 95q0 55 39 94t95 39z
M162 1433q55 0 94 -39t39 -94t-39 -94t-94 -39t-94 39t-39 94q0 56 39 94.5t94 38.5z" />
    <glyph glyph-name="upsilondieresis" unicode="&#x3cb;" horiz-adv-x="1366" 
d="M82 845v91l418 24v-499q0 -149 19 -203.5t65 -86.5t111 -32q84 0 130 34t65 95.5t19 192.5v243q0 87 -30.5 114t-116.5 27v91l418 24v-484q0 -306 -126.5 -406.5t-345.5 -100.5q-275 0 -376.5 109.5t-101.5 381.5v244q0 83 -29.5 111t-118.5 30zM910 1434q56 0 95 -39
t39 -94q0 -56 -39.5 -95t-94.5 -39t-94.5 39t-39.5 95q0 55 39 94t95 39zM471 1433q55 0 94 -39t39 -94t-39 -94t-94 -39t-94 39t-39 94q0 56 39 94.5t94 38.5z" />
    <glyph glyph-name="omicrontonos" unicode="&#x3cc;" horiz-adv-x="1251" 
d="M617 988q157 0 288.5 -68t195.5 -177.5t64 -263.5q0 -246 -167.5 -377.5t-379.5 -131.5q-150 0 -274.5 67.5t-191.5 182t-67 258.5q0 217 151.5 363.5t380.5 146.5zM623 893q-104 0 -165.5 -91.5t-61.5 -321.5q0 -239 61 -329.5t165 -90.5q106 0 171 93t65 321
q0 234 -64 326.5t-171 92.5zM657 1112h-36l-80 212q-16 42 -16 53q0 72 24 106t89 34q112 0 112 -102q0 -41 -18 -91z" />
    <glyph glyph-name="upsilontonos" unicode="&#x3cd;" horiz-adv-x="1366" 
d="M82 845v91l418 24v-499q0 -149 19 -203.5t65 -86.5t111 -32q84 0 130 34t65 95.5t19 192.5v243q0 87 -30.5 114t-116.5 27v91l418 24v-484q0 -306 -126.5 -406.5t-345.5 -100.5q-275 0 -376.5 109.5t-101.5 381.5v244q0 83 -29.5 111t-118.5 30zM723 1112h-36l-80 212
q-16 42 -16 53q0 72 24 106t89 34q112 0 112 -102q0 -41 -18 -91z" />
    <glyph glyph-name="omegatonos" unicode="&#x3ce;" horiz-adv-x="1577" 
d="M652 511h273v-121q0 -236 29 -283t72 -47q158 0 158 409q0 214 -48.5 320t-210.5 110v90q282 0 424 -144t142 -395q0 -220 -120 -349.5t-306 -129.5q-178 0 -277 129q-87 -129 -264 -129q-178 0 -308 120.5t-130 346.5q0 254 145.5 400t420.5 151v-90q-128 0 -193.5 -93
t-65.5 -349q0 -398 154 -398q62 0 83.5 63.5t21.5 264.5v124zM808 1112h-36l-80 212q-16 42 -16 53q0 72 24 106t89 34q112 0 112 -102q0 -41 -18 -91z" />
    <glyph glyph-name="afii10023" unicode="&#x401;" horiz-adv-x="1554" 
d="M71 1479h1288l29 -517h-88q-31 183 -77.5 263.5t-122 120.5t-197.5 40h-202q-47 0 -68 -18.5t-21 -51.5v-513h69q119 0 184.5 68t77.5 219h90v-688h-90q-9 171 -75 241t-199 70h-57v-547q0 -36 21 -51q32 -22 92 -22h178q183 0 299 117t144 353h90l-22 -563h-1343v93h133
q45 0 68.5 23t23.5 62v1138q0 36 -23.5 53t-84.5 17h-117v93zM973 1915q56 0 95 -39t39 -94q0 -56 -39.5 -95t-94.5 -39t-94.5 39t-39.5 95q0 55 39 94t95 39zM534 1914q55 0 94 -39t39 -94t-39 -94t-94 -39t-94 39t-39 94q0 56 39 94.5t94 38.5z" />
    <glyph glyph-name="afii10051" unicode="&#x402;" horiz-adv-x="1833" 
d="M1097 93v-93h-747v93h160q78 0 78 75v1138q0 78 -89 78q-253 0 -345 -456h-88l32 551h1293l33 -551h-91q-82 456 -343 456q-87 0 -87 -72v-568q163 119 376 119q214 0 349 -125t135 -341q0 -184 -95.5 -305.5t-259.5 -121.5t-257 119l69 56q54 -59 95 -59q49 0 85 89.5
t36 229.5q0 165 -70.5 257t-191.5 92q-108 0 -271 -106v-480q0 -33 20.5 -54t49.5 -21h124z" />
    <glyph glyph-name="afii10052" unicode="&#x403;" horiz-adv-x="1434" 
d="M107 1479h1297l18 -558h-94q-14 225 -89 345t-291 120h-206q-53 0 -73 -22.5t-20 -71.5v-1107q0 -47 31.5 -69.5t70.5 -22.5h152v-93h-796v93h131q49 0 72.5 26t23.5 60v1130q0 43 -24.5 60t-100.5 17h-102v93zM664 1597l-28 23l162 231q77 110 158 110q45 0 81.5 -33.5
t36.5 -70.5q0 -40 -26.5 -70.5t-119.5 -71.5z" />
    <glyph glyph-name="afii10053" unicode="&#x404;" horiz-adv-x="1481" 
d="M941 803v-100h-482q16 -623 408 -623q159 0 283.5 105t163.5 332h90q-26 -235 -182.5 -391t-410.5 -156q-300 0 -505.5 214.5t-205.5 544.5q0 358 211.5 573t499.5 215q209 0 394 -149l69 147h74l25 -593h-92q-39 247 -158.5 374.5t-274.5 127.5q-170 0 -275 -153
t-114 -468h482z" />
    <glyph glyph-name="afii10054" unicode="&#x405;" horiz-adv-x="1366" 
d="M1013 1366l93 132h71l9 -511h-90q-70 220 -199 329.5t-285 109.5q-133 0 -216.5 -72.5t-83.5 -173.5q0 -60 33 -110t106.5 -85.5t257.5 -73.5q215 -45 297 -81q130 -58 195 -153.5t65 -232.5q0 -205 -141 -327q-170 -147 -421 -147q-231 0 -422 161l-117 -146h-73v548h87
q131 -469 532 -469q164 0 255 75.5t91 188.5q0 79 -40 132.5t-124 86.5q-46 18 -228 57q-245 54 -349.5 111.5t-153.5 141t-49 203.5q0 202 135.5 329.5t363.5 127.5q219 0 401 -151z" />
    <glyph glyph-name="afii10055" unicode="&#x406;" horiz-adv-x="909" 
d="M75 1479h758v-93h-137q-44 0 -64 -17.5t-20 -51.5v-1145q0 -40 21 -57q27 -22 78 -22h122v-93h-758v93h116q60 0 84.5 20t24.5 59v1132q0 42 -22.5 62t-70.5 20h-132v93z" />
    <glyph glyph-name="afii10056" unicode="&#x407;" horiz-adv-x="909" 
d="M75 1479h758v-93h-137q-44 0 -64 -17.5t-20 -51.5v-1145q0 -40 21 -57q27 -22 78 -22h122v-93h-758v93h116q60 0 84.5 20t24.5 59v1132q0 42 -22.5 62t-70.5 20h-132v93zM673 1915q56 0 95 -39t39 -94q0 -56 -39.5 -95t-94.5 -39t-94.5 39t-39.5 95q0 55 39 94t95 39z
M234 1914q55 0 94 -39t39 -94t-39 -94t-94 -39t-94 39t-39 94q0 56 39 94.5t94 38.5z" />
    <glyph glyph-name="afii10057" unicode="&#x408;" horiz-adv-x="1327" 
d="M519 1479h727v-93h-87q-48 0 -70 -21.5t-22 -65.5v-900q0 -187 -135 -308q-136 -121 -367 -121q-213 0 -346.5 115.5t-133.5 266.5q0 117 67.5 190.5t164.5 73.5q83 0 140 -55.5t57 -135.5q0 -76 -41 -122t-99 -46q-13 0 -36 4q-31 7 -44 7q-27 0 -38 -10
q-11 -11 -11 -34q0 -58 59 -100q79 -55 189 -55q122 0 191 79.5t69 230.5v920q0 45 -21.5 66t-63.5 21h-149v93z" />
    <glyph glyph-name="afii10058" unicode="&#x409;" horiz-adv-x="2384" 
d="M887 0v93h116q110 0 110 79v1214h-250q-97 0 -133.5 -28.5t-52 -83t-37.5 -406.5q-21 -336 -59 -525t-129.5 -281t-217.5 -92q-101 0 -161.5 59t-60.5 149q0 79 46.5 130.5t119.5 51.5q43 0 91.5 -28t52.5 -109q4 -63 46 -63q82 0 124.5 245.5t42.5 564.5
q0 249 -37 332.5t-154 83.5h-53v93h1354v-93h-136q-84 0 -84 -69v-485h211q295 0 483.5 -106t188.5 -324q0 -206 -152.5 -304t-430.5 -98h-838zM1425 740v-561q0 -46 19.5 -66t70.5 -20h151q134 0 218.5 67t84.5 244q0 165 -76 250.5t-260 85.5h-208z" />
    <glyph glyph-name="afii10059" unicode="&#x40a;" horiz-adv-x="2443" 
d="M985 0v93h108q79 0 79 83v532h-563v-532q0 -83 67 -83h120v-93h-689v93h114q73 0 73 83v1115q0 95 -97 95h-90v93h689v-93h-102q-85 0 -85 -70v-484h563v459q0 60 -25.5 77.5t-72.5 17.5h-89v93h689v-93h-91q-96 0 -96 -82v-472h207q295 0 483.5 -106t188.5 -324
q0 -211 -158.5 -306.5t-423.5 -95.5h-799zM1487 740v-564q0 -44 19 -63.5t70 -19.5h148q138 0 221 68t83 243q0 164 -78.5 250t-259.5 86h-203z" />
    <glyph glyph-name="afii10060" unicode="&#x40b;" horiz-adv-x="2056" 
d="M1140 93v-93h-791v93h160q78 0 78 75v1138q0 78 -89 78q-257 0 -345 -467h-88l32 562h1293l33 -562h-91q-80 467 -343 467q-87 0 -87 -72v-568q201 119 393 119q200 0 332 -96.5t132 -292.5v-283q0 -63 25.5 -80.5t67.5 -17.5h132v-93h-758v93h137q52 0 68 21t16 62v330
q0 87 -18 135.5t-71.5 81t-123.5 32.5q-162 0 -332 -107v-480q0 -34 20.5 -54.5t49.5 -20.5h168z" />
    <glyph glyph-name="afii10061" unicode="&#x40c;" horiz-adv-x="1659" 
d="M630 793h193q75 0 125 28.5t66.5 73t23.5 152.5q10 181 30 265t81.5 136.5t166.5 52.5q118 0 182 -69.5t64 -153.5q0 -76 -46.5 -129t-109.5 -53t-104.5 39.5t-41.5 99.5q0 30 17 62q12 22 12 33q0 49 -39 49q-40 0 -68 -47t-42 -269q-11 -183 -50 -240.5t-126 -84.5
q201 -49 260 -138t102 -269q41 -172 91 -172q66 0 77 175h88q-19 -349 -291 -349q-78 0 -135.5 29.5t-93 108t-67.5 318.5q-17 131 -81.5 197t-158.5 66h-125v-539q0 -72 95 -72h105v-93h-723v93h116q57 0 74.5 27t17.5 45v1145q0 76 -92 76h-116v93h723v-93h-118
q-26 0 -54 -18t-28 -58v-517zM698 1599l-28 23l162 231q77 110 158 110q45 0 81.5 -33.5t36.5 -70.5q0 -40 -26.5 -70.5t-119.5 -71.5z" />
    </font>
</defs>
</svg>
